<svg width="114" height="176" viewBox="0 0 114 176" fill="none" xmlns="http://www.w3.org/2000/svg">
<path d="M103.974 171.564C105.063 171.564 105.996 170.708 105.996 169.54V73.9629H102.03V169.618C101.952 170.708 102.885 171.564 103.974 171.564Z" fill="#B8B0BF"/>
<path d="M39.7309 104.707H32.0312V157.477H39.7309V104.707Z" fill="#C7BFCE"/>
<path d="M19.6649 160.665H52.097C53.4191 160.665 54.508 159.576 54.508 158.253C54.508 156.929 53.4191 155.84 52.097 155.84H19.6649C18.3428 155.84 17.2539 156.929 17.2539 158.253C17.2539 159.576 18.265 160.665 19.6649 160.665Z" fill="#C7BFCE"/>
<path d="M52.9511 169.619C55.829 169.619 58.162 167.284 58.162 164.404C58.162 161.524 55.829 159.189 52.9511 159.189C50.0732 159.189 47.7402 161.524 47.7402 164.404C47.7402 167.284 50.0732 169.619 52.9511 169.619Z" fill="#C7BFCE"/>
<path d="M35.9179 169.619C38.7958 169.619 41.1288 167.284 41.1288 164.404C41.1288 161.524 38.7958 159.189 35.9179 159.189C33.04 159.189 30.707 161.524 30.707 164.404C30.707 167.284 33.04 169.619 35.9179 169.619Z" fill="#C7BFCE"/>
<path d="M18.9648 169.619C21.8427 169.619 24.1757 167.284 24.1757 164.404C24.1757 161.524 21.8427 159.189 18.9648 159.189C16.0869 159.189 13.7539 161.524 13.7539 164.404C13.7539 167.284 16.0869 169.619 18.9648 169.619Z" fill="#C7BFCE"/>
<path d="M13.2862 55.5176C13.2862 55.5176 -3.12428 65.3244 0.531126 86.8059C4.73096 111.556 29.3855 119.573 50.7736 113.736C72.1616 107.898 68.584 91.0088 68.584 91.0088L13.2862 55.5176Z" fill="#E0DFE5"/>
<path d="M10.0207 100.425C9.94288 100.425 9.86511 100.425 9.86511 100.347C4.42088 95.2878 3.40981 85.7923 3.33203 85.4031C3.33203 85.2475 3.40981 85.0918 3.56535 85.0918C3.7209 85.0918 3.87645 85.1696 3.87645 85.3253C3.87645 85.4031 4.88752 95.0543 10.1762 99.9577C10.254 100.035 10.3318 100.269 10.1762 100.347C10.1762 100.425 10.0984 100.425 10.0207 100.425Z" fill="white"/>
<path d="M42.7641 26.1752C42.7641 26.1752 53.8859 27.187 58.0857 32.5574C62.2855 37.9277 56.7635 71.7067 56.4524 72.1737C56.1413 72.6407 48.3639 76.0653 34.8311 75.7539C21.2983 75.4426 18.0317 72.8742 17.5651 72.1737C17.0984 71.4732 14.2985 33.3357 17.5651 30.0667C20.9094 26.8756 34.5977 25.1633 42.7641 26.1752Z" fill="#009CA3"/>
<path d="M57.7739 139.186V153.584L46.8077 157.71L39.8857 149.926L38.7969 136.617L57.7739 139.186Z" fill="#F8A991"/>
<path d="M78.2273 136.229V150.55L66.5611 154.675L59.2503 146.969L58.0059 133.66L78.2273 136.229Z" fill="#F8A991"/>
<path d="M54.352 69.6035C54.352 69.6035 82.1954 83.6132 85.6174 89.2949C89.0395 94.9766 85.3063 141.442 85.3063 141.442L60.574 141.754L57.1519 115.836L38.4082 72.0941L54.352 69.6035Z" fill="#6B9CFF"/>
<path d="M20.5202 72.5625C20.5202 72.5625 19.4314 85.0156 19.8202 89.1407C20.2091 93.2657 33.1197 102.839 33.1197 102.839L33.7419 142.767L62.2852 144.012C62.2852 144.012 62.9074 98.4026 62.4408 94.1219C61.9741 89.8411 42.9193 74.197 42.9193 74.197L20.5202 72.5625Z" fill="#6B9CFF"/>
<path d="M36.1543 20.3398L36.3098 27.5782C36.3098 27.5782 37.632 29.6018 41.9096 29.9131C45.0984 30.0688 46.1872 29.3683 46.1872 29.3683L45.6428 25.7102L45.0984 22.13L37.3987 20.6512L36.1543 20.3398Z" fill="#F8A991"/>
<path d="M37.3984 20.5723C37.3984 20.8058 37.4762 21.0393 37.6318 21.2727C39.3428 24.853 43.776 25.5535 45.6426 25.6313L45.0981 22.0511L37.3984 20.5723Z" fill="black"/>
<path d="M46.3378 5.55071C46.3378 5.55071 50.3821 14.5792 48.9822 19.6382C47.5822 24.6973 42.9935 23.9968 40.1936 22.985C37.3938 22.051 36.1494 20.3387 36.1494 20.3387C36.1494 20.3387 33.5828 21.1949 31.794 18.8599C30.0829 16.4471 31.094 13.723 32.5717 13.0226C34.0494 12.3999 35.8383 13.4117 35.8383 13.4117L34.4383 10.7654C34.4383 10.8433 40.1159 -2.54379 46.3378 5.55071Z" fill="#F8A991"/>
<path d="M46.029 16.9904H45.9512C45.7956 16.9125 45.7179 16.7569 45.7956 16.679C46.3401 15.0446 45.0957 13.1766 45.0179 13.1766C44.9401 13.0209 44.9401 12.8653 45.0957 12.7875C45.2512 12.7096 45.4068 12.7096 45.4845 12.8653C45.5623 12.9431 46.8845 14.8889 46.3401 16.8347C46.2623 16.9125 46.1845 16.9904 46.029 16.9904Z" fill="black"/>
<path d="M35.4543 17.6895C35.3765 17.6895 35.2987 17.6895 35.221 17.6117L32.7322 15.0432C32.6544 14.9654 32.6544 14.7319 32.7322 14.6541C32.8099 14.5762 33.0433 14.5762 33.121 14.6541L35.6098 17.2225C35.6876 17.3004 35.6876 17.5339 35.6098 17.6117C35.5321 17.6895 35.532 17.6895 35.4543 17.6895Z" fill="black"/>
<path d="M32.8075 16.9887C32.652 16.9887 32.5742 16.9109 32.5742 16.7554C32.5742 16.5998 32.652 16.4443 32.8075 16.4443L34.5186 16.2109C34.6741 16.2109 34.8297 16.2887 34.8297 16.4443C34.8297 16.5998 34.7519 16.7554 34.5964 16.7554L32.8075 16.9887C32.8853 16.9887 32.8075 16.9887 32.8075 16.9887Z" fill="black"/>
<path d="M41.9081 13.6419C41.7525 13.6419 41.6747 13.5641 41.6747 13.4084L41.4414 11.6961C41.4414 11.5404 41.5192 11.3848 41.6747 11.3848C41.8303 11.3848 41.9858 11.4626 41.9858 11.6183L42.2192 13.3306C42.2192 13.4862 42.1414 13.6419 41.9081 13.6419C41.9858 13.6419 41.9858 13.6419 41.9081 13.6419Z" fill="black"/>
<path d="M46.9627 13.2552C46.8072 13.2552 46.7294 13.1773 46.7294 13.0217L46.4961 11.3094C46.4961 11.1537 46.5739 10.998 46.7294 10.998C46.885 10.998 47.0405 11.0759 47.0405 11.2315L47.2738 12.9438C47.1961 13.0995 47.1183 13.2552 46.9627 13.2552Z" fill="black"/>
<path d="M40.8196 10.5277C40.7418 10.5277 40.7418 10.5277 40.664 10.5277C40.5085 10.4499 40.5085 10.2943 40.5862 10.1388C41.2084 8.97217 42.6862 9.36105 42.7639 9.36105C42.9195 9.36105 42.9973 9.51659 42.9973 9.67214C42.9973 9.82769 42.8417 9.90547 42.6862 9.90547C42.6084 9.90547 41.5195 9.67214 41.1307 10.4499C40.9751 10.5277 40.8973 10.5277 40.8196 10.5277Z" fill="black"/>
<path d="M47.2742 9.90631C47.1964 9.90631 47.1186 9.9063 47.0409 9.82853C47.0409 9.82853 46.7298 9.36188 46.2631 9.36188C46.1076 9.36188 45.8742 9.43965 45.7187 9.5952C45.6409 9.67297 45.4076 9.67297 45.3298 9.5952C45.252 9.51742 45.252 9.2841 45.3298 9.20633C45.6409 8.973 45.952 8.81746 46.3409 8.89523C46.9631 8.97301 47.4297 9.51742 47.5075 9.5952C47.5853 9.75075 47.5853 9.9063 47.4297 9.98407C47.4297 9.82852 47.352 9.90631 47.2742 9.90631Z" fill="black"/>
<path d="M36.6984 14.0322C36.6984 14.0322 39.1094 12.3977 39.0316 9.8293C38.876 7.33869 38.3316 6.63821 38.3316 6.63821C38.3316 6.63821 41.2093 6.48254 43.5425 5.70422C45.098 5.23723 45.7202 4.61458 45.7202 4.61458L46.4202 5.3929C47.1202 5.3929 48.7534 0.956496 47.7424 0.178179C46.6535 -0.600138 40.8204 1.42348 40.8204 1.42348C40.8204 1.42348 34.6762 -0.0553203 31.0986 4.38109C27.5209 8.73966 31.5652 13.8766 31.5652 13.8766C31.5652 13.8766 32.4985 11.7751 36.6984 14.0322Z" fill="black"/>
<path d="M43.7753 20.0242C43.6198 20.0242 43.4642 20.0242 43.2309 19.9464C42.9198 19.8685 42.6087 19.6351 42.5309 19.4016C42.2976 18.9346 42.4531 18.3119 42.4531 18.3119C42.4531 18.2341 42.5309 18.1562 42.6087 18.1562C42.6865 18.1562 42.7642 18.1562 42.842 18.1562L45.1753 19.0124C45.253 19.0124 45.3308 19.0902 45.3308 19.2459C45.3308 19.3237 45.3308 19.4016 45.253 19.4794C45.1752 19.4794 44.5531 20.0242 43.7753 20.0242ZM42.842 18.7789C42.842 18.9346 42.842 19.0124 42.9198 19.1681C42.9976 19.3237 43.1531 19.4016 43.3087 19.4794C43.6975 19.6351 44.0864 19.4794 44.3197 19.4016L42.842 18.7789Z" fill="black"/>
<path d="M90.2832 45.3983L90.5165 43.7638C90.5165 43.7638 96.7385 39.0161 100.549 37.4595C102.183 36.8368 104.438 37.3816 102.494 39.4831C101.483 40.6506 100.938 41.9737 100.938 41.9737C100.938 41.9737 103.972 41.0397 106.149 39.6388C107.471 38.7826 109.494 35.1245 110.66 35.9028C112.527 37.1481 110.349 40.6506 110.349 40.6506C110.349 40.6506 111.282 36.2142 113.149 37.9265C114.938 39.6388 110.038 48.3559 107.627 50.4574C105.294 52.5588 92.8498 54.9716 92.8498 54.9716L90.2832 45.3983Z" fill="#F8A991"/>
<path d="M103.349 43.9211C103.193 43.9211 103.115 43.8432 103.115 43.6876C103.115 43.5319 103.193 43.3762 103.349 43.3762C106.071 43.1427 108.637 40.73 108.637 40.6521C108.715 40.5743 108.948 40.5743 109.026 40.6521C109.104 40.73 109.104 40.9635 109.026 41.0413C108.871 41.1969 106.304 43.6876 103.349 43.9211Z" fill="black"/>
<path d="M106.539 45.943C106.461 45.943 106.461 45.943 106.384 45.8652L100.939 42.5962C100.784 42.5184 100.784 42.3627 100.862 42.2071C100.939 42.0514 101.095 42.0514 101.251 42.1292L106.539 45.3204L108.95 43.4524C109.106 43.3746 109.261 43.3746 109.339 43.5302C109.417 43.6859 109.417 43.8415 109.261 43.9194L106.695 45.8652C106.695 45.943 106.617 45.943 106.539 45.943Z" fill="black"/>
<path d="M96.1174 45.8654C96.0396 45.8654 95.884 45.7876 95.884 45.7098C95.8063 45.5541 95.884 45.3985 96.0396 45.3985C98.995 44.4645 100.939 42.2852 100.939 42.2852C101.017 42.2074 101.25 42.1295 101.328 42.2852C101.406 42.363 101.484 42.5187 101.328 42.6743C101.25 42.7522 99.3061 45.0093 96.1951 45.9433C96.1951 45.8655 96.1174 45.8654 96.1174 45.8654Z" fill="black"/>
<path d="M56.7639 31.1562C56.7639 31.1562 69.4411 42.364 79.6296 42.9867C84.5294 43.298 91.1403 40.963 91.1403 40.963L96.9734 56.2959C96.9734 56.2959 76.3631 75.8316 55.3639 60.421C49.2975 55.9846 56.7639 31.1562 56.7639 31.1562Z" fill="#009CA3"/>
<path d="M58.2406 50.3792C58.0851 50.3792 57.9295 50.2235 57.9295 50.0679C57.9295 48.1999 54.5852 38.0818 54.5852 38.004C54.5074 37.8483 54.5852 37.6926 54.7408 37.6926C54.8963 37.6148 55.0519 37.6926 55.0519 37.8483C55.2074 38.2375 58.4739 48.1221 58.4739 50.0679C58.4739 50.3014 58.3962 50.3792 58.2406 50.3792Z" fill="#F7B369"/>
<path d="M56.0625 166.816C56.0625 166.816 56.6069 143.7 60.1846 144.167C63.7622 144.634 67.3398 147.981 67.3398 147.981C67.3398 147.981 75.5062 143.622 79.1616 146.035C82.817 148.448 84.8391 153.74 84.8391 153.74L104.827 166.738C104.827 166.738 107.238 170.552 106.538 172.498C105.994 173.977 75.5839 173.121 62.2845 172.731C58.7846 172.731 56.0625 170.085 56.0625 166.816Z" fill="#495151"/>
<path d="M66.4086 161.212C66.4086 161.212 61.431 148.914 58.1645 146.813C54.898 144.711 46.8094 151.405 46.8094 151.405C46.8094 151.405 40.043 144.244 38.332 147.98C36.6987 151.716 35.8432 165.103 37.0876 168.139C38.332 171.096 47.6649 176 59.8756 176C65.6309 176 73.9528 174.209 73.9528 172.264C73.9528 169.15 68.353 163.235 66.4086 161.212Z" fill="#141A1A"/>
<path d="M61.3507 157.241H51.94C51.7845 157.241 51.6289 157.086 51.6289 156.93C51.6289 156.775 51.7845 156.619 51.94 156.619H61.3507C61.5063 156.619 61.6618 156.775 61.6618 156.93C61.5841 157.086 61.5063 157.241 61.3507 157.241Z" fill="white"/>
<path d="M43.0758 30.455L47.1978 57.6961H43.7758L40.8203 29.9102L43.0758 30.455Z" fill="#40507F"/>
<path d="M93.7055 58.9413L96.661 57.9294C97.0499 57.7738 97.2832 57.3846 97.1276 56.9955L91.6834 40.7286C91.5278 40.3395 91.139 40.106 90.7501 40.2617L87.7947 41.2735C87.4058 41.4291 87.1725 41.8183 87.328 42.2074L92.7722 58.4743C92.9278 58.8634 93.3167 59.0969 93.7055 58.9413Z" fill="#40507F"/>
<path d="M62.9069 161.444H52.9517C52.7962 161.444 52.6406 161.289 52.6406 161.133C52.6406 160.978 52.7962 160.822 52.9517 160.822H62.9069C63.0624 160.822 63.218 160.978 63.218 161.133C63.1402 161.367 63.0624 161.444 62.9069 161.444Z" fill="white"/>
<path d="M79.8622 155.762C79.7067 155.762 79.6289 155.684 79.6289 155.528C79.6289 155.373 79.7067 155.217 79.8622 155.217L85.8509 154.439C86.0064 154.439 86.162 154.517 86.162 154.673C86.162 154.828 86.0842 154.984 85.9287 154.984L79.8622 155.762Z" fill="white"/>
<path d="M81.3388 159.967C81.1832 159.967 81.1055 159.889 81.1055 159.733C81.1055 159.578 81.1832 159.422 81.3388 159.422L91.3717 157.865C91.5273 157.865 91.6828 157.943 91.6828 158.099C91.6828 158.254 91.6051 158.41 91.4495 158.41L81.3388 159.967Z" fill="white"/>
<path d="M63.5284 140.586C63.3729 140.586 63.2173 140.43 63.2173 140.275C63.2173 139.886 64.2284 97.7008 63.2173 92.7974C62.5174 89.4507 51.7845 78.9434 51.7067 78.7877C51.6289 78.7099 51.6289 78.6321 51.6289 78.5542C51.6289 78.4764 51.7067 78.3986 51.7845 78.3207L59.4841 75.5188C59.6397 75.441 59.7952 75.5188 59.873 75.6745C59.9508 75.8301 59.873 75.9858 59.7175 76.0636L52.4067 78.7099C54.1955 80.5 63.0618 89.4507 63.7618 92.6418C64.8506 97.623 63.8395 138.562 63.7618 140.275C63.8395 140.508 63.684 140.586 63.5284 140.586Z" fill="#40507F"/>
<path d="M38.2535 67.2696C38.2535 67.2696 44.9422 69.9937 46.2643 69.7602C47.5865 69.6046 52.3308 69.0597 52.5641 68.0479L50.7753 64.9347C50.7753 64.9347 53.4196 66.0243 55.2862 65.0903C57.075 64.1563 59.2527 62.2884 59.7194 60.8096C60.186 59.3308 58.0861 59.6421 58.0861 59.6421C58.0861 59.6421 60.4193 58.1633 57.4639 56.918C54.4307 55.6727 41.5201 53.8047 36.1536 57.1515C30.7094 60.7318 38.2535 67.2696 38.2535 67.2696Z" fill="#F8A991"/>
<path d="M58.0082 60.0297H57.9305C54.8195 58.9408 51.4752 59.4075 51.4752 59.4075C51.3196 59.4075 51.1641 59.3297 51.1641 59.1742C51.1641 59.0186 51.2418 58.8631 51.3974 58.8631C51.5529 58.8631 54.8972 58.3964 58.086 59.4853C58.2416 59.563 58.3193 59.7186 58.2416 59.7964C58.2416 59.9519 58.1638 60.0297 58.0082 60.0297Z" fill="black"/>
<path d="M33.274 105.251C33.1962 105.251 33.1962 105.251 33.1184 105.174C33.0407 105.096 32.9629 105.018 32.9629 104.94C32.9629 104.784 33.3518 100.815 35.2961 99.5697C35.9183 99.1027 36.6961 99.0249 37.4738 99.2584C38.1738 99.4919 38.5627 99.8032 38.5627 100.27C38.796 102.06 33.8962 104.862 33.274 105.174C33.4295 105.174 33.3518 105.251 33.274 105.251ZM36.6961 99.6475C36.3072 99.6475 35.9961 99.7253 35.685 99.9588C34.3628 100.815 33.8184 103.306 33.6629 104.395C35.6072 103.228 38.2516 101.282 38.1738 100.348C38.1738 100.115 37.8627 99.881 37.396 99.8032C37.1627 99.7253 36.9294 99.6475 36.6961 99.6475Z" fill="#40507F"/>
<path d="M51.3965 68.824H85.9285L95.8058 46.4863H62.596C61.7405 46.4863 61.0405 46.9533 60.6517 47.7316L51.3965 68.824Z" fill="white"/>
<path d="M54.3535 68.824H88.8855L97.674 48.8991C98.1407 47.7316 97.3629 46.4863 96.1185 46.4863H64.2309L54.3535 68.824Z" fill="#7C576C"/>
<path d="M39.8081 71.6281H88.5729C89.3506 71.6281 89.9728 71.0055 89.9728 70.2271C89.9728 69.4488 89.3506 68.8262 88.5729 68.8262H39.8081C39.0304 68.8262 38.4082 69.4488 38.4082 70.2271C38.4082 71.0055 39.0304 71.6281 39.8081 71.6281Z" fill="black"/>
<path d="M17.5636 30.0645C17.5636 30.0645 -1.72453 51.079 1.38646 64.7774C4.49745 78.4758 42.6848 69.5251 42.6848 69.5251L42.2959 53.4918L22.4634 50.3785L17.5636 30.0645Z" fill="#009CA3"/>
<path d="M15.8526 51.3925C14.6082 51.3925 13.5971 51.2369 13.286 50.7699C13.1305 50.4586 13.2083 50.0694 13.5971 49.6802C15.9304 47.1118 21.6857 50.1472 21.919 50.2251C21.9968 50.3029 22.0746 50.3807 22.0746 50.5364C22.0746 50.6142 21.9968 50.7699 21.8413 50.7699C20.7524 51.0034 17.9525 51.3925 15.8526 51.3925ZM16.397 49.2133C15.4637 49.2133 14.6082 49.4467 14.0638 50.0694C13.8305 50.3029 13.8305 50.4586 13.8305 50.5364C14.1416 51.0812 17.6414 50.9256 20.908 50.3807C19.8969 49.9137 18.0303 49.2133 16.397 49.2133Z" fill="#F7B369"/>
<path d="M20.3653 73.8079C20.2097 73.8079 19.9764 73.8079 19.8209 73.8079C19.6653 73.8079 19.5098 73.6522 19.5098 73.4966C19.5098 73.3409 19.6653 73.1852 19.8209 73.1852C19.9764 73.1852 20.2097 73.1852 20.3653 73.1852C29.6983 73.1852 37.3202 71.2395 37.3979 71.2395C37.5535 71.1616 37.709 71.3173 37.7868 71.4729C37.8646 71.6286 37.709 71.7843 37.5535 71.8621C37.4757 71.8621 29.776 73.8079 20.3653 73.8079Z" fill="#FFBA57"/>
<path d="M21.8411 50.7688C21.7633 50.7688 21.6855 50.691 21.6077 50.6131C21.53 50.4575 21.53 50.3018 21.6855 50.224C23.4743 48.9787 21.9188 44.9314 21.9188 44.9314C21.841 44.7757 21.9188 44.6201 22.0744 44.5423C22.2299 44.4644 22.3855 44.5423 22.4632 44.6979C22.541 44.8536 24.1743 49.2122 22.0744 50.691C21.9188 50.7688 21.8411 50.7688 21.8411 50.7688Z" fill="#F7B369"/>
<path d="M2.63102 76.2971H111.049C112.449 76.2971 113.616 75.1296 113.616 73.7286C113.616 72.3276 112.449 71.1602 111.049 71.1602H2.63102C1.23108 71.1602 0.0644531 72.3276 0.0644531 73.7286C0.0644531 75.1296 1.23108 76.2971 2.63102 76.2971Z" fill="#B8B0BF"/>
<path d="M56.6848 136.928L34.2079 135.761C34.0524 135.761 33.9746 135.605 33.9746 135.45C33.9746 135.294 34.1302 135.138 34.2857 135.216L56.7626 136.383C56.9181 136.383 56.9959 136.539 56.9959 136.695C56.9181 136.85 56.8404 136.928 56.6848 136.928Z" fill="#40507F"/>
<path d="M83.6719 135.761H63.606C63.4505 135.761 63.2949 135.605 63.2949 135.45C63.2949 135.294 63.4505 135.139 63.606 135.139H83.6719C83.8274 135.139 83.983 135.294 83.983 135.45C83.983 135.605 83.8274 135.761 83.6719 135.761Z" fill="#40507F"/>
<path d="M39.186 70.6149H42.2969C42.6858 70.6149 43.0747 70.3035 43.0747 69.8365V52.6357C43.0747 52.2466 42.7636 51.8574 42.2969 51.8574H39.186C38.7971 51.8574 38.4082 52.1687 38.4082 52.6357V69.8365C38.486 70.3035 38.7971 70.6149 39.186 70.6149Z" fill="#40507F"/>
<path d="M76.1273 60.6535C77.7595 60.6535 79.0827 59.3293 79.0827 57.6959C79.0827 56.0624 77.7595 54.7383 76.1273 54.7383C74.4951 54.7383 73.1719 56.0624 73.1719 57.6959C73.1719 59.3293 74.4951 60.6535 76.1273 60.6535Z" fill="white"/>
<path d="M45.7977 26.6399C45.7977 26.6399 48.1309 34.4231 47.3532 34.2675C46.5754 34.1118 41.9867 29.9867 41.9867 29.9867C41.9867 29.9867 38.6424 34.2675 37.4758 34.2675C36.3869 34.2675 35.998 25.9395 35.998 25.9395C35.998 25.9395 37.1647 28.5857 41.2089 29.1306C45.2532 29.6754 45.7977 26.6399 45.7977 26.6399Z" fill="#40507F"/>
<path d="M9.63054 171.329C10.7194 171.329 11.6527 170.473 11.6527 169.306V73.7285H7.68618V169.384C7.6084 170.473 8.5417 171.329 9.63054 171.329Z" fill="#B8B0BF"/>
</svg>
