<svg width="369" height="318" viewBox="0 0 369 318" fill="none" xmlns="http://www.w3.org/2000/svg">
<rect x="51" width="318" height="318" rx="12" fill="#F6F7FA"/>
<mask id="mask0_213_3995" style="mask-type:alpha" maskUnits="userSpaceOnUse" x="51" y="0" width="318" height="318">
<rect x="51" width="318" height="318" rx="8" fill="#F6F7FA"/>
</mask>
<g mask="url(#mask0_213_3995)">
<rect x="111" y="176" width="286" height="119" rx="8" fill="#FEFEFE"/>
<path d="M125.399 272.2L123.461 275.8H387.098L374.498 225.4C373.851 233.8 372.171 251.44 370.621 254.8C369.07 258.16 362.867 260.2 359.959 260.8L329.912 226.6L321.189 264.4C302.773 223.6 292.111 246.4 287.265 247.6C282.419 248.8 278.542 263.2 276.603 263.2C275.052 263.2 270.141 242 267.88 231.4C267.234 239.2 264.197 256 257.218 260.8C250.239 265.6 239.448 243.2 234.925 231.4L223.294 254.8L214.571 247.6L207.786 254.8L197.124 236.2L189.37 263.2L177.739 242.2L168.047 257.8L158.354 223L145.754 247.6L136.061 233.8L131.854 268L125.399 272.2Z" fill="url(#paint0_linear_213_3995)"/>
<path d="M123 276L125.099 272.5L131.922 268.5L135.999 234.319C136.02 234.137 136.255 234.078 136.361 234.228L145.563 247.329C145.649 247.452 145.836 247.439 145.904 247.305L158.12 223.456C158.203 223.293 158.442 223.318 158.491 223.493L167.924 257.361C167.97 257.529 168.194 257.561 168.286 257.413L177.559 242.489C177.639 242.36 177.83 242.364 177.904 242.498L189.136 262.778C189.222 262.934 189.454 262.907 189.503 262.736L196.993 236.655C197.042 236.485 197.271 236.457 197.359 236.61L207.651 254.566C207.718 254.682 207.878 254.701 207.97 254.604L214.442 247.736C214.514 247.66 214.633 247.652 214.715 247.719L223.099 254.64C223.198 254.722 223.348 254.69 223.406 254.574L234.722 231.808C234.799 231.652 235.023 231.655 235.085 231.818C239.699 243.719 250.32 265.544 257.217 260.8C263.817 256.26 266.892 240.987 267.753 232.745C267.777 232.516 268.114 232.495 268.163 232.72C270.528 243.662 275.114 263.2 276.602 263.2C278.541 263.2 282.418 248.8 287.264 247.6C292.088 246.406 302.674 223.81 320.934 263.84C321.013 264.014 321.278 264.009 321.321 263.822L329.824 226.98C329.86 226.821 330.061 226.771 330.169 226.893L359.958 260.8C362.866 260.2 369.069 258.16 370.62 254.8C372.102 251.588 373.703 235.329 374.405 226.564C374.423 226.34 374.742 226.317 374.8 226.534L388 276" stroke="#00ABB3" stroke-width="2" stroke-linecap="round"/>
<rect x="122" y="276" width="267" height="1" fill="#E8E9E9"/>
<path d="M123.959 202V193.273H127.07C127.746 193.273 128.307 193.389 128.753 193.622C129.202 193.855 129.537 194.178 129.759 194.589C129.98 194.999 130.091 195.472 130.091 196.009C130.091 196.543 129.979 197.013 129.754 197.419C129.533 197.822 129.197 198.136 128.749 198.361C128.303 198.585 127.741 198.697 127.065 198.697H124.709V197.564H126.946C127.372 197.564 127.719 197.503 127.986 197.381C128.256 197.259 128.453 197.081 128.578 196.848C128.703 196.615 128.766 196.335 128.766 196.009C128.766 195.679 128.702 195.393 128.574 195.152C128.449 194.911 128.251 194.726 127.982 194.598C127.714 194.467 127.364 194.402 126.929 194.402H125.276V202H123.959ZM128.267 198.062L130.423 202H128.923L126.81 198.062H128.267ZM134.33 202.132C133.685 202.132 133.13 201.994 132.664 201.719C132.201 201.44 131.843 201.05 131.59 200.547C131.34 200.041 131.215 199.449 131.215 198.77C131.215 198.099 131.34 197.509 131.59 196.997C131.843 196.486 132.195 196.087 132.647 195.8C133.101 195.513 133.632 195.369 134.24 195.369C134.61 195.369 134.968 195.43 135.314 195.553C135.661 195.675 135.972 195.866 136.248 196.128C136.523 196.389 136.74 196.729 136.9 197.146C137.059 197.561 137.138 198.065 137.138 198.659V199.111H131.935V198.156H135.89C135.89 197.821 135.821 197.524 135.685 197.266C135.549 197.004 135.357 196.798 135.11 196.648C134.865 196.497 134.578 196.422 134.249 196.422C133.891 196.422 133.578 196.51 133.311 196.686C133.047 196.859 132.843 197.087 132.698 197.368C132.556 197.646 132.485 197.949 132.485 198.276V199.021C132.485 199.459 132.561 199.831 132.715 200.138C132.871 200.445 133.088 200.679 133.367 200.841C133.645 201 133.971 201.08 134.343 201.08C134.584 201.08 134.804 201.045 135.003 200.977C135.202 200.906 135.374 200.801 135.519 200.662C135.664 200.523 135.775 200.351 135.851 200.146L137.057 200.364C136.961 200.719 136.787 201.03 136.537 201.297C136.29 201.561 135.979 201.767 135.604 201.915C135.232 202.06 134.807 202.132 134.33 202.132ZM140.457 202.145C140.042 202.145 139.667 202.068 139.332 201.915C138.996 201.759 138.731 201.533 138.535 201.237C138.342 200.942 138.245 200.58 138.245 200.151C138.245 199.781 138.316 199.477 138.458 199.239C138.6 199 138.792 198.811 139.033 198.672C139.275 198.533 139.545 198.428 139.843 198.357C140.141 198.286 140.445 198.232 140.755 198.195C141.147 198.149 141.465 198.112 141.71 198.084C141.954 198.053 142.131 198.003 142.242 197.935C142.353 197.866 142.408 197.756 142.408 197.602V197.572C142.408 197.2 142.303 196.912 142.093 196.707C141.886 196.503 141.576 196.401 141.164 196.401C140.735 196.401 140.397 196.496 140.15 196.686C139.906 196.874 139.737 197.082 139.643 197.312L138.445 197.04C138.587 196.642 138.795 196.321 139.067 196.077C139.343 195.83 139.66 195.651 140.018 195.54C140.376 195.426 140.752 195.369 141.147 195.369C141.408 195.369 141.685 195.401 141.978 195.463C142.273 195.523 142.549 195.634 142.805 195.795C143.063 195.957 143.275 196.189 143.44 196.49C143.604 196.788 143.687 197.176 143.687 197.653V202H142.442V201.105H142.391C142.309 201.27 142.185 201.432 142.021 201.591C141.856 201.75 141.644 201.882 141.386 201.987C141.127 202.092 140.817 202.145 140.457 202.145ZM140.734 201.122C141.086 201.122 141.387 201.053 141.637 200.913C141.89 200.774 142.082 200.592 142.212 200.368C142.346 200.141 142.413 199.898 142.413 199.639V198.795C142.367 198.841 142.279 198.884 142.148 198.923C142.021 198.96 141.874 198.993 141.71 199.021C141.545 199.047 141.384 199.071 141.228 199.094C141.072 199.114 140.941 199.131 140.836 199.145C140.589 199.176 140.363 199.229 140.158 199.303C139.957 199.376 139.795 199.483 139.673 199.622C139.553 199.759 139.494 199.94 139.494 200.168C139.494 200.483 139.61 200.722 139.843 200.884C140.076 201.043 140.373 201.122 140.734 201.122ZM146.658 193.273V202H145.384V193.273H146.658ZM154.603 195.455V196.477H151.028V195.455H154.603ZM151.987 193.886H153.261V200.078C153.261 200.325 153.298 200.511 153.372 200.636C153.446 200.759 153.541 200.842 153.657 200.888C153.777 200.93 153.906 200.952 154.045 200.952C154.147 200.952 154.237 200.945 154.314 200.93C154.39 200.916 154.45 200.905 154.493 200.896L154.723 201.949C154.649 201.977 154.544 202.006 154.407 202.034C154.271 202.065 154.1 202.082 153.896 202.085C153.561 202.091 153.248 202.031 152.958 201.906C152.669 201.781 152.434 201.588 152.255 201.327C152.076 201.065 151.987 200.737 151.987 200.342V193.886ZM156.013 202V195.455H157.287V202H156.013ZM156.656 194.445C156.435 194.445 156.244 194.371 156.085 194.223C155.929 194.072 155.851 193.893 155.851 193.686C155.851 193.476 155.929 193.297 156.085 193.149C156.244 192.999 156.435 192.923 156.656 192.923C156.878 192.923 157.067 192.999 157.223 193.149C157.382 193.297 157.462 193.476 157.462 193.686C157.462 193.893 157.382 194.072 157.223 194.223C157.067 194.371 156.878 194.445 156.656 194.445ZM159.001 202V195.455H160.224V196.52H160.305C160.441 196.159 160.664 195.878 160.974 195.676C161.284 195.472 161.654 195.369 162.086 195.369C162.524 195.369 162.89 195.472 163.186 195.676C163.484 195.881 163.704 196.162 163.846 196.52H163.914C164.071 196.17 164.319 195.892 164.66 195.685C165.001 195.474 165.407 195.369 165.879 195.369C166.473 195.369 166.957 195.555 167.332 195.928C167.71 196.3 167.899 196.861 167.899 197.611V202H166.625V197.73C166.625 197.287 166.504 196.966 166.262 196.767C166.021 196.568 165.733 196.469 165.397 196.469C164.983 196.469 164.66 196.597 164.43 196.852C164.2 197.105 164.085 197.43 164.085 197.828V202H162.815V197.649C162.815 197.294 162.704 197.009 162.483 196.793C162.261 196.577 161.973 196.469 161.618 196.469C161.376 196.469 161.153 196.533 160.949 196.661C160.747 196.786 160.583 196.96 160.458 197.185C160.336 197.409 160.275 197.669 160.275 197.964V202H159.001ZM172.428 202.132C171.783 202.132 171.227 201.994 170.761 201.719C170.298 201.44 169.94 201.05 169.688 200.547C169.438 200.041 169.312 199.449 169.312 198.77C169.312 198.099 169.438 197.509 169.688 196.997C169.94 196.486 170.293 196.087 170.744 195.8C171.199 195.513 171.73 195.369 172.338 195.369C172.707 195.369 173.065 195.43 173.412 195.553C173.759 195.675 174.07 195.866 174.345 196.128C174.621 196.389 174.838 196.729 174.997 197.146C175.156 197.561 175.236 198.065 175.236 198.659V199.111H170.033V198.156H173.987C173.987 197.821 173.919 197.524 173.783 197.266C173.646 197.004 173.455 196.798 173.207 196.648C172.963 196.497 172.676 196.422 172.347 196.422C171.989 196.422 171.676 196.51 171.409 196.686C171.145 196.859 170.94 197.087 170.795 197.368C170.653 197.646 170.582 197.949 170.582 198.276V199.021C170.582 199.459 170.659 199.831 170.812 200.138C170.969 200.445 171.186 200.679 171.464 200.841C171.743 201 172.068 201.08 172.44 201.08C172.682 201.08 172.902 201.045 173.101 200.977C173.3 200.906 173.472 200.801 173.616 200.662C173.761 200.523 173.872 200.351 173.949 200.146L175.155 200.364C175.058 200.719 174.885 201.03 174.635 201.297C174.388 201.561 174.077 201.767 173.702 201.915C173.33 202.06 172.905 202.132 172.428 202.132ZM179.825 202V195.455H181.048V196.52H181.129C181.266 196.159 181.489 195.878 181.798 195.676C182.108 195.472 182.479 195.369 182.911 195.369C183.348 195.369 183.714 195.472 184.01 195.676C184.308 195.881 184.528 196.162 184.67 196.52H184.739C184.895 196.17 185.143 195.892 185.484 195.685C185.825 195.474 186.232 195.369 186.703 195.369C187.297 195.369 187.781 195.555 188.156 195.928C188.534 196.3 188.723 196.861 188.723 197.611V202H187.449V197.73C187.449 197.287 187.328 196.966 187.087 196.767C186.845 196.568 186.557 196.469 186.222 196.469C185.807 196.469 185.484 196.597 185.254 196.852C185.024 197.105 184.909 197.43 184.909 197.828V202H183.639V197.649C183.639 197.294 183.528 197.009 183.307 196.793C183.085 196.577 182.797 196.469 182.442 196.469C182.2 196.469 181.977 196.533 181.773 196.661C181.571 196.786 181.408 196.96 181.283 197.185C181.161 197.409 181.099 197.669 181.099 197.964V202H179.825ZM193.188 202.132C192.574 202.132 192.039 201.991 191.581 201.71C191.124 201.429 190.769 201.036 190.516 200.53C190.263 200.024 190.137 199.433 190.137 198.757C190.137 198.078 190.263 197.484 190.516 196.976C190.769 196.467 191.124 196.072 191.581 195.791C192.039 195.51 192.574 195.369 193.188 195.369C193.801 195.369 194.337 195.51 194.794 195.791C195.252 196.072 195.607 196.467 195.86 196.976C196.113 197.484 196.239 198.078 196.239 198.757C196.239 199.433 196.113 200.024 195.86 200.53C195.607 201.036 195.252 201.429 194.794 201.71C194.337 201.991 193.801 202.132 193.188 202.132ZM193.192 201.062C193.59 201.062 193.919 200.957 194.181 200.747C194.442 200.537 194.635 200.257 194.76 199.908C194.888 199.558 194.952 199.173 194.952 198.753C194.952 198.335 194.888 197.952 194.76 197.602C194.635 197.25 194.442 196.967 194.181 196.754C193.919 196.541 193.59 196.435 193.192 196.435C192.792 196.435 192.459 196.541 192.195 196.754C191.934 196.967 191.739 197.25 191.611 197.602C191.486 197.952 191.424 198.335 191.424 198.753C191.424 199.173 191.486 199.558 191.611 199.908C191.739 200.257 191.934 200.537 192.195 200.747C192.459 200.957 192.792 201.062 193.192 201.062ZM198.935 198.114V202H197.661V195.455H198.884V196.52H198.965C199.116 196.173 199.352 195.895 199.673 195.685C199.996 195.474 200.404 195.369 200.896 195.369C201.342 195.369 201.732 195.463 202.067 195.651C202.403 195.835 202.663 196.111 202.847 196.477C203.032 196.844 203.124 197.297 203.124 197.837V202H201.85V197.99C201.85 197.516 201.727 197.145 201.479 196.878C201.232 196.608 200.893 196.473 200.461 196.473C200.165 196.473 199.903 196.537 199.673 196.665C199.445 196.793 199.265 196.98 199.131 197.227C199.001 197.472 198.935 197.767 198.935 198.114ZM204.833 202V195.455H206.107V202H204.833ZM205.477 194.445C205.255 194.445 205.065 194.371 204.906 194.223C204.749 194.072 204.671 193.893 204.671 193.686C204.671 193.476 204.749 193.297 204.906 193.149C205.065 192.999 205.255 192.923 205.477 192.923C205.698 192.923 205.887 192.999 206.043 193.149C206.202 193.297 206.282 193.476 206.282 193.686C206.282 193.893 206.202 194.072 206.043 194.223C205.887 194.371 205.698 194.445 205.477 194.445ZM210.877 195.455V196.477H207.301V195.455H210.877ZM208.26 193.886H209.534V200.078C209.534 200.325 209.571 200.511 209.645 200.636C209.719 200.759 209.814 200.842 209.931 200.888C210.05 200.93 210.179 200.952 210.319 200.952C210.421 200.952 210.51 200.945 210.587 200.93C210.664 200.916 210.723 200.905 210.766 200.896L210.996 201.949C210.922 201.977 210.817 202.006 210.681 202.034C210.544 202.065 210.374 202.082 210.169 202.085C209.834 202.091 209.522 202.031 209.232 201.906C208.942 201.781 208.708 201.588 208.529 201.327C208.35 201.065 208.26 200.737 208.26 200.342V193.886ZM214.973 202.132C214.359 202.132 213.824 201.991 213.366 201.71C212.909 201.429 212.554 201.036 212.301 200.53C212.048 200.024 211.922 199.433 211.922 198.757C211.922 198.078 212.048 197.484 212.301 196.976C212.554 196.467 212.909 196.072 213.366 195.791C213.824 195.51 214.359 195.369 214.973 195.369C215.587 195.369 216.122 195.51 216.58 195.791C217.037 196.072 217.392 196.467 217.645 196.976C217.898 197.484 218.024 198.078 218.024 198.757C218.024 199.433 217.898 200.024 217.645 200.53C217.392 201.036 217.037 201.429 216.58 201.71C216.122 201.991 215.587 202.132 214.973 202.132ZM214.977 201.062C215.375 201.062 215.705 200.957 215.966 200.747C216.227 200.537 216.42 200.257 216.545 199.908C216.673 199.558 216.737 199.173 216.737 198.753C216.737 198.335 216.673 197.952 216.545 197.602C216.42 197.25 216.227 196.967 215.966 196.754C215.705 196.541 215.375 196.435 214.977 196.435C214.577 196.435 214.244 196.541 213.98 196.754C213.719 196.967 213.524 197.25 213.396 197.602C213.271 197.952 213.209 198.335 213.209 198.753C213.209 199.173 213.271 199.558 213.396 199.908C213.524 200.257 213.719 200.537 213.98 200.747C214.244 200.957 214.577 201.062 214.977 201.062ZM219.446 202V195.455H220.678V196.494H220.746C220.865 196.142 221.076 195.865 221.377 195.663C221.681 195.459 222.025 195.357 222.408 195.357C222.488 195.357 222.581 195.359 222.689 195.365C222.8 195.371 222.887 195.378 222.949 195.386V196.605C222.898 196.591 222.807 196.575 222.676 196.558C222.546 196.538 222.415 196.528 222.284 196.528C221.983 196.528 221.715 196.592 221.479 196.72C221.246 196.845 221.061 197.02 220.925 197.244C220.789 197.466 220.721 197.719 220.721 198.003V202H219.446ZM224.052 202V195.455H225.326V202H224.052ZM224.695 194.445C224.474 194.445 224.283 194.371 224.124 194.223C223.968 194.072 223.89 193.893 223.89 193.686C223.89 193.476 223.968 193.297 224.124 193.149C224.283 192.999 224.474 192.923 224.695 192.923C224.917 192.923 225.106 192.999 225.262 193.149C225.421 193.297 225.501 193.476 225.501 193.686C225.501 193.893 225.421 194.072 225.262 194.223C225.106 194.371 224.917 194.445 224.695 194.445ZM228.314 198.114V202H227.04V195.455H228.263V196.52H228.344C228.495 196.173 228.73 195.895 229.051 195.685C229.375 195.474 229.783 195.369 230.275 195.369C230.721 195.369 231.111 195.463 231.446 195.651C231.782 195.835 232.042 196.111 232.226 196.477C232.411 196.844 232.503 197.297 232.503 197.837V202H231.229V197.99C231.229 197.516 231.105 197.145 230.858 196.878C230.611 196.608 230.272 196.473 229.84 196.473C229.544 196.473 229.282 196.537 229.051 196.665C228.824 196.793 228.644 196.98 228.51 197.227C228.38 197.472 228.314 197.767 228.314 198.114ZM236.956 204.591C236.436 204.591 235.989 204.523 235.614 204.386C235.242 204.25 234.938 204.07 234.702 203.845C234.466 203.621 234.29 203.375 234.174 203.108L235.269 202.656C235.346 202.781 235.448 202.913 235.576 203.053C235.706 203.195 235.882 203.315 236.104 203.415C236.328 203.514 236.617 203.564 236.969 203.564C237.452 203.564 237.851 203.446 238.167 203.21C238.482 202.977 238.64 202.605 238.64 202.094V200.807H238.559C238.482 200.946 238.371 201.101 238.226 201.271C238.084 201.442 237.888 201.589 237.638 201.714C237.388 201.839 237.063 201.902 236.662 201.902C236.145 201.902 235.679 201.781 235.265 201.54C234.853 201.295 234.526 200.936 234.284 200.462C234.046 199.984 233.926 199.398 233.926 198.702C233.926 198.006 234.044 197.409 234.28 196.912C234.519 196.415 234.846 196.034 235.26 195.77C235.675 195.503 236.145 195.369 236.671 195.369C237.077 195.369 237.405 195.438 237.655 195.574C237.905 195.707 238.1 195.864 238.239 196.043C238.381 196.222 238.49 196.379 238.567 196.516H238.661V195.455H239.909V202.145C239.909 202.707 239.779 203.169 239.517 203.53C239.256 203.891 238.902 204.158 238.456 204.331C238.013 204.504 237.513 204.591 236.956 204.591ZM236.944 200.845C237.31 200.845 237.62 200.76 237.873 200.589C238.128 200.416 238.321 200.169 238.452 199.848C238.586 199.524 238.652 199.136 238.652 198.685C238.652 198.244 238.587 197.857 238.456 197.521C238.326 197.186 238.134 196.925 237.881 196.737C237.628 196.547 237.316 196.452 236.944 196.452C236.56 196.452 236.24 196.551 235.985 196.75C235.729 196.946 235.536 197.213 235.405 197.551C235.277 197.889 235.213 198.267 235.213 198.685C235.213 199.114 235.279 199.49 235.409 199.814C235.54 200.138 235.733 200.391 235.989 200.572C236.248 200.754 236.566 200.845 236.944 200.845Z" fill="#495151"/>
<rect x="111" y="216" width="286" height="1" fill="#F4F5F9"/>
<rect x="122" y="221" width="1" height="56" fill="#E8E9E9"/>
<path d="M124.939 286.072C124.602 286.071 124.315 285.982 124.076 285.806C123.837 285.63 123.655 285.374 123.528 285.037C123.402 284.7 123.339 284.295 123.339 283.82C123.339 283.347 123.402 282.943 123.528 282.608C123.656 282.273 123.839 282.017 124.078 281.841C124.318 281.665 124.605 281.577 124.939 281.577C125.273 281.577 125.559 281.665 125.798 281.843C126.036 282.019 126.219 282.275 126.345 282.61C126.473 282.944 126.537 283.347 126.537 283.82C126.537 284.296 126.474 284.702 126.347 285.039C126.221 285.374 126.038 285.631 125.8 285.808C125.561 285.984 125.274 286.072 124.939 286.072ZM124.939 285.504C125.234 285.504 125.465 285.359 125.631 285.071C125.799 284.783 125.883 284.366 125.883 283.82C125.883 283.458 125.844 283.152 125.768 282.902C125.692 282.651 125.584 282.46 125.442 282.331C125.301 282.2 125.134 282.135 124.939 282.135C124.645 282.135 124.414 282.28 124.246 282.57C124.079 282.859 123.994 283.276 123.993 283.82C123.993 284.184 124.031 284.491 124.106 284.743C124.183 284.993 124.291 285.183 124.432 285.312C124.572 285.44 124.741 285.504 124.939 285.504Z" fill="#495151"/>
<path d="M145.075 281.636V286H144.415V282.297H144.389L143.345 282.979V282.348L144.434 281.636H145.075ZM147.775 286.072C147.438 286.071 147.151 285.982 146.912 285.806C146.673 285.63 146.491 285.374 146.364 285.037C146.238 284.7 146.175 284.295 146.175 283.82C146.175 283.347 146.238 282.943 146.364 282.608C146.492 282.273 146.675 282.017 146.914 281.841C147.154 281.665 147.441 281.577 147.775 281.577C148.109 281.577 148.395 281.665 148.634 281.843C148.872 282.019 149.055 282.275 149.181 282.61C149.309 282.944 149.373 283.347 149.373 283.82C149.373 284.296 149.31 284.702 149.183 285.039C149.057 285.374 148.874 285.631 148.636 285.808C148.397 285.984 148.11 286.072 147.775 286.072ZM147.775 285.504C148.07 285.504 148.301 285.359 148.467 285.071C148.635 284.783 148.719 284.366 148.719 283.82C148.719 283.458 148.68 283.152 148.604 282.902C148.528 282.651 148.42 282.46 148.278 282.331C148.137 282.2 147.969 282.135 147.775 282.135C147.481 282.135 147.25 282.28 147.082 282.57C146.915 282.859 146.83 283.276 146.829 283.82C146.829 284.184 146.866 284.491 146.942 284.743C147.018 284.993 147.127 285.183 147.268 285.312C147.408 285.44 147.577 285.504 147.775 285.504Z" fill="#495151"/>
<path d="M168.075 281.636V286H167.415V282.297H167.389L166.345 282.979V282.348L167.434 281.636H168.075ZM170.696 286.06C170.429 286.06 170.189 286.009 169.976 285.906C169.764 285.803 169.595 285.661 169.469 285.48C169.342 285.3 169.275 285.094 169.266 284.862H169.906C169.921 285.05 170.004 285.204 170.155 285.325C170.305 285.445 170.486 285.506 170.696 285.506C170.864 285.506 171.012 285.467 171.141 285.391C171.272 285.312 171.374 285.205 171.448 285.069C171.523 284.933 171.561 284.777 171.561 284.602C171.561 284.425 171.523 284.266 171.446 284.127C171.369 283.988 171.263 283.879 171.129 283.799C170.995 283.719 170.842 283.679 170.668 283.678C170.536 283.678 170.403 283.7 170.27 283.746C170.136 283.791 170.028 283.851 169.946 283.925L169.343 283.835L169.588 281.636H171.987V282.201H170.136L169.997 283.422H170.023C170.108 283.339 170.221 283.271 170.362 283.215C170.504 283.16 170.656 283.132 170.817 283.132C171.083 283.132 171.32 283.195 171.527 283.322C171.736 283.448 171.9 283.621 172.019 283.839C172.14 284.057 172.2 284.307 172.198 284.589C172.2 284.872 172.136 285.124 172.006 285.346C171.879 285.567 171.701 285.742 171.474 285.87C171.248 285.996 170.989 286.06 170.696 286.06Z" fill="#495151"/>
<path d="M189.42 286V285.523L190.896 283.993C191.054 283.827 191.184 283.681 191.286 283.556C191.39 283.43 191.467 283.31 191.518 283.196C191.57 283.082 191.595 282.962 191.595 282.834C191.595 282.689 191.561 282.564 191.493 282.459C191.425 282.352 191.332 282.271 191.214 282.214C191.096 282.156 190.963 282.126 190.815 282.126C190.659 282.126 190.523 282.158 190.406 282.222C190.29 282.286 190.2 282.376 190.138 282.493C190.075 282.609 190.044 282.746 190.044 282.902H189.415C189.415 282.636 189.477 282.404 189.599 282.205C189.721 282.006 189.888 281.852 190.102 281.743C190.315 281.632 190.557 281.577 190.828 281.577C191.102 281.577 191.344 281.631 191.553 281.741C191.763 281.849 191.927 281.996 192.045 282.184C192.163 282.37 192.222 282.58 192.222 282.815C192.222 282.977 192.191 283.135 192.13 283.29C192.07 283.445 191.966 283.617 191.817 283.808C191.668 283.996 191.46 284.226 191.195 284.496L190.327 285.403V285.435H192.292V286H189.42ZM194.619 286.072C194.282 286.071 193.994 285.982 193.756 285.806C193.517 285.63 193.335 285.374 193.208 285.037C193.082 284.7 193.018 284.295 193.018 283.82C193.018 283.347 193.082 282.943 193.208 282.608C193.336 282.273 193.519 282.017 193.758 281.841C193.998 281.665 194.285 281.577 194.619 281.577C194.952 281.577 195.239 281.665 195.477 281.843C195.716 282.019 195.898 282.275 196.025 282.61C196.153 282.944 196.217 283.347 196.217 283.82C196.217 284.296 196.153 284.702 196.027 285.039C195.901 285.374 195.718 285.631 195.479 285.808C195.241 285.984 194.954 286.072 194.619 286.072ZM194.619 285.504C194.914 285.504 195.145 285.359 195.311 285.071C195.479 284.783 195.562 284.366 195.562 283.82C195.562 283.458 195.524 283.152 195.447 282.902C195.372 282.651 195.263 282.46 195.121 282.331C194.981 282.2 194.813 282.135 194.619 282.135C194.325 282.135 194.094 282.28 193.926 282.57C193.759 282.859 193.674 283.276 193.673 283.82C193.673 284.184 193.71 284.491 193.786 284.743C193.862 284.993 193.971 285.183 194.112 285.312C194.252 285.44 194.421 285.504 194.619 285.504Z" fill="#495151"/>
<path d="M213.42 286V285.523L214.896 283.993C215.054 283.827 215.184 283.681 215.286 283.556C215.39 283.43 215.467 283.31 215.518 283.196C215.57 283.082 215.595 282.962 215.595 282.834C215.595 282.689 215.561 282.564 215.493 282.459C215.425 282.352 215.332 282.271 215.214 282.214C215.096 282.156 214.963 282.126 214.815 282.126C214.659 282.126 214.523 282.158 214.406 282.222C214.29 282.286 214.2 282.376 214.138 282.493C214.075 282.609 214.044 282.746 214.044 282.902H213.415C213.415 282.636 213.477 282.404 213.599 282.205C213.721 282.006 213.888 281.852 214.102 281.743C214.315 281.632 214.557 281.577 214.828 281.577C215.102 281.577 215.344 281.631 215.553 281.741C215.763 281.849 215.927 281.996 216.045 282.184C216.163 282.37 216.222 282.58 216.222 282.815C216.222 282.977 216.191 283.135 216.13 283.29C216.07 283.445 215.966 283.617 215.817 283.808C215.668 283.996 215.46 284.226 215.195 284.496L214.327 285.403V285.435H216.292V286H213.42ZM218.54 286.06C218.273 286.06 218.033 286.009 217.82 285.906C217.608 285.803 217.439 285.661 217.312 285.48C217.186 285.3 217.119 285.094 217.11 284.862H217.749C217.765 285.05 217.848 285.204 217.999 285.325C218.149 285.445 218.33 285.506 218.54 285.506C218.707 285.506 218.856 285.467 218.985 285.391C219.116 285.312 219.218 285.205 219.292 285.069C219.367 284.933 219.405 284.777 219.405 284.602C219.405 284.425 219.366 284.266 219.29 284.127C219.213 283.988 219.107 283.879 218.972 283.799C218.839 283.719 218.685 283.679 218.512 283.678C218.38 283.678 218.247 283.7 218.114 283.746C217.98 283.791 217.872 283.851 217.79 283.925L217.187 283.835L217.432 281.636H219.831V282.201H217.979L217.841 283.422H217.866C217.952 283.339 218.065 283.271 218.205 283.215C218.347 283.16 218.499 283.132 218.661 283.132C218.927 283.132 219.163 283.195 219.371 283.322C219.58 283.448 219.744 283.621 219.863 283.839C219.984 284.057 220.043 284.307 220.042 284.589C220.043 284.872 219.979 285.124 219.85 285.346C219.722 285.567 219.545 285.742 219.317 285.87C219.092 285.996 218.832 286.06 218.54 286.06Z" fill="#495151"/>
<path d="M238.939 286.06C238.646 286.06 238.385 286.009 238.155 285.908C237.926 285.808 237.745 285.668 237.612 285.489C237.479 285.308 237.408 285.099 237.398 284.862H238.067C238.076 284.991 238.119 285.104 238.197 285.199C238.277 285.293 238.381 285.365 238.509 285.416C238.636 285.467 238.778 285.493 238.935 285.493C239.107 285.493 239.259 285.463 239.391 285.403C239.524 285.344 239.629 285.261 239.704 285.154C239.779 285.046 239.817 284.922 239.817 284.781C239.817 284.635 239.779 284.506 239.704 284.396C239.63 284.283 239.521 284.195 239.378 284.131C239.236 284.067 239.064 284.036 238.862 284.036H238.494V283.499H238.862C239.024 283.499 239.166 283.469 239.288 283.411C239.412 283.353 239.509 283.272 239.578 283.168C239.648 283.063 239.683 282.94 239.683 282.8C239.683 282.665 239.652 282.548 239.591 282.448C239.531 282.347 239.446 282.268 239.335 282.212C239.226 282.155 239.097 282.126 238.947 282.126C238.805 282.126 238.673 282.153 238.549 282.205C238.427 282.256 238.327 282.33 238.251 282.427C238.174 282.522 238.133 282.636 238.127 282.77H237.49C237.497 282.534 237.567 282.327 237.699 282.148C237.832 281.969 238.009 281.829 238.227 281.728C238.446 281.627 238.689 281.577 238.956 281.577C239.236 281.577 239.477 281.631 239.68 281.741C239.885 281.849 240.043 281.993 240.153 282.173C240.266 282.354 240.321 282.551 240.32 282.766C240.321 283.01 240.253 283.217 240.115 283.388C239.979 283.558 239.797 283.673 239.57 283.731V283.765C239.859 283.809 240.084 283.924 240.243 284.11C240.403 284.296 240.483 284.527 240.482 284.803C240.483 285.043 240.416 285.258 240.281 285.448C240.148 285.638 239.965 285.788 239.734 285.898C239.502 286.006 239.237 286.06 238.939 286.06ZM242.806 286.072C242.469 286.071 242.182 285.982 241.943 285.806C241.705 285.63 241.522 285.374 241.396 285.037C241.269 284.7 241.206 284.295 241.206 283.82C241.206 283.347 241.269 282.943 241.396 282.608C241.523 282.273 241.707 282.017 241.945 281.841C242.185 281.665 242.472 281.577 242.806 281.577C243.14 281.577 243.426 281.665 243.665 281.843C243.903 282.019 244.086 282.275 244.212 282.61C244.34 282.944 244.404 283.347 244.404 283.82C244.404 284.296 244.341 284.702 244.214 285.039C244.088 285.374 243.906 285.631 243.667 285.808C243.428 285.984 243.141 286.072 242.806 286.072ZM242.806 285.504C243.102 285.504 243.332 285.359 243.499 285.071C243.666 284.783 243.75 284.366 243.75 283.82C243.75 283.458 243.712 283.152 243.635 282.902C243.56 282.651 243.451 282.46 243.309 282.331C243.168 282.2 243.001 282.135 242.806 282.135C242.512 282.135 242.281 282.28 242.114 282.57C241.946 282.859 241.862 283.276 241.86 283.82C241.86 284.184 241.898 284.491 241.973 284.743C242.05 284.993 242.158 285.183 242.299 285.312C242.44 285.44 242.609 285.504 242.806 285.504Z" fill="#495151"/>
<path d="M262.939 286.06C262.646 286.06 262.385 286.009 262.155 285.908C261.926 285.808 261.745 285.668 261.612 285.489C261.479 285.308 261.408 285.099 261.398 284.862H262.067C262.076 284.991 262.119 285.104 262.197 285.199C262.277 285.293 262.381 285.365 262.509 285.416C262.636 285.467 262.778 285.493 262.935 285.493C263.107 285.493 263.259 285.463 263.391 285.403C263.524 285.344 263.629 285.261 263.704 285.154C263.779 285.046 263.817 284.922 263.817 284.781C263.817 284.635 263.779 284.506 263.704 284.396C263.63 284.283 263.521 284.195 263.378 284.131C263.236 284.067 263.064 284.036 262.862 284.036H262.494V283.499H262.862C263.024 283.499 263.166 283.469 263.288 283.411C263.412 283.353 263.509 283.272 263.578 283.168C263.648 283.063 263.683 282.94 263.683 282.8C263.683 282.665 263.652 282.548 263.591 282.448C263.531 282.347 263.446 282.268 263.335 282.212C263.226 282.155 263.097 282.126 262.947 282.126C262.805 282.126 262.673 282.153 262.549 282.205C262.427 282.256 262.327 282.33 262.251 282.427C262.174 282.522 262.133 282.636 262.127 282.77H261.49C261.497 282.534 261.567 282.327 261.699 282.148C261.832 281.969 262.009 281.829 262.227 281.728C262.446 281.627 262.689 281.577 262.956 281.577C263.236 281.577 263.477 281.631 263.68 281.741C263.885 281.849 264.043 281.993 264.153 282.173C264.266 282.354 264.321 282.551 264.32 282.766C264.321 283.01 264.253 283.217 264.115 283.388C263.979 283.558 263.797 283.673 263.57 283.731V283.765C263.859 283.809 264.084 283.924 264.243 284.11C264.403 284.296 264.483 284.527 264.482 284.803C264.483 285.043 264.416 285.258 264.281 285.448C264.148 285.638 263.965 285.788 263.734 285.898C263.502 286.006 263.237 286.06 262.939 286.06ZM266.727 286.06C266.46 286.06 266.22 286.009 266.007 285.906C265.795 285.803 265.626 285.661 265.5 285.48C265.374 285.3 265.306 285.094 265.298 284.862H265.937C265.952 285.05 266.036 285.204 266.186 285.325C266.337 285.445 266.517 285.506 266.727 285.506C266.895 285.506 267.043 285.467 267.173 285.391C267.303 285.312 267.406 285.205 267.479 285.069C267.555 284.933 267.592 284.777 267.592 284.602C267.592 284.425 267.554 284.266 267.477 284.127C267.401 283.988 267.295 283.879 267.16 283.799C267.026 283.719 266.873 283.679 266.7 283.678C266.567 283.678 266.435 283.7 266.301 283.746C266.168 283.791 266.06 283.851 265.977 283.925L265.374 283.835L265.619 281.636H268.018V282.201H266.167L266.028 283.422H266.054C266.139 283.339 266.252 283.271 266.393 283.215C266.535 283.16 266.687 283.132 266.849 283.132C267.114 283.132 267.351 283.195 267.558 283.322C267.767 283.448 267.931 283.621 268.05 283.839C268.171 284.057 268.231 284.307 268.229 284.589C268.231 284.872 268.167 285.124 268.038 285.346C267.91 285.567 267.732 285.742 267.505 285.87C267.279 285.996 267.02 286.06 266.727 286.06Z" fill="#495151"/>
<path d="M285.328 285.148V284.615L287.214 281.636H287.634V282.42H287.367L286.018 284.555V284.589H288.603V285.148H285.328ZM287.397 286V284.986L287.401 284.743V281.636H288.026V286H287.397ZM290.865 286.072C290.528 286.071 290.24 285.982 290.002 285.806C289.763 285.63 289.581 285.374 289.454 285.037C289.328 284.7 289.265 284.295 289.265 283.82C289.265 283.347 289.328 282.943 289.454 282.608C289.582 282.273 289.765 282.017 290.004 281.841C290.244 281.665 290.531 281.577 290.865 281.577C291.199 281.577 291.485 281.665 291.723 281.843C291.962 282.019 292.145 282.275 292.271 282.61C292.399 282.944 292.463 283.347 292.463 283.82C292.463 284.296 292.4 284.702 292.273 285.039C292.147 285.374 291.964 285.631 291.725 285.808C291.487 285.984 291.2 286.072 290.865 286.072ZM290.865 285.504C291.16 285.504 291.391 285.359 291.557 285.071C291.725 284.783 291.809 284.366 291.809 283.82C291.809 283.458 291.77 283.152 291.694 282.902C291.618 282.651 291.51 282.46 291.368 282.331C291.227 282.2 291.059 282.135 290.865 282.135C290.571 282.135 290.34 282.28 290.172 282.57C290.005 282.859 289.92 283.276 289.919 283.82C289.919 284.184 289.956 284.491 290.032 284.743C290.108 284.993 290.217 285.183 290.358 285.312C290.498 285.44 290.667 285.504 290.865 285.504Z" fill="#495151"/>
<path d="M309.328 285.148V284.615L311.214 281.636H311.634V282.42H311.367L310.018 284.555V284.589H312.603V285.148H309.328ZM311.397 286V284.986L311.401 284.743V281.636H312.026V286H311.397ZM314.786 286.06C314.519 286.06 314.279 286.009 314.066 285.906C313.854 285.803 313.685 285.661 313.559 285.48C313.432 285.3 313.365 285.094 313.356 284.862H313.995C314.011 285.05 314.094 285.204 314.245 285.325C314.395 285.445 314.576 285.506 314.786 285.506C314.953 285.506 315.102 285.467 315.231 285.391C315.362 285.312 315.464 285.205 315.538 285.069C315.613 284.933 315.651 284.777 315.651 284.602C315.651 284.425 315.613 284.266 315.536 284.127C315.459 283.988 315.353 283.879 315.218 283.799C315.085 283.719 314.931 283.679 314.758 283.678C314.626 283.678 314.493 283.7 314.36 283.746C314.226 283.791 314.118 283.851 314.036 283.925L313.433 283.835L313.678 281.636H316.077V282.201H314.225L314.087 283.422H314.113C314.198 283.339 314.311 283.271 314.451 283.215C314.593 283.16 314.745 283.132 314.907 283.132C315.173 283.132 315.409 283.195 315.617 283.322C315.826 283.448 315.99 283.621 316.109 283.839C316.23 284.057 316.289 284.307 316.288 284.589C316.289 284.872 316.225 285.124 316.096 285.346C315.968 285.567 315.791 285.742 315.564 285.87C315.338 285.996 315.078 286.06 314.786 286.06Z" fill="#495151"/>
<path d="M334.86 286.06C334.593 286.06 334.353 286.009 334.14 285.906C333.928 285.803 333.759 285.661 333.633 285.48C333.506 285.3 333.439 285.094 333.43 284.862H334.07C334.085 285.05 334.168 285.204 334.319 285.325C334.469 285.445 334.65 285.506 334.86 285.506C335.028 285.506 335.176 285.467 335.305 285.391C335.436 285.312 335.538 285.205 335.612 285.069C335.688 284.933 335.725 284.777 335.725 284.602C335.725 284.425 335.687 284.266 335.61 284.127C335.533 283.988 335.428 283.879 335.293 283.799C335.159 283.719 335.006 283.679 334.832 283.678C334.7 283.678 334.567 283.7 334.434 283.746C334.3 283.791 334.192 283.851 334.11 283.925L333.507 283.835L333.752 281.636H336.151V282.201H334.3L334.161 283.422H334.187C334.272 283.339 334.385 283.271 334.526 283.215C334.668 283.16 334.82 283.132 334.982 283.132C335.247 283.132 335.484 283.195 335.691 283.322C335.9 283.448 336.064 283.621 336.183 283.839C336.304 284.057 336.364 284.307 336.362 284.589C336.364 284.872 336.3 285.124 336.17 285.346C336.043 285.567 335.865 285.742 335.638 285.87C335.412 285.996 335.153 286.06 334.86 286.06ZM338.66 286.072C338.323 286.071 338.035 285.982 337.797 285.806C337.558 285.63 337.376 285.374 337.249 285.037C337.123 284.7 337.059 284.295 337.059 283.82C337.059 283.347 337.123 282.943 337.249 282.608C337.377 282.273 337.56 282.017 337.799 281.841C338.039 281.665 338.326 281.577 338.66 281.577C338.993 281.577 339.28 281.665 339.518 281.843C339.757 282.019 339.939 282.275 340.066 282.61C340.194 282.944 340.258 283.347 340.258 283.82C340.258 284.296 340.194 284.702 340.068 285.039C339.942 285.374 339.759 285.631 339.52 285.808C339.282 285.984 338.995 286.072 338.66 286.072ZM338.66 285.504C338.955 285.504 339.186 285.359 339.352 285.071C339.52 284.783 339.604 284.366 339.604 283.82C339.604 283.458 339.565 283.152 339.488 282.902C339.413 282.651 339.305 282.46 339.162 282.331C339.022 282.2 338.854 282.135 338.66 282.135C338.366 282.135 338.135 282.28 337.967 282.57C337.8 282.859 337.715 283.276 337.714 283.82C337.714 284.184 337.751 284.491 337.827 284.743C337.903 284.993 338.012 285.183 338.153 285.312C338.293 285.44 338.462 285.504 338.66 285.504Z" fill="#495151"/>
<path d="M358.86 286.06C358.593 286.06 358.353 286.009 358.14 285.906C357.928 285.803 357.759 285.661 357.633 285.48C357.506 285.3 357.439 285.094 357.43 284.862H358.07C358.085 285.05 358.168 285.204 358.319 285.325C358.469 285.445 358.65 285.506 358.86 285.506C359.028 285.506 359.176 285.467 359.305 285.391C359.436 285.312 359.538 285.205 359.612 285.069C359.688 284.933 359.725 284.777 359.725 284.602C359.725 284.425 359.687 284.266 359.61 284.127C359.533 283.988 359.428 283.879 359.293 283.799C359.159 283.719 359.006 283.679 358.832 283.678C358.7 283.678 358.567 283.7 358.434 283.746C358.3 283.791 358.192 283.851 358.11 283.925L357.507 283.835L357.752 281.636H360.151V282.201H358.3L358.161 283.422H358.187C358.272 283.339 358.385 283.271 358.526 283.215C358.668 283.16 358.82 283.132 358.982 283.132C359.247 283.132 359.484 283.195 359.691 283.322C359.9 283.448 360.064 283.621 360.183 283.839C360.304 284.057 360.364 284.307 360.362 284.589C360.364 284.872 360.3 285.124 360.17 285.346C360.043 285.567 359.865 285.742 359.638 285.87C359.412 285.996 359.153 286.06 358.86 286.06ZM362.581 286.06C362.314 286.06 362.074 286.009 361.861 285.906C361.649 285.803 361.48 285.661 361.354 285.48C361.227 285.3 361.16 285.094 361.151 284.862H361.79C361.806 285.05 361.889 285.204 362.04 285.325C362.19 285.445 362.371 285.506 362.581 285.506C362.748 285.506 362.897 285.467 363.026 285.391C363.157 285.312 363.259 285.205 363.333 285.069C363.408 284.933 363.446 284.777 363.446 284.602C363.446 284.425 363.407 284.266 363.331 284.127C363.254 283.988 363.148 283.879 363.013 283.799C362.88 283.719 362.726 283.679 362.553 283.678C362.421 283.678 362.288 283.7 362.155 283.746C362.021 283.791 361.913 283.851 361.831 283.925L361.228 283.835L361.473 281.636H363.872V282.201H362.02L361.882 283.422H361.907C361.993 283.339 362.106 283.271 362.246 283.215C362.388 283.16 362.54 283.132 362.702 283.132C362.968 283.132 363.204 283.195 363.412 283.322C363.621 283.448 363.785 283.621 363.904 283.839C364.025 284.057 364.084 284.307 364.083 284.589C364.084 284.872 364.02 285.124 363.891 285.346C363.763 285.567 363.586 285.742 363.358 285.87C363.133 285.996 362.873 286.06 362.581 286.06Z" fill="#495151"/>
</g>
<g filter="url(#filter0_d_213_3995)">
<rect x="17" y="14" width="238" height="147" rx="8" fill="#FEFEFE"/>
</g>
<path d="M33.8778 143.119C33.2926 143.119 32.7699 143.018 32.3097 142.817C31.8523 142.615 31.4901 142.335 31.223 141.977C30.9588 141.616 30.8168 141.199 30.7969 140.724H32.1349C32.152 140.983 32.2386 141.207 32.3949 141.398C32.554 141.585 32.7614 141.73 33.017 141.832C33.2727 141.935 33.5568 141.986 33.8693 141.986C34.2131 141.986 34.517 141.926 34.7812 141.807C35.0483 141.687 35.2571 141.521 35.4077 141.308C35.5582 141.092 35.6335 140.844 35.6335 140.562C35.6335 140.27 35.5582 140.013 35.4077 139.791C35.2599 139.567 35.0426 139.391 34.7557 139.263C34.4716 139.135 34.1278 139.071 33.7244 139.071H32.9872V137.997H33.7244C34.0483 137.997 34.3324 137.939 34.5767 137.822C34.8239 137.706 35.017 137.544 35.1562 137.337C35.2955 137.126 35.3651 136.881 35.3651 136.599C35.3651 136.33 35.304 136.095 35.1818 135.896C35.0625 135.695 34.892 135.537 34.6705 135.423C34.4517 135.31 34.1932 135.253 33.8949 135.253C33.6108 135.253 33.3452 135.305 33.098 135.411C32.8537 135.513 32.6548 135.661 32.5014 135.854C32.348 136.044 32.2656 136.273 32.2543 136.54H30.9801C30.9943 136.068 31.1335 135.653 31.3977 135.295C31.6648 134.937 32.017 134.658 32.4545 134.456C32.892 134.254 33.3778 134.153 33.9119 134.153C34.4716 134.153 34.9545 134.263 35.3608 134.482C35.7699 134.697 36.0852 134.986 36.3068 135.347C36.5313 135.707 36.642 136.102 36.6392 136.531C36.642 137.02 36.5057 137.435 36.2301 137.776C35.9574 138.116 35.5938 138.345 35.1392 138.462V138.53C35.7188 138.618 36.1676 138.848 36.4858 139.22C36.8068 139.592 36.9659 140.054 36.9631 140.605C36.9659 141.085 36.8324 141.516 36.5625 141.896C36.2955 142.277 35.9304 142.577 35.4673 142.795C35.0043 143.011 34.4744 143.119 33.8778 143.119ZM41.6122 143.145C40.9389 143.142 40.3636 142.964 39.8864 142.612C39.4091 142.26 39.044 141.747 38.7912 141.074C38.5384 140.401 38.4119 139.589 38.4119 138.641C38.4119 137.695 38.5384 136.886 38.7912 136.216C39.0469 135.545 39.4134 135.034 39.8906 134.682C40.3707 134.33 40.9446 134.153 41.6122 134.153C42.2798 134.153 42.8523 134.331 43.3295 134.686C43.8068 135.038 44.1719 135.55 44.4247 136.22C44.6804 136.888 44.8082 137.695 44.8082 138.641C44.8082 139.592 44.6818 140.405 44.429 141.078C44.1761 141.749 43.8111 142.261 43.3338 142.616C42.8565 142.969 42.2827 143.145 41.6122 143.145ZM41.6122 142.007C42.2031 142.007 42.6648 141.719 42.9972 141.142C43.3324 140.565 43.5 139.732 43.5 138.641C43.5 137.916 43.4233 137.304 43.2699 136.804C43.1193 136.301 42.902 135.92 42.6179 135.662C42.3366 135.401 42.0014 135.27 41.6122 135.27C41.0241 135.27 40.5625 135.56 40.2273 136.139C39.892 136.719 39.723 137.553 39.7202 138.641C39.7202 139.368 39.7955 139.983 39.946 140.486C40.0994 140.986 40.3168 141.365 40.598 141.624C40.8793 141.879 41.2173 142.007 41.6122 142.007ZM49.5128 143V136.455H50.7358V137.52H50.8168C50.9531 137.159 51.1761 136.878 51.4858 136.676C51.7955 136.472 52.1662 136.369 52.598 136.369C53.0355 136.369 53.402 136.472 53.6974 136.676C53.9957 136.881 54.2159 137.162 54.358 137.52H54.4261C54.5824 137.17 54.831 136.892 55.1719 136.685C55.5128 136.474 55.919 136.369 56.3906 136.369C56.9844 136.369 57.4688 136.555 57.8438 136.928C58.2216 137.3 58.4105 137.861 58.4105 138.611V143H57.1364V138.73C57.1364 138.287 57.0156 137.966 56.7741 137.767C56.5327 137.568 56.2443 137.469 55.9091 137.469C55.4943 137.469 55.1719 137.597 54.9418 137.852C54.7116 138.105 54.5966 138.43 54.5966 138.828V143H53.3267V138.649C53.3267 138.294 53.2159 138.009 52.9943 137.793C52.7727 137.577 52.4844 137.469 52.1293 137.469C51.8878 137.469 51.6648 137.533 51.4602 137.661C51.2585 137.786 51.0952 137.96 50.9702 138.185C50.848 138.409 50.7869 138.669 50.7869 138.964V143H49.5128ZM60.1183 143V136.455H61.3924V143H60.1183ZM60.7617 135.445C60.5401 135.445 60.3498 135.371 60.1907 135.223C60.0344 135.072 59.9563 134.893 59.9563 134.686C59.9563 134.476 60.0344 134.297 60.1907 134.149C60.3498 133.999 60.5401 133.923 60.7617 133.923C60.9833 133.923 61.1722 133.999 61.3285 134.149C61.4876 134.297 61.5671 134.476 61.5671 134.686C61.5671 134.893 61.4876 135.072 61.3285 135.223C61.1722 135.371 60.9833 135.445 60.7617 135.445ZM64.3807 139.114V143H63.1065V136.455H64.3295V137.52H64.4105C64.5611 137.173 64.7969 136.895 65.1179 136.685C65.4418 136.474 65.8494 136.369 66.3409 136.369C66.7869 136.369 67.1776 136.463 67.5128 136.651C67.848 136.835 68.108 137.111 68.2926 137.477C68.4773 137.844 68.5696 138.297 68.5696 138.837V143H67.2955V138.99C67.2955 138.516 67.1719 138.145 66.9247 137.878C66.6776 137.608 66.3381 137.473 65.9062 137.473C65.6108 137.473 65.348 137.537 65.1179 137.665C64.8906 137.793 64.7102 137.98 64.5767 138.227C64.446 138.472 64.3807 138.767 64.3807 139.114ZM76.4755 143.145C75.8022 143.142 75.2269 142.964 74.7496 142.612C74.2724 142.26 73.9073 141.747 73.6545 141.074C73.4016 140.401 73.2752 139.589 73.2752 138.641C73.2752 137.695 73.4016 136.886 73.6545 136.216C73.9102 135.545 74.2766 135.034 74.7539 134.682C75.234 134.33 75.8079 134.153 76.4755 134.153C77.1431 134.153 77.7156 134.331 78.1928 134.686C78.6701 135.038 79.0352 135.55 79.288 136.22C79.5437 136.888 79.6715 137.695 79.6715 138.641C79.6715 139.592 79.5451 140.405 79.2923 141.078C79.0394 141.749 78.6744 142.261 78.1971 142.616C77.7198 142.969 77.146 143.145 76.4755 143.145ZM76.4755 142.007C77.0664 142.007 77.5281 141.719 77.8604 141.142C78.1957 140.565 78.3633 139.732 78.3633 138.641C78.3633 137.916 78.2866 137.304 78.1332 136.804C77.9826 136.301 77.7653 135.92 77.4812 135.662C77.1999 135.401 76.8647 135.27 76.4755 135.27C75.8874 135.27 75.4258 135.56 75.0906 136.139C74.7553 136.719 74.5863 137.553 74.5835 138.641C74.5835 139.368 74.6587 139.983 74.8093 140.486C74.9627 140.986 75.18 141.365 75.4613 141.624C75.7425 141.879 76.0806 142.007 76.4755 142.007ZM89.2809 138.053L88.1261 138.257C88.0778 138.109 88.0011 137.969 87.896 137.835C87.7937 137.702 87.6545 137.592 87.4783 137.507C87.3022 137.422 87.082 137.379 86.8178 137.379C86.457 137.379 86.1559 137.46 85.9144 137.622C85.6729 137.781 85.5522 137.987 85.5522 138.24C85.5522 138.459 85.6332 138.635 85.7951 138.768C85.957 138.902 86.2184 139.011 86.5792 139.097L87.619 139.335C88.2212 139.474 88.6701 139.689 88.9656 139.979C89.261 140.268 89.4087 140.645 89.4087 141.108C89.4087 141.5 89.2951 141.849 89.0678 142.156C88.8434 142.46 88.5295 142.699 88.1261 142.872C87.7255 143.045 87.261 143.132 86.7326 143.132C85.9996 143.132 85.4016 142.976 84.9386 142.663C84.4755 142.348 84.1914 141.901 84.0863 141.321L85.3178 141.134C85.3945 141.455 85.5522 141.697 85.7908 141.862C86.0295 142.024 86.3406 142.105 86.7241 142.105C87.1417 142.105 87.4755 142.018 87.7255 141.845C87.9755 141.669 88.1005 141.455 88.1005 141.202C88.1005 140.997 88.0238 140.825 87.8704 140.686C87.7198 140.547 87.4883 140.442 87.1758 140.371L86.0678 140.128C85.457 139.989 85.0053 139.767 84.7127 139.463C84.4229 139.159 84.2781 138.774 84.2781 138.308C84.2781 137.922 84.386 137.584 84.6019 137.294C84.8178 137.004 85.1161 136.778 85.4968 136.616C85.8775 136.452 86.3136 136.369 86.805 136.369C87.5124 136.369 88.0692 136.523 88.4755 136.83C88.8817 137.134 89.1502 137.541 89.2809 138.053ZM93.6307 143.132C92.9858 143.132 92.4304 142.994 91.9645 142.719C91.5014 142.44 91.1435 142.05 90.8906 141.547C90.6406 141.041 90.5156 140.449 90.5156 139.77C90.5156 139.099 90.6406 138.509 90.8906 137.997C91.1435 137.486 91.4957 137.087 91.9474 136.8C92.402 136.513 92.9332 136.369 93.5412 136.369C93.9105 136.369 94.2685 136.43 94.6151 136.553C94.9616 136.675 95.2727 136.866 95.5483 137.128C95.8239 137.389 96.0412 137.729 96.2003 138.146C96.3594 138.561 96.4389 139.065 96.4389 139.659V140.111H91.2358V139.156H95.1903C95.1903 138.821 95.1222 138.524 94.9858 138.266C94.8494 138.004 94.6577 137.798 94.4105 137.648C94.1662 137.497 93.8793 137.422 93.5497 137.422C93.1918 137.422 92.8793 137.51 92.6122 137.686C92.348 137.859 92.1435 138.087 91.9986 138.368C91.8565 138.646 91.7855 138.949 91.7855 139.276V140.021C91.7855 140.459 91.8622 140.831 92.0156 141.138C92.1719 141.445 92.3892 141.679 92.6676 141.841C92.946 142 93.2713 142.08 93.6435 142.08C93.8849 142.08 94.1051 142.045 94.304 141.977C94.5028 141.906 94.6747 141.801 94.8196 141.662C94.9645 141.523 95.0753 141.351 95.152 141.146L96.358 141.364C96.2614 141.719 96.0881 142.03 95.8381 142.297C95.5909 142.561 95.2798 142.767 94.9048 142.915C94.5327 143.06 94.108 143.132 93.6307 143.132ZM100.61 143.132C99.9762 143.132 99.4308 142.989 98.9734 142.702C98.5188 142.412 98.1694 142.013 97.9251 141.504C97.6808 140.996 97.5586 140.413 97.5586 139.757C97.5586 139.092 97.6836 138.506 97.9336 137.997C98.1836 137.486 98.5359 137.087 98.9904 136.8C99.445 136.513 99.9805 136.369 100.597 136.369C101.094 136.369 101.537 136.462 101.926 136.646C102.316 136.828 102.63 137.084 102.868 137.413C103.11 137.743 103.253 138.128 103.299 138.568H102.059C101.99 138.261 101.834 137.997 101.59 137.776C101.348 137.554 101.025 137.443 100.618 137.443C100.263 137.443 99.9521 137.537 99.685 137.724C99.4208 137.909 99.2148 138.173 99.0671 138.517C98.9194 138.858 98.8455 139.261 98.8455 139.727C98.8455 140.205 98.918 140.616 99.0629 140.963C99.2077 141.31 99.4123 141.578 99.6765 141.768C99.9435 141.959 100.257 142.054 100.618 142.054C100.86 142.054 101.078 142.01 101.275 141.922C101.473 141.831 101.64 141.702 101.773 141.534C101.909 141.366 102.005 141.165 102.059 140.929H103.299C103.253 141.352 103.115 141.73 102.885 142.062C102.655 142.395 102.347 142.656 101.961 142.847C101.577 143.037 101.127 143.132 100.61 143.132Z" fill="#1C2525"/>
<rect x="29" y="117" width="42" height="8" rx="4" fill="#F4F5F9"/>
<path d="M144.719 136.565C144.673 136.162 144.486 135.849 144.156 135.628C143.827 135.403 143.412 135.291 142.912 135.291C142.554 135.291 142.244 135.348 141.983 135.462C141.722 135.572 141.518 135.726 141.374 135.922C141.232 136.115 141.161 136.335 141.161 136.582C141.161 136.79 141.209 136.969 141.305 137.119C141.405 137.27 141.534 137.396 141.693 137.499C141.855 137.598 142.028 137.682 142.213 137.75C142.398 137.815 142.575 137.869 142.746 137.912L143.598 138.134C143.876 138.202 144.162 138.294 144.455 138.411C144.747 138.527 145.018 138.68 145.268 138.871C145.518 139.061 145.72 139.297 145.874 139.578C146.03 139.859 146.108 140.196 146.108 140.588C146.108 141.082 145.98 141.521 145.724 141.905C145.472 142.288 145.104 142.591 144.621 142.812C144.141 143.034 143.56 143.145 142.878 143.145C142.224 143.145 141.659 143.041 141.182 142.834C140.705 142.626 140.331 142.332 140.061 141.952C139.791 141.568 139.642 141.114 139.614 140.588H140.935C140.96 140.903 141.063 141.166 141.241 141.376C141.423 141.584 141.655 141.739 141.936 141.841C142.22 141.94 142.531 141.99 142.869 141.99C143.241 141.99 143.572 141.932 143.862 141.815C144.155 141.696 144.385 141.531 144.553 141.321C144.72 141.108 144.804 140.859 144.804 140.575C144.804 140.317 144.73 140.105 144.582 139.94C144.438 139.776 144.24 139.639 143.99 139.531C143.743 139.423 143.463 139.328 143.151 139.246L142.119 138.964C141.42 138.774 140.866 138.494 140.457 138.125C140.051 137.756 139.848 137.267 139.848 136.659C139.848 136.156 139.984 135.717 140.257 135.342C140.53 134.967 140.899 134.676 141.365 134.469C141.831 134.259 142.357 134.153 142.942 134.153C143.533 134.153 144.054 134.257 144.506 134.464C144.96 134.672 145.318 134.957 145.58 135.321C145.841 135.682 145.977 136.097 145.989 136.565H144.719ZM150.635 136.455V137.477H147.059V136.455H150.635ZM148.018 134.886H149.292V141.078C149.292 141.325 149.329 141.511 149.403 141.636C149.477 141.759 149.572 141.842 149.689 141.888C149.808 141.93 149.937 141.952 150.076 141.952C150.179 141.952 150.268 141.945 150.345 141.93C150.422 141.916 150.481 141.905 150.524 141.896L150.754 142.949C150.68 142.977 150.575 143.006 150.439 143.034C150.302 143.065 150.132 143.082 149.927 143.085C149.592 143.091 149.279 143.031 148.99 142.906C148.7 142.781 148.466 142.588 148.287 142.327C148.108 142.065 148.018 141.737 148.018 141.342V134.886ZM153.949 143.145C153.534 143.145 153.159 143.068 152.824 142.915C152.489 142.759 152.223 142.533 152.027 142.237C151.834 141.942 151.737 141.58 151.737 141.151C151.737 140.781 151.808 140.477 151.95 140.239C152.092 140 152.284 139.811 152.526 139.672C152.767 139.533 153.037 139.428 153.335 139.357C153.634 139.286 153.938 139.232 154.247 139.195C154.639 139.149 154.957 139.112 155.202 139.084C155.446 139.053 155.624 139.003 155.734 138.935C155.845 138.866 155.901 138.756 155.901 138.602V138.572C155.901 138.2 155.795 137.912 155.585 137.707C155.378 137.503 155.068 137.401 154.656 137.401C154.227 137.401 153.889 137.496 153.642 137.686C153.398 137.874 153.229 138.082 153.135 138.312L151.938 138.04C152.08 137.642 152.287 137.321 152.56 137.077C152.835 136.83 153.152 136.651 153.51 136.54C153.868 136.426 154.244 136.369 154.639 136.369C154.901 136.369 155.178 136.401 155.47 136.463C155.766 136.523 156.041 136.634 156.297 136.795C156.555 136.957 156.767 137.189 156.932 137.49C157.097 137.788 157.179 138.176 157.179 138.653V143H155.935V142.105H155.884C155.801 142.27 155.678 142.432 155.513 142.591C155.348 142.75 155.136 142.882 154.878 142.987C154.619 143.092 154.31 143.145 153.949 143.145ZM154.226 142.122C154.578 142.122 154.879 142.053 155.129 141.913C155.382 141.774 155.574 141.592 155.705 141.368C155.838 141.141 155.905 140.898 155.905 140.639V139.795C155.859 139.841 155.771 139.884 155.641 139.923C155.513 139.96 155.366 139.993 155.202 140.021C155.037 140.047 154.876 140.071 154.72 140.094C154.564 140.114 154.433 140.131 154.328 140.145C154.081 140.176 153.855 140.229 153.651 140.303C153.449 140.376 153.287 140.483 153.165 140.622C153.045 140.759 152.986 140.94 152.986 141.168C152.986 141.483 153.102 141.722 153.335 141.884C153.568 142.043 153.865 142.122 154.226 142.122ZM158.978 143V134.273H160.252V137.516H160.329C160.403 137.379 160.51 137.222 160.649 137.043C160.788 136.864 160.981 136.707 161.228 136.574C161.475 136.438 161.802 136.369 162.208 136.369C162.737 136.369 163.208 136.503 163.623 136.77C164.038 137.037 164.363 137.422 164.599 137.925C164.838 138.428 164.957 139.033 164.957 139.74C164.957 140.447 164.839 141.054 164.603 141.56C164.368 142.062 164.044 142.45 163.632 142.723C163.22 142.993 162.75 143.128 162.221 143.128C161.824 143.128 161.498 143.061 161.245 142.928C160.995 142.794 160.799 142.638 160.657 142.459C160.515 142.28 160.406 142.121 160.329 141.982H160.223V143H158.978ZM160.227 139.727C160.227 140.187 160.294 140.591 160.427 140.938C160.561 141.284 160.754 141.555 161.007 141.751C161.26 141.945 161.569 142.041 161.936 142.041C162.316 142.041 162.635 141.94 162.89 141.739C163.146 141.534 163.339 141.257 163.47 140.908C163.603 140.558 163.67 140.165 163.67 139.727C163.67 139.295 163.605 138.908 163.474 138.564C163.346 138.22 163.153 137.949 162.895 137.75C162.639 137.551 162.319 137.452 161.936 137.452C161.566 137.452 161.254 137.547 160.998 137.737C160.745 137.928 160.554 138.193 160.423 138.534C160.292 138.875 160.227 139.273 160.227 139.727ZM167.662 134.273V143H166.388V134.273H167.662ZM172.197 143.132C171.552 143.132 170.997 142.994 170.531 142.719C170.068 142.44 169.71 142.05 169.457 141.547C169.207 141.041 169.082 140.449 169.082 139.77C169.082 139.099 169.207 138.509 169.457 137.997C169.71 137.486 170.062 137.087 170.514 136.8C170.968 136.513 171.5 136.369 172.108 136.369C172.477 136.369 172.835 136.43 173.181 136.553C173.528 136.675 173.839 136.866 174.115 137.128C174.39 137.389 174.608 137.729 174.767 138.146C174.926 138.561 175.005 139.065 175.005 139.659V140.111H169.802V139.156H173.757C173.757 138.821 173.689 138.524 173.552 138.266C173.416 138.004 173.224 137.798 172.977 137.648C172.733 137.497 172.446 137.422 172.116 137.422C171.758 137.422 171.446 137.51 171.179 137.686C170.914 137.859 170.71 138.087 170.565 138.368C170.423 138.646 170.352 138.949 170.352 139.276V140.021C170.352 140.459 170.429 140.831 170.582 141.138C170.738 141.445 170.956 141.679 171.234 141.841C171.512 142 171.838 142.08 172.21 142.08C172.451 142.08 172.672 142.045 172.87 141.977C173.069 141.906 173.241 141.801 173.386 141.662C173.531 141.523 173.642 141.351 173.718 141.146L174.924 141.364C174.828 141.719 174.654 142.03 174.404 142.297C174.157 142.561 173.846 142.767 173.471 142.915C173.099 143.06 172.674 143.132 172.197 143.132ZM182.352 143.132C181.718 143.132 181.173 142.989 180.716 142.702C180.261 142.412 179.912 142.013 179.667 141.504C179.423 140.996 179.301 140.413 179.301 139.757C179.301 139.092 179.426 138.506 179.676 137.997C179.926 137.486 180.278 137.087 180.733 136.8C181.187 136.513 181.723 136.369 182.339 136.369C182.836 136.369 183.279 136.462 183.669 136.646C184.058 136.828 184.372 137.084 184.61 137.413C184.852 137.743 184.995 138.128 185.041 138.568H183.801C183.733 138.261 183.576 137.997 183.332 137.776C183.091 137.554 182.767 137.443 182.36 137.443C182.005 137.443 181.694 137.537 181.427 137.724C181.163 137.909 180.957 138.173 180.809 138.517C180.662 138.858 180.588 139.261 180.588 139.727C180.588 140.205 180.66 140.616 180.805 140.963C180.95 141.31 181.154 141.578 181.419 141.768C181.686 141.959 182 142.054 182.36 142.054C182.602 142.054 182.821 142.01 183.017 141.922C183.216 141.831 183.382 141.702 183.515 141.534C183.652 141.366 183.747 141.165 183.801 140.929H185.041C184.995 141.352 184.858 141.73 184.627 142.062C184.397 142.395 184.089 142.656 183.703 142.847C183.319 143.037 182.869 143.132 182.352 143.132ZM189.161 143.132C188.547 143.132 188.011 142.991 187.554 142.71C187.097 142.429 186.741 142.036 186.489 141.53C186.236 141.024 186.109 140.433 186.109 139.757C186.109 139.078 186.236 138.484 186.489 137.976C186.741 137.467 187.097 137.072 187.554 136.791C188.011 136.51 188.547 136.369 189.161 136.369C189.774 136.369 190.31 136.51 190.767 136.791C191.224 137.072 191.58 137.467 191.832 137.976C192.085 138.484 192.212 139.078 192.212 139.757C192.212 140.433 192.085 141.024 191.832 141.53C191.58 142.036 191.224 142.429 190.767 142.71C190.31 142.991 189.774 143.132 189.161 143.132ZM189.165 142.062C189.563 142.062 189.892 141.957 190.153 141.747C190.415 141.537 190.608 141.257 190.733 140.908C190.861 140.558 190.925 140.173 190.925 139.753C190.925 139.335 190.861 138.952 190.733 138.602C190.608 138.25 190.415 137.967 190.153 137.754C189.892 137.541 189.563 137.435 189.165 137.435C188.764 137.435 188.432 137.541 188.168 137.754C187.906 137.967 187.712 138.25 187.584 138.602C187.459 138.952 187.396 139.335 187.396 139.753C187.396 140.173 187.459 140.558 187.584 140.908C187.712 141.257 187.906 141.537 188.168 141.747C188.432 141.957 188.764 142.062 189.165 142.062ZM194.908 139.114V143H193.634V136.455H194.857V137.52H194.938C195.088 137.173 195.324 136.895 195.645 136.685C195.969 136.474 196.377 136.369 196.868 136.369C197.314 136.369 197.705 136.463 198.04 136.651C198.375 136.835 198.635 137.111 198.82 137.477C199.005 137.844 199.097 138.297 199.097 138.837V143H197.823V138.99C197.823 138.516 197.699 138.145 197.452 137.878C197.205 137.608 196.865 137.473 196.434 137.473C196.138 137.473 195.875 137.537 195.645 137.665C195.418 137.793 195.238 137.98 195.104 138.227C194.973 138.472 194.908 138.767 194.908 139.114ZM202.08 139.114V143H200.806V136.455H202.029V137.52H202.11C202.26 137.173 202.496 136.895 202.817 136.685C203.141 136.474 203.549 136.369 204.04 136.369C204.486 136.369 204.877 136.463 205.212 136.651C205.547 136.835 205.807 137.111 205.992 137.477C206.176 137.844 206.269 138.297 206.269 138.837V143H204.995V138.99C204.995 138.516 204.871 138.145 204.624 137.878C204.377 137.608 204.037 137.473 203.605 137.473C203.31 137.473 203.047 137.537 202.817 137.665C202.59 137.793 202.409 137.98 202.276 138.227C202.145 138.472 202.08 138.767 202.08 139.114ZM210.799 143.132C210.154 143.132 209.598 142.994 209.132 142.719C208.669 142.44 208.311 142.05 208.059 141.547C207.809 141.041 207.684 140.449 207.684 139.77C207.684 139.099 207.809 138.509 208.059 137.997C208.311 137.486 208.664 137.087 209.115 136.8C209.57 136.513 210.101 136.369 210.709 136.369C211.078 136.369 211.436 136.43 211.783 136.553C212.13 136.675 212.441 136.866 212.716 137.128C212.992 137.389 213.209 137.729 213.368 138.146C213.527 138.561 213.607 139.065 213.607 139.659V140.111H208.404V139.156H212.358C212.358 138.821 212.29 138.524 212.154 138.266C212.017 138.004 211.826 137.798 211.578 137.648C211.334 137.497 211.047 137.422 210.718 137.422C210.36 137.422 210.047 137.51 209.78 137.686C209.516 137.859 209.311 138.087 209.167 138.368C209.025 138.646 208.953 138.949 208.953 139.276V140.021C208.953 140.459 209.03 140.831 209.184 141.138C209.34 141.445 209.557 141.679 209.836 141.841C210.114 142 210.439 142.08 210.811 142.08C211.053 142.08 211.273 142.045 211.472 141.977C211.671 141.906 211.843 141.801 211.988 141.662C212.132 141.523 212.243 141.351 212.32 141.146L213.526 141.364C213.429 141.719 213.256 142.03 213.006 142.297C212.759 142.561 212.448 142.767 212.073 142.915C211.701 143.06 211.276 143.132 210.799 143.132ZM217.778 143.132C217.144 143.132 216.599 142.989 216.141 142.702C215.687 142.412 215.337 142.013 215.093 141.504C214.849 140.996 214.727 140.413 214.727 139.757C214.727 139.092 214.852 138.506 215.102 137.997C215.352 137.486 215.704 137.087 216.158 136.8C216.613 136.513 217.148 136.369 217.765 136.369C218.262 136.369 218.705 136.462 219.094 136.646C219.484 136.828 219.798 137.084 220.036 137.413C220.278 137.743 220.421 138.128 220.467 138.568H219.227C219.158 138.261 219.002 137.997 218.758 137.776C218.516 137.554 218.192 137.443 217.786 137.443C217.431 137.443 217.12 137.537 216.853 137.724C216.589 137.909 216.383 138.173 216.235 138.517C216.087 138.858 216.013 139.261 216.013 139.727C216.013 140.205 216.086 140.616 216.231 140.963C216.376 141.31 216.58 141.578 216.844 141.768C217.112 141.959 217.425 142.054 217.786 142.054C218.028 142.054 218.246 142.01 218.442 141.922C218.641 141.831 218.808 141.702 218.941 141.534C219.077 141.366 219.173 141.165 219.227 140.929H220.467C220.421 141.352 220.283 141.73 220.053 142.062C219.823 142.395 219.515 142.656 219.129 142.847C218.745 143.037 218.295 143.132 217.778 143.132ZM224.885 136.455V137.477H221.309V136.455H224.885ZM222.268 134.886H223.542V141.078C223.542 141.325 223.579 141.511 223.653 141.636C223.727 141.759 223.822 141.842 223.939 141.888C224.058 141.93 224.187 141.952 224.326 141.952C224.429 141.952 224.518 141.945 224.595 141.93C224.672 141.916 224.731 141.905 224.774 141.896L225.004 142.949C224.93 142.977 224.825 143.006 224.689 143.034C224.552 143.065 224.382 143.082 224.177 143.085C223.842 143.091 223.529 143.031 223.24 142.906C222.95 142.781 222.716 142.588 222.537 142.327C222.358 142.065 222.268 141.737 222.268 141.342V134.886ZM226.294 143V136.455H227.568V143H226.294ZM226.938 135.445C226.716 135.445 226.526 135.371 226.366 135.223C226.21 135.072 226.132 134.893 226.132 134.686C226.132 134.476 226.21 134.297 226.366 134.149C226.526 133.999 226.716 133.923 226.938 133.923C227.159 133.923 227.348 133.999 227.504 134.149C227.663 134.297 227.743 134.476 227.743 134.686C227.743 134.893 227.663 135.072 227.504 135.223C227.348 135.371 227.159 135.445 226.938 135.445ZM232.039 143.132C231.426 143.132 230.89 142.991 230.433 142.71C229.975 142.429 229.62 142.036 229.368 141.53C229.115 141.024 228.988 140.433 228.988 139.757C228.988 139.078 229.115 138.484 229.368 137.976C229.62 137.467 229.975 137.072 230.433 136.791C230.89 136.51 231.426 136.369 232.039 136.369C232.653 136.369 233.189 136.51 233.646 136.791C234.103 137.072 234.458 137.467 234.711 137.976C234.964 138.484 235.091 139.078 235.091 139.757C235.091 140.433 234.964 141.024 234.711 141.53C234.458 142.036 234.103 142.429 233.646 142.71C233.189 142.991 232.653 143.132 232.039 143.132ZM232.044 142.062C232.441 142.062 232.771 141.957 233.032 141.747C233.294 141.537 233.487 141.257 233.612 140.908C233.74 140.558 233.804 140.173 233.804 139.753C233.804 139.335 233.74 138.952 233.612 138.602C233.487 138.25 233.294 137.967 233.032 137.754C232.771 137.541 232.441 137.435 232.044 137.435C231.643 137.435 231.311 137.541 231.047 137.754C230.785 137.967 230.591 138.25 230.463 138.602C230.338 138.952 230.275 139.335 230.275 139.753C230.275 140.173 230.338 140.558 230.463 140.908C230.591 141.257 230.785 141.537 231.047 141.747C231.311 141.957 231.643 142.062 232.044 142.062ZM237.787 139.114V143H236.513V136.455H237.736V137.52H237.817C237.967 137.173 238.203 136.895 238.524 136.685C238.848 136.474 239.256 136.369 239.747 136.369C240.193 136.369 240.584 136.463 240.919 136.651C241.254 136.835 241.514 137.111 241.699 137.477C241.884 137.844 241.976 138.297 241.976 138.837V143H240.702V138.99C240.702 138.516 240.578 138.145 240.331 137.878C240.084 137.608 239.744 137.473 239.312 137.473C239.017 137.473 238.754 137.537 238.524 137.665C238.297 137.793 238.116 137.98 237.983 138.227C237.852 138.472 237.787 138.767 237.787 139.114Z" fill="#1C2525"/>
<rect x="201" y="117" width="42" height="8" rx="4" fill="#F4F5F9"/>
<path d="M29.9588 40V31.2727H33.0696C33.7457 31.2727 34.3068 31.3892 34.7528 31.6222C35.2017 31.8551 35.5369 32.1776 35.7585 32.5895C35.9801 32.9986 36.0909 33.4716 36.0909 34.0085C36.0909 34.5426 35.9787 35.0128 35.7543 35.419C35.5327 35.8224 35.1974 36.1364 34.7486 36.3608C34.3026 36.5852 33.7415 36.6974 33.0653 36.6974H30.7088V35.5639H32.946C33.3722 35.5639 33.7188 35.5028 33.9858 35.3807C34.2557 35.2585 34.4531 35.081 34.5781 34.848C34.7031 34.6151 34.7656 34.3352 34.7656 34.0085C34.7656 33.679 34.7017 33.3935 34.5739 33.152C34.4489 32.9105 34.2514 32.7259 33.9815 32.598C33.7145 32.4673 33.3636 32.402 32.929 32.402H31.2756V40H29.9588ZM34.267 36.0625L36.4233 40H34.9233L32.8097 36.0625H34.267ZM40.3299 40.1321C39.685 40.1321 39.1296 39.9943 38.6637 39.7188C38.2006 39.4403 37.8427 39.0497 37.5898 38.5469C37.3398 38.0412 37.2148 37.4489 37.2148 36.7699C37.2148 36.0994 37.3398 35.5085 37.5898 34.9972C37.8427 34.4858 38.195 34.0866 38.6467 33.7997C39.1012 33.5128 39.6325 33.3693 40.2404 33.3693C40.6097 33.3693 40.9677 33.4304 41.3143 33.5526C41.6609 33.6747 41.9719 33.8665 42.2475 34.1278C42.5231 34.3892 42.7404 34.7287 42.8995 35.1463C43.0586 35.5611 43.1381 36.0653 43.1381 36.6591V37.1108H37.935V36.1562H41.8896C41.8896 35.821 41.8214 35.5241 41.685 35.2656C41.5487 35.0043 41.3569 34.7983 41.1097 34.6477C40.8654 34.4972 40.5785 34.4219 40.2489 34.4219C39.891 34.4219 39.5785 34.5099 39.3114 34.6861C39.0472 34.8594 38.8427 35.0866 38.6978 35.3679C38.5558 35.6463 38.4847 35.9489 38.4847 36.2756V37.0213C38.4847 37.4588 38.5614 37.831 38.7148 38.1378C38.8711 38.4446 39.0884 38.679 39.3668 38.8409C39.6452 39 39.9705 39.0795 40.3427 39.0795C40.5842 39.0795 40.8043 39.0455 41.0032 38.9773C41.2021 38.9062 41.3739 38.8011 41.5188 38.6619C41.6637 38.5227 41.7745 38.3509 41.8512 38.1463L43.0572 38.3636C42.9606 38.7187 42.7873 39.0298 42.5373 39.2969C42.2901 39.5611 41.979 39.767 41.604 39.9148C41.2319 40.0597 40.8072 40.1321 40.3299 40.1321ZM46.4567 40.1449C46.0419 40.1449 45.6669 40.0682 45.3317 39.9148C44.9964 39.7585 44.7308 39.5327 44.5348 39.2372C44.3416 38.9418 44.245 38.5795 44.245 38.1506C44.245 37.7812 44.3161 37.4773 44.4581 37.2386C44.6001 37 44.7919 36.8111 45.0334 36.6719C45.2749 36.5327 45.5447 36.4276 45.843 36.3565C46.1413 36.2855 46.4453 36.2315 46.755 36.1946C47.147 36.1491 47.4652 36.1122 47.7095 36.0838C47.9538 36.0526 48.1314 36.0028 48.2422 35.9347C48.353 35.8665 48.4084 35.7557 48.4084 35.6023V35.5724C48.4084 35.2003 48.3033 34.9119 48.093 34.7074C47.8857 34.5028 47.576 34.4006 47.1641 34.4006C46.7351 34.4006 46.397 34.4957 46.1499 34.6861C45.9055 34.8736 45.7365 35.0824 45.6428 35.3125L44.4453 35.0398C44.5874 34.642 44.7947 34.321 45.0675 34.0767C45.343 33.8295 45.6598 33.6506 46.0178 33.5398C46.3757 33.4261 46.7521 33.3693 47.147 33.3693C47.4084 33.3693 47.6854 33.4006 47.978 33.4631C48.2734 33.5227 48.549 33.6335 48.8047 33.7955C49.0632 33.9574 49.2749 34.1889 49.4396 34.4901C49.6044 34.7884 49.6868 35.1761 49.6868 35.6534V40H48.4425V39.1051H48.3913C48.3089 39.2699 48.1854 39.4318 48.0206 39.5909C47.8558 39.75 47.6442 39.8821 47.3857 39.9872C47.1271 40.0923 46.8175 40.1449 46.4567 40.1449ZM46.7337 39.1222C47.0859 39.1222 47.3871 39.0526 47.6371 38.9134C47.8899 38.7741 48.0817 38.5923 48.2124 38.3679C48.3459 38.1406 48.4126 37.8977 48.4126 37.6392V36.7955C48.3672 36.8409 48.2791 36.8835 48.1484 36.9233C48.0206 36.9602 47.8743 36.9929 47.7095 37.0213C47.5447 37.0469 47.3842 37.071 47.228 37.0938C47.0717 37.1136 46.9411 37.1307 46.8359 37.1449C46.5888 37.1761 46.3629 37.2287 46.1584 37.3026C45.9567 37.3764 45.7947 37.483 45.6726 37.6222C45.5533 37.7585 45.4936 37.9403 45.4936 38.1676C45.4936 38.483 45.6101 38.7216 45.843 38.8835C46.076 39.0426 46.3729 39.1222 46.7337 39.1222ZM52.658 31.2727V40H51.3839V31.2727H52.658ZM60.6033 33.4545V34.4773H57.0281V33.4545H60.6033ZM57.9869 31.8864H59.261V38.0781C59.261 38.3253 59.2979 38.5114 59.3718 38.6364C59.4457 38.7585 59.5408 38.8423 59.6573 38.8878C59.7766 38.9304 59.9059 38.9517 60.0451 38.9517C60.1474 38.9517 60.2369 38.9446 60.3136 38.9304C60.3903 38.9162 60.4499 38.9048 60.4925 38.8963L60.7227 39.9489C60.6488 39.9773 60.5437 40.0057 60.4073 40.0341C60.271 40.0653 60.1005 40.0824 59.896 40.0852C59.5607 40.0909 59.2482 40.0312 58.9585 39.9062C58.6687 39.7812 58.4343 39.5881 58.2553 39.3267C58.0763 39.0653 57.9869 38.7372 57.9869 38.3423V31.8864ZM62.0128 40V33.4545H63.2869V40H62.0128ZM62.6562 32.4446C62.4347 32.4446 62.2443 32.3707 62.0852 32.223C61.929 32.0724 61.8509 31.8935 61.8509 31.6861C61.8509 31.4759 61.929 31.2969 62.0852 31.1491C62.2443 30.9986 62.4347 30.9233 62.6562 30.9233C62.8778 30.9233 63.0668 30.9986 63.223 31.1491C63.3821 31.2969 63.4616 31.4759 63.4616 31.6861C63.4616 31.8935 63.3821 32.0724 63.223 32.223C63.0668 32.3707 62.8778 32.4446 62.6562 32.4446ZM65.0011 40V33.4545H66.2241V34.5199H66.305C66.4414 34.1591 66.6644 33.8778 66.9741 33.6761C67.2837 33.4716 67.6545 33.3693 68.0863 33.3693C68.5238 33.3693 68.8903 33.4716 69.1857 33.6761C69.484 33.8807 69.7042 34.1619 69.8462 34.5199H69.9144C70.0707 34.1705 70.3192 33.892 70.6602 33.6847C71.0011 33.4744 71.4073 33.3693 71.8789 33.3693C72.4727 33.3693 72.957 33.5554 73.332 33.9276C73.7099 34.2997 73.8988 34.8608 73.8988 35.6108V40H72.6246V35.7301C72.6246 35.2869 72.5039 34.9659 72.2624 34.767C72.021 34.5682 71.7326 34.4688 71.3974 34.4688C70.9826 34.4688 70.6602 34.5966 70.43 34.8523C70.1999 35.1051 70.0849 35.4304 70.0849 35.8281V40H68.815V35.6491C68.815 35.294 68.7042 35.0085 68.4826 34.7926C68.261 34.5767 67.9727 34.4688 67.6175 34.4688C67.3761 34.4688 67.1531 34.5327 66.9485 34.6605C66.7468 34.7855 66.5835 34.9602 66.4585 35.1847C66.3363 35.4091 66.2752 35.669 66.2752 35.9645V40H65.0011ZM78.4276 40.1321C77.7827 40.1321 77.2273 39.9943 76.7614 39.7188C76.2983 39.4403 75.9403 39.0497 75.6875 38.5469C75.4375 38.0412 75.3125 37.4489 75.3125 36.7699C75.3125 36.0994 75.4375 35.5085 75.6875 34.9972C75.9403 34.4858 76.2926 34.0866 76.7443 33.7997C77.1989 33.5128 77.7301 33.3693 78.3381 33.3693C78.7074 33.3693 79.0653 33.4304 79.4119 33.5526C79.7585 33.6747 80.0696 33.8665 80.3452 34.1278C80.6207 34.3892 80.8381 34.7287 80.9972 35.1463C81.1563 35.5611 81.2358 36.0653 81.2358 36.6591V37.1108H76.0327V36.1562H79.9872C79.9872 35.821 79.919 35.5241 79.7827 35.2656C79.6463 35.0043 79.4545 34.7983 79.2074 34.6477C78.9631 34.4972 78.6761 34.4219 78.3466 34.4219C77.9886 34.4219 77.6761 34.5099 77.4091 34.6861C77.1449 34.8594 76.9403 35.0866 76.7955 35.3679C76.6534 35.6463 76.5824 35.9489 76.5824 36.2756V37.0213C76.5824 37.4588 76.6591 37.831 76.8125 38.1378C76.9688 38.4446 77.1861 38.679 77.4645 38.8409C77.7429 39 78.0682 39.0795 78.4403 39.0795C78.6818 39.0795 78.902 39.0455 79.1009 38.9773C79.2997 38.9062 79.4716 38.8011 79.6165 38.6619C79.7614 38.5227 79.8722 38.3509 79.9489 38.1463L81.1548 38.3636C81.0582 38.7187 80.8849 39.0298 80.6349 39.2969C80.3878 39.5611 80.0767 39.767 79.7017 39.9148C79.3295 40.0597 78.9048 40.1321 78.4276 40.1321ZM85.8253 40V33.4545H87.0483V34.5199H87.1293C87.2656 34.1591 87.4886 33.8778 87.7983 33.6761C88.108 33.4716 88.4787 33.3693 88.9105 33.3693C89.348 33.3693 89.7145 33.4716 90.0099 33.6761C90.3082 33.8807 90.5284 34.1619 90.6705 34.5199H90.7386C90.8949 34.1705 91.1435 33.892 91.4844 33.6847C91.8253 33.4744 92.2315 33.3693 92.7031 33.3693C93.2969 33.3693 93.7812 33.5554 94.1562 33.9276C94.5341 34.2997 94.723 34.8608 94.723 35.6108V40H93.4489V35.7301C93.4489 35.2869 93.3281 34.9659 93.0866 34.767C92.8452 34.5682 92.5568 34.4688 92.2216 34.4688C91.8068 34.4688 91.4844 34.5966 91.2543 34.8523C91.0241 35.1051 90.9091 35.4304 90.9091 35.8281V40H89.6392V35.6491C89.6392 35.294 89.5284 35.0085 89.3068 34.7926C89.0852 34.5767 88.7969 34.4688 88.4418 34.4688C88.2003 34.4688 87.9773 34.5327 87.7727 34.6605C87.571 34.7855 87.4077 34.9602 87.2827 35.1847C87.1605 35.4091 87.0994 35.669 87.0994 35.9645V40H85.8253ZM99.1879 40.1321C98.5742 40.1321 98.0387 39.9915 97.5813 39.7102C97.1239 39.429 96.7688 39.0355 96.516 38.5298C96.2631 38.0241 96.1367 37.4332 96.1367 36.7571C96.1367 36.0781 96.2631 35.4844 96.516 34.9759C96.7688 34.4673 97.1239 34.0724 97.5813 33.7912C98.0387 33.5099 98.5742 33.3693 99.1879 33.3693C99.8015 33.3693 100.337 33.5099 100.794 33.7912C101.252 34.0724 101.607 34.4673 101.86 34.9759C102.113 35.4844 102.239 36.0781 102.239 36.7571C102.239 37.4332 102.113 38.0241 101.86 38.5298C101.607 39.0355 101.252 39.429 100.794 39.7102C100.337 39.9915 99.8015 40.1321 99.1879 40.1321ZM99.1921 39.0625C99.5898 39.0625 99.9194 38.9574 100.181 38.7472C100.442 38.5369 100.635 38.2571 100.76 37.9077C100.888 37.5582 100.952 37.1733 100.952 36.7528C100.952 36.3352 100.888 35.9517 100.76 35.6023C100.635 35.25 100.442 34.9673 100.181 34.7543C99.9194 34.5412 99.5898 34.4347 99.1921 34.4347C98.7915 34.4347 98.4592 34.5412 98.195 34.7543C97.9336 34.9673 97.739 35.25 97.6112 35.6023C97.4862 35.9517 97.4237 36.3352 97.4237 36.7528C97.4237 37.1733 97.4862 37.5582 97.6112 37.9077C97.739 38.2571 97.9336 38.5369 98.195 38.7472C98.4592 38.9574 98.7915 39.0625 99.1921 39.0625ZM104.935 36.1136V40H103.661V33.4545H104.884V34.5199H104.965C105.116 34.1733 105.352 33.8949 105.673 33.6847C105.996 33.4744 106.404 33.3693 106.896 33.3693C107.342 33.3693 107.732 33.4631 108.067 33.6506C108.403 33.8352 108.663 34.1108 108.847 34.4773C109.032 34.8437 109.124 35.2969 109.124 35.8366V40H107.85V35.9901C107.85 35.5156 107.727 35.1449 107.479 34.8778C107.232 34.608 106.893 34.473 106.461 34.473C106.165 34.473 105.903 34.5369 105.673 34.6648C105.445 34.7926 105.265 34.9801 105.131 35.2273C105.001 35.4716 104.935 35.767 104.935 36.1136ZM110.833 40V33.4545H112.107V40H110.833ZM111.477 32.4446C111.255 32.4446 111.065 32.3707 110.906 32.223C110.749 32.0724 110.671 31.8935 110.671 31.6861C110.671 31.4759 110.749 31.2969 110.906 31.1491C111.065 30.9986 111.255 30.9233 111.477 30.9233C111.698 30.9233 111.887 30.9986 112.043 31.1491C112.202 31.2969 112.282 31.4759 112.282 31.6861C112.282 31.8935 112.202 32.0724 112.043 32.223C111.887 32.3707 111.698 32.4446 111.477 32.4446ZM116.877 33.4545V34.4773H113.301V33.4545H116.877ZM114.26 31.8864H115.534V38.0781C115.534 38.3253 115.571 38.5114 115.645 38.6364C115.719 38.7585 115.814 38.8423 115.931 38.8878C116.05 38.9304 116.179 38.9517 116.319 38.9517C116.421 38.9517 116.51 38.9446 116.587 38.9304C116.664 38.9162 116.723 38.9048 116.766 38.8963L116.996 39.9489C116.922 39.9773 116.817 40.0057 116.681 40.0341C116.544 40.0653 116.374 40.0824 116.169 40.0852C115.834 40.0909 115.522 40.0312 115.232 39.9062C114.942 39.7812 114.708 39.5881 114.529 39.3267C114.35 39.0653 114.26 38.7372 114.26 38.3423V31.8864ZM120.973 40.1321C120.359 40.1321 119.824 39.9915 119.366 39.7102C118.909 39.429 118.554 39.0355 118.301 38.5298C118.048 38.0241 117.922 37.4332 117.922 36.7571C117.922 36.0781 118.048 35.4844 118.301 34.9759C118.554 34.4673 118.909 34.0724 119.366 33.7912C119.824 33.5099 120.359 33.3693 120.973 33.3693C121.587 33.3693 122.122 33.5099 122.58 33.7912C123.037 34.0724 123.392 34.4673 123.645 34.9759C123.898 35.4844 124.024 36.0781 124.024 36.7571C124.024 37.4332 123.898 38.0241 123.645 38.5298C123.392 39.0355 123.037 39.429 122.58 39.7102C122.122 39.9915 121.587 40.1321 120.973 40.1321ZM120.977 39.0625C121.375 39.0625 121.705 38.9574 121.966 38.7472C122.227 38.5369 122.42 38.2571 122.545 37.9077C122.673 37.5582 122.737 37.1733 122.737 36.7528C122.737 36.3352 122.673 35.9517 122.545 35.6023C122.42 35.25 122.227 34.9673 121.966 34.7543C121.705 34.5412 121.375 34.4347 120.977 34.4347C120.577 34.4347 120.244 34.5412 119.98 34.7543C119.719 34.9673 119.524 35.25 119.396 35.6023C119.271 35.9517 119.209 36.3352 119.209 36.7528C119.209 37.1733 119.271 37.5582 119.396 37.9077C119.524 38.2571 119.719 38.5369 119.98 38.7472C120.244 38.9574 120.577 39.0625 120.977 39.0625ZM125.446 40V33.4545H126.678V34.4943H126.746C126.865 34.142 127.076 33.8651 127.377 33.6634C127.681 33.4588 128.025 33.3565 128.408 33.3565C128.488 33.3565 128.581 33.3594 128.689 33.3651C128.8 33.3707 128.887 33.3778 128.949 33.3864V34.6051C128.898 34.5909 128.807 34.5753 128.676 34.5582C128.546 34.5384 128.415 34.5284 128.284 34.5284C127.983 34.5284 127.715 34.5923 127.479 34.7202C127.246 34.8452 127.061 35.0199 126.925 35.2443C126.789 35.4659 126.721 35.7187 126.721 36.0028V40H125.446ZM130.052 40V33.4545H131.326V40H130.052ZM130.695 32.4446C130.474 32.4446 130.283 32.3707 130.124 32.223C129.968 32.0724 129.89 31.8935 129.89 31.6861C129.89 31.4759 129.968 31.2969 130.124 31.1491C130.283 30.9986 130.474 30.9233 130.695 30.9233C130.917 30.9233 131.106 30.9986 131.262 31.1491C131.421 31.2969 131.501 31.4759 131.501 31.6861C131.501 31.8935 131.421 32.0724 131.262 32.223C131.106 32.3707 130.917 32.4446 130.695 32.4446ZM134.314 36.1136V40H133.04V33.4545H134.263V34.5199H134.344C134.495 34.1733 134.73 33.8949 135.051 33.6847C135.375 33.4744 135.783 33.3693 136.275 33.3693C136.721 33.3693 137.111 33.4631 137.446 33.6506C137.782 33.8352 138.042 34.1108 138.226 34.4773C138.411 34.8437 138.503 35.2969 138.503 35.8366V40H137.229V35.9901C137.229 35.5156 137.105 35.1449 136.858 34.8778C136.611 34.608 136.272 34.473 135.84 34.473C135.544 34.473 135.282 34.5369 135.051 34.6648C134.824 34.7926 134.644 34.9801 134.51 35.2273C134.38 35.4716 134.314 35.767 134.314 36.1136ZM142.956 42.5909C142.436 42.5909 141.989 42.5227 141.614 42.3864C141.242 42.25 140.938 42.0696 140.702 41.8452C140.466 41.6207 140.29 41.375 140.174 41.108L141.269 40.6562C141.346 40.7812 141.448 40.9134 141.576 41.0526C141.706 41.1946 141.882 41.3153 142.104 41.4148C142.328 41.5142 142.617 41.5639 142.969 41.5639C143.452 41.5639 143.851 41.446 144.167 41.2102C144.482 40.9773 144.64 40.6051 144.64 40.0938V38.8068H144.559C144.482 38.946 144.371 39.1009 144.226 39.2713C144.084 39.4418 143.888 39.5895 143.638 39.7145C143.388 39.8395 143.063 39.902 142.662 39.902C142.145 39.902 141.679 39.7812 141.265 39.5398C140.853 39.2955 140.526 38.9361 140.284 38.4616C140.046 37.9844 139.926 37.3977 139.926 36.7017C139.926 36.0057 140.044 35.4091 140.28 34.9119C140.519 34.4148 140.846 34.0341 141.26 33.7699C141.675 33.5028 142.145 33.3693 142.671 33.3693C143.077 33.3693 143.405 33.4375 143.655 33.5739C143.905 33.7074 144.1 33.8636 144.239 34.0426C144.381 34.2216 144.49 34.3793 144.567 34.5156H144.661V33.4545H145.909V40.1449C145.909 40.7074 145.779 41.169 145.517 41.5298C145.256 41.8906 144.902 42.1577 144.456 42.331C144.013 42.5043 143.513 42.5909 142.956 42.5909ZM142.944 38.8452C143.31 38.8452 143.62 38.7599 143.873 38.5895C144.128 38.4162 144.321 38.169 144.452 37.848C144.586 37.5241 144.652 37.1364 144.652 36.6847C144.652 36.2443 144.587 35.8565 144.456 35.5213C144.326 35.1861 144.134 34.9247 143.881 34.7372C143.628 34.5469 143.316 34.4517 142.944 34.4517C142.56 34.4517 142.24 34.5511 141.985 34.75C141.729 34.946 141.536 35.2131 141.405 35.5511C141.277 35.8892 141.213 36.267 141.213 36.6847C141.213 37.1136 141.279 37.4901 141.409 37.8139C141.54 38.1378 141.733 38.3906 141.989 38.5724C142.248 38.7543 142.566 38.8452 142.944 38.8452Z" fill="#1C2525"/>
<rect x="17" y="54" width="238" height="1" fill="#F4F5F9"/>
<rect x="71" y="76" width="40" height="8" rx="4" fill="#F4F5F9"/>
<rect x="71" y="88" width="119" height="8" rx="4" fill="#F4F5F9"/>
<circle cx="44" cy="86" r="15" fill="#E6F7F7"/>
<defs>
<filter id="filter0_d_213_3995" x="0" y="7" width="272" height="181" filterUnits="userSpaceOnUse" color-interpolation-filters="sRGB">
<feFlood flood-opacity="0" result="BackgroundImageFix"/>
<feColorMatrix in="SourceAlpha" type="matrix" values="0 0 0 0 0 0 0 0 0 0 0 0 0 0 0 0 0 0 127 0" result="hardAlpha"/>
<feOffset dy="10"/>
<feGaussianBlur stdDeviation="8.5"/>
<feComposite in2="hardAlpha" operator="out"/>
<feColorMatrix type="matrix" values="0 0 0 0 0 0 0 0 0 0 0 0 0 0 0 0 0 0 0.02 0"/>
<feBlend mode="normal" in2="BackgroundImageFix" result="effect1_dropShadow_213_3995"/>
<feBlend mode="normal" in="SourceGraphic" in2="effect1_dropShadow_213_3995" result="shape"/>
</filter>
<linearGradient id="paint0_linear_213_3995" x1="255.279" y1="223" x2="257" y2="290" gradientUnits="userSpaceOnUse">
<stop stop-color="#00BCC5"/>
<stop offset="1" stop-color="#E6F5FC" stop-opacity="0"/>
</linearGradient>
</defs>
</svg>
