<svg width="354" height="318" viewBox="0 0 354 318" fill="none" xmlns="http://www.w3.org/2000/svg">
<rect x="36" width="318" height="318" rx="12" fill="#F4F5F9"/>
<mask id="mask0_213_4066" style="mask-type:alpha" maskUnits="userSpaceOnUse" x="36" y="0" width="318" height="318">
<rect x="36" width="318" height="318" rx="12" fill="#F6F7FA"/>
</mask>
<g mask="url(#mask0_213_4066)">
<mask id="mask1_213_4066" style="mask-type:alpha" maskUnits="userSpaceOnUse" x="36" y="0" width="318" height="318">
<rect x="36" width="318" height="318" rx="8" fill="#F6F7FA"/>
</mask>
<g mask="url(#mask1_213_4066)">
</g>
<g clip-path="url(#clip0_213_4066)">
<g filter="url(#filter0_d_213_4066)">
<path d="M394.345 133.361H72.656C68.075 133.361 64.3613 137.084 64.3613 141.676V278.324C64.3613 282.916 68.075 286.638 72.656 286.638H394.345C398.926 286.638 402.64 282.916 402.64 278.324V141.676C402.64 137.084 398.926 133.361 394.345 133.361Z" fill="#FEFEFE"/>
</g>
<path d="M76.3789 153.967V147.347H77.7017L78.8731 150.586C78.9472 150.796 79.0178 151.012 79.0851 151.234C79.1592 151.45 79.2299 151.666 79.2972 151.882H79.3376C79.4117 151.666 79.4823 151.45 79.5496 151.234C79.6169 151.012 79.6843 150.796 79.7516 150.586L80.8927 147.347H82.2256V153.967H81.1451V150.941C81.1451 150.732 81.1518 150.505 81.1653 150.263C81.1855 150.013 81.2057 149.763 81.2259 149.513C81.2528 149.264 81.2764 149.038 81.2966 148.835H81.2562L80.721 150.374L79.6405 153.35H78.9438L77.8532 150.374L77.3281 148.835H77.2877C77.3079 149.038 77.3281 149.264 77.3483 149.513C77.3752 149.763 77.3954 150.013 77.4089 150.263C77.4291 150.505 77.4392 150.732 77.4392 150.941V153.967H76.3789ZM84.1352 156.012C84.0006 156.012 83.8828 156.002 83.7818 155.981C83.6808 155.961 83.5832 155.938 83.489 155.911L83.701 155C83.7482 155.013 83.802 155.027 83.8626 155.04C83.9299 155.06 83.9939 155.071 84.0544 155.071C84.317 155.071 84.5257 154.99 84.6805 154.828C84.8421 154.672 84.9633 154.47 85.044 154.22L85.1349 153.906L83.186 148.997H84.3675L85.2258 151.437C85.2999 151.653 85.3706 151.882 85.4379 152.125C85.5119 152.361 85.586 152.597 85.66 152.834H85.7004C85.761 152.604 85.8216 152.371 85.8822 152.135C85.9495 151.892 86.0134 151.659 86.074 151.437L86.8213 148.997H87.9421L86.1447 154.19C85.936 154.75 85.6836 155.192 85.3874 155.516C85.0912 155.847 84.6738 156.012 84.1352 156.012ZM92.56 154.089C91.9407 154.089 91.4459 153.859 91.0756 153.4C90.7054 152.941 90.5203 152.304 90.5203 151.487C90.5203 150.947 90.6178 150.482 90.8131 150.09C91.015 149.699 91.2776 149.399 91.6007 149.19C91.9239 148.98 92.2638 148.876 92.6206 148.876C92.9034 148.876 93.1423 148.926 93.3376 149.028C93.5395 149.122 93.7348 149.254 93.9232 149.422L93.8828 148.623V146.821H95.0441V153.967H94.0848L94.004 153.431H93.9636C93.7819 153.613 93.5698 153.768 93.3275 153.896C93.0851 154.025 92.8293 154.089 92.56 154.089ZM92.8428 153.127C93.213 153.127 93.5597 152.941 93.8828 152.57V150.252C93.7146 150.097 93.5462 149.989 93.378 149.928C93.2097 149.868 93.0413 149.837 92.8731 149.837C92.5566 149.837 92.284 149.983 92.0551 150.273C91.833 150.556 91.7219 150.958 91.7219 151.477C91.7219 152.01 91.8195 152.419 92.0147 152.702C92.21 152.985 92.4859 153.127 92.8428 153.127ZM98.6436 154.089C98.1858 154.089 97.7718 153.987 97.4015 153.785C97.0312 153.576 96.7384 153.279 96.523 152.894C96.3076 152.503 96.1999 152.034 96.1999 151.487C96.1999 150.947 96.3076 150.482 96.523 150.09C96.7452 149.699 97.0312 149.399 97.3813 149.19C97.7314 148.98 98.0983 148.876 98.482 148.876C98.933 148.876 99.31 148.977 99.613 149.179C99.9159 149.375 100.145 149.652 100.3 150.009C100.454 150.36 100.532 150.769 100.532 151.234C100.532 151.477 100.515 151.666 100.481 151.801H97.3308C97.3846 152.24 97.5429 152.58 97.8054 152.823C98.068 153.066 98.3978 153.188 98.795 153.188C99.0104 153.188 99.209 153.157 99.3908 153.097C99.5793 153.029 99.7644 152.938 99.9462 152.823L100.34 153.552C100.104 153.707 99.8418 153.836 99.5524 153.937C99.2628 154.038 98.9599 154.089 98.6436 154.089ZM97.3207 151.012H99.5221C99.5221 150.627 99.4379 150.327 99.2696 150.111C99.1013 149.888 98.8488 149.777 98.5123 149.777C98.2228 149.777 97.9636 149.885 97.7348 150.101C97.5126 150.31 97.3745 150.613 97.3207 151.012ZM102.752 153.967L101.025 148.997H102.206L102.994 151.578C103.061 151.821 103.129 152.068 103.196 152.317C103.27 152.567 103.341 152.82 103.408 153.076H103.448C103.522 152.82 103.593 152.567 103.661 152.317C103.735 152.068 103.805 151.821 103.873 151.578L104.66 148.997H105.781L104.095 153.967H102.752ZM106.641 153.967V148.997H107.802V153.967H106.641ZM107.226 148.127C107.018 148.127 106.849 148.066 106.721 147.945C106.593 147.823 106.529 147.661 106.529 147.459C106.529 147.263 106.593 147.104 106.721 146.983C106.849 146.862 107.018 146.801 107.226 146.801C107.435 146.801 107.603 146.862 107.731 146.983C107.859 147.104 107.923 147.263 107.923 147.459C107.923 147.661 107.859 147.823 107.731 147.945C107.603 148.066 107.435 148.127 107.226 148.127ZM111.353 154.089C110.902 154.089 110.495 153.987 110.132 153.785C109.775 153.576 109.489 153.279 109.273 152.894C109.065 152.503 108.96 152.034 108.96 151.487C108.96 150.934 109.075 150.465 109.304 150.08C109.532 149.689 109.835 149.392 110.212 149.19C110.596 148.98 111.007 148.876 111.444 148.876C111.761 148.876 112.037 148.93 112.272 149.038C112.508 149.146 112.717 149.277 112.898 149.433L112.333 150.192C112.205 150.077 112.074 149.989 111.939 149.928C111.804 149.861 111.66 149.827 111.505 149.827C111.108 149.827 110.781 149.979 110.525 150.283C110.276 150.586 110.152 150.988 110.152 151.487C110.152 151.98 110.273 152.378 110.515 152.682C110.764 152.985 111.084 153.137 111.475 153.137C111.67 153.137 111.852 153.097 112.02 153.016C112.195 152.928 112.353 152.827 112.495 152.712L112.969 153.481C112.74 153.684 112.484 153.836 112.202 153.937C111.919 154.038 111.636 154.089 111.353 154.089ZM115.822 154.089C115.364 154.089 114.95 153.987 114.58 153.785C114.209 153.576 113.917 153.279 113.701 152.894C113.486 152.503 113.378 152.034 113.378 151.487C113.378 150.947 113.486 150.482 113.701 150.09C113.923 149.699 114.209 149.399 114.56 149.19C114.91 148.98 115.276 148.876 115.66 148.876C116.111 148.876 116.488 148.977 116.791 149.179C117.094 149.375 117.323 149.652 117.478 150.009C117.633 150.36 117.71 150.769 117.71 151.234C117.71 151.477 117.693 151.666 117.66 151.801H114.509C114.563 152.24 114.721 152.58 114.984 152.823C115.246 153.066 115.576 153.188 115.973 153.188C116.189 153.188 116.387 153.157 116.569 153.097C116.757 153.029 116.943 152.938 117.124 152.823L117.518 153.552C117.283 153.707 117.02 153.836 116.731 153.937C116.441 154.038 116.138 154.089 115.822 154.089ZM114.499 151.012H116.7C116.7 150.627 116.616 150.327 116.448 150.111C116.279 149.888 116.027 149.777 115.69 149.777C115.401 149.777 115.142 149.885 114.913 150.101C114.691 150.31 114.553 150.613 114.499 151.012Z" fill="#1C2525"/>
<path d="M403 164.812H64V165.536H403V164.812Z" fill="#F4F4F4"/>
<path d="M403 206.746H64V207.469H403V206.746Z" fill="#F4F4F4"/>
<path d="M289.033 181.121C288.171 181.37 287.715 181.018 287.596 180.811V194.456H391.46V179.882C390.74 180.605 389.087 182.114 388.225 182.362C387.147 182.672 385.709 180.192 384.631 179.572C383.553 178.951 382.115 186.393 379.959 186.393C377.803 186.393 379.24 172.129 376.005 178.951C372.771 185.773 369.896 183.603 368.459 183.292C367.021 182.982 366.302 185.773 363.786 185.773C361.27 185.773 360.911 179.571 359.474 178.021C358.036 176.471 356.958 183.913 355.161 184.533C353.364 185.153 353.724 182.362 351.567 181.432C349.411 180.502 349.051 185.463 347.614 187.013C346.176 188.564 345.457 182.982 343.301 181.121C341.145 179.261 340.066 186.703 338.989 187.634C337.911 188.564 335.395 182.052 334.316 181.432C333.238 180.812 331.082 183.913 330.363 184.533C329.645 185.153 328.206 183.602 327.488 183.292C326.769 182.982 323.894 188.564 322.097 189.184C320.301 189.804 319.222 185.463 318.503 185.153C317.785 184.843 315.987 186.393 314.55 187.013C313.112 187.634 308.8 181.121 307.721 180.192C306.643 179.262 305.206 183.913 303.409 185.463C301.612 187.013 301.612 182.672 299.456 181.121C297.299 179.571 297.299 184.223 295.143 184.843C292.987 185.463 292.268 180.191 291.908 179.571C291.549 178.951 290.112 180.811 289.033 181.121Z" fill="#E6F7F7"/>
<path d="M288.316 180.833C288.435 181.041 288.883 181.394 289.734 181.145C290.797 180.833 292.215 178.961 292.569 179.585C292.924 180.209 293.632 185.511 295.759 184.887C297.885 184.263 297.885 179.585 300.012 181.145C302.138 182.704 302.138 187.07 303.91 185.511C305.682 183.952 307.1 179.274 308.163 180.209C309.226 181.145 313.479 187.694 314.896 187.07C316.314 186.447 318.086 184.887 318.795 185.199C319.504 185.511 320.567 189.877 322.339 189.253C324.11 188.63 326.946 183.016 327.655 183.328C328.363 183.64 329.781 185.199 330.49 184.575C331.198 183.952 333.325 180.833 334.388 181.457C335.451 182.08 337.932 188.63 338.995 187.694C340.059 186.758 341.122 179.273 343.248 181.145C345.374 183.016 346.083 188.63 347.501 187.07C348.919 185.511 349.273 180.521 351.399 181.457C353.526 182.392 353.171 185.199 354.944 184.575C356.715 183.952 357.778 176.467 359.196 178.026C360.614 179.585 360.968 185.823 363.449 185.823C365.93 185.823 366.638 183.016 368.056 183.328C369.474 183.64 372.309 185.823 375.499 178.962C378.688 172.101 377.271 186.447 379.397 186.447C381.523 186.447 382.941 178.962 384.004 179.586C385.067 180.209 386.485 182.704 387.548 182.392C388.399 182.143 390.029 180.625 390.738 179.897" stroke="#00ABB3" stroke-width="2" stroke-linecap="round"/>
<path d="M87.1725 188.776C86.6993 188.776 86.2694 188.663 85.8828 188.438C85.4962 188.212 85.1875 187.883 84.9567 187.449C84.7317 187.009 84.6191 186.477 84.6191 185.852C84.6191 185.234 84.7345 184.704 84.9654 184.265C85.2019 183.819 85.5164 183.481 85.9088 183.25C86.3012 183.012 86.7339 182.894 87.2071 182.894C87.5648 182.894 87.8822 182.966 88.1592 183.111C88.4361 183.255 88.6641 183.423 88.8429 183.614L88.3063 184.265C88.1621 184.114 88.0005 183.996 87.8216 183.909C87.6485 183.816 87.4523 183.77 87.233 183.77C86.9272 183.77 86.6531 183.854 86.4108 184.022C86.1742 184.184 85.9867 184.418 85.8482 184.725C85.7155 185.031 85.6491 185.398 85.6491 185.826C85.6491 186.474 85.7905 186.983 86.0732 187.353C86.356 187.718 86.7339 187.9 87.2071 187.9C87.461 187.9 87.686 187.848 87.8822 187.744C88.0784 187.634 88.2573 187.492 88.4188 187.319L88.9555 187.952C88.7246 188.218 88.4592 188.423 88.1592 188.568C87.8649 188.707 87.536 188.776 87.1725 188.776ZM89.9004 188.672V182.998H91.6834C92.1046 182.998 92.4797 183.053 92.8086 183.163C93.1375 183.273 93.3971 183.455 93.5876 183.709C93.778 183.964 93.8732 184.311 93.8732 184.751C93.8732 185.167 93.778 185.511 93.5876 185.783C93.3971 186.055 93.1404 186.257 92.8172 186.39C92.4941 186.523 92.1277 186.59 91.718 186.59H90.9044V188.672H89.9004ZM90.9044 185.783H91.6401C92.471 185.783 92.8865 185.439 92.8865 184.751C92.8865 184.392 92.7769 184.146 92.5576 184.013C92.3441 183.874 92.0267 183.805 91.6055 183.805H90.9044V185.783ZM97.0586 188.776C96.6258 188.776 96.2479 188.69 95.9247 188.516C95.6016 188.342 95.3506 188.065 95.1717 187.683C94.9986 187.301 94.912 186.801 94.912 186.182V182.998H95.9161V186.26C95.9161 186.671 95.9622 186.998 96.0545 187.241C96.1526 187.478 96.2882 187.648 96.4613 187.753C96.6345 187.851 96.8335 187.9 97.0586 187.9C97.2894 187.9 97.4913 187.851 97.6644 187.753C97.8433 187.648 97.9818 187.478 98.0799 187.241C98.1838 186.998 98.2357 186.671 98.2357 186.26V182.998H99.1964V186.182C99.1964 186.801 99.1099 187.301 98.9368 187.683C98.7637 188.065 98.5155 188.342 98.1924 188.516C97.875 188.69 97.4971 188.776 97.0586 188.776ZM103.225 188.776C102.873 188.776 102.622 188.669 102.472 188.455C102.328 188.241 102.256 187.949 102.256 187.579V182.547H103.251V187.631C103.251 187.753 103.274 187.839 103.32 187.891C103.367 187.938 103.416 187.961 103.468 187.961C103.491 187.961 103.511 187.961 103.528 187.961C103.551 187.955 103.583 187.949 103.623 187.943L103.753 188.69C103.696 188.713 103.621 188.733 103.528 188.75C103.442 188.768 103.341 188.776 103.225 188.776ZM106.345 188.776C105.993 188.776 105.664 188.69 105.359 188.516C105.053 188.337 104.805 188.082 104.614 187.753C104.424 187.417 104.329 187.015 104.329 186.547C104.329 186.072 104.424 185.67 104.614 185.341C104.805 185.005 105.053 184.751 105.359 184.577C105.664 184.398 105.993 184.308 106.345 184.308C106.703 184.308 107.035 184.398 107.341 184.577C107.647 184.751 107.895 185.005 108.085 185.341C108.275 185.67 108.371 186.072 108.371 186.547C108.371 187.015 108.275 187.417 108.085 187.753C107.895 188.082 107.647 188.337 107.341 188.516C107.035 188.69 106.703 188.776 106.345 188.776ZM106.345 187.961C106.657 187.961 106.902 187.831 107.081 187.57C107.26 187.31 107.349 186.969 107.349 186.547C107.349 186.119 107.26 185.774 107.081 185.514C106.902 185.254 106.657 185.124 106.345 185.124C106.034 185.124 105.789 185.254 105.61 185.514C105.437 185.774 105.35 186.119 105.35 186.547C105.35 186.969 105.437 187.31 105.61 187.57C105.789 187.831 106.034 187.961 106.345 187.961ZM110.284 188.776C109.915 188.776 109.612 188.661 109.376 188.429C109.145 188.198 109.029 187.897 109.029 187.527C109.029 187.07 109.229 186.717 109.627 186.468C110.025 186.214 110.66 186.04 111.531 185.948C111.525 185.722 111.464 185.529 111.349 185.367C111.239 185.199 111.04 185.115 110.752 185.115C110.544 185.115 110.339 185.155 110.137 185.236C109.941 185.317 109.748 185.416 109.557 185.531L109.194 184.863C109.43 184.713 109.696 184.583 109.99 184.473C110.29 184.363 110.608 184.308 110.942 184.308C111.473 184.308 111.868 184.467 112.128 184.785C112.393 185.098 112.526 185.552 112.526 186.147V188.672H111.704L111.635 188.204H111.6C111.41 188.366 111.205 188.502 110.986 188.611C110.772 188.721 110.538 188.776 110.284 188.776ZM110.605 187.995C110.778 187.995 110.934 187.955 111.072 187.874C111.216 187.787 111.369 187.672 111.531 187.527V186.573C110.954 186.648 110.553 186.761 110.328 186.911C110.103 187.056 109.99 187.235 109.99 187.449C109.99 187.64 110.048 187.779 110.163 187.865C110.279 187.952 110.426 187.995 110.605 187.995ZM115.206 188.776C114.675 188.776 114.251 188.58 113.934 188.186C113.616 187.793 113.458 187.246 113.458 186.547C113.458 186.084 113.541 185.685 113.709 185.349C113.882 185.014 114.107 184.756 114.384 184.577C114.661 184.398 114.952 184.308 115.258 184.308C115.5 184.308 115.705 184.351 115.873 184.438C116.046 184.519 116.213 184.632 116.375 184.777L116.34 184.091V182.547H117.335V188.672H116.513L116.444 188.212H116.409C116.253 188.369 116.072 188.502 115.864 188.611C115.656 188.721 115.437 188.776 115.206 188.776ZM115.448 187.952C115.766 187.952 116.063 187.793 116.34 187.475V185.488C116.196 185.355 116.051 185.262 115.907 185.21C115.763 185.158 115.619 185.132 115.474 185.132C115.203 185.132 114.97 185.257 114.773 185.505C114.583 185.748 114.488 186.092 114.488 186.538C114.488 186.995 114.571 187.345 114.739 187.588C114.906 187.831 115.143 187.952 115.448 187.952Z" fill="#1C2525"/>
<path d="M118.096 177.104H84.1963C79.4161 177.104 75.541 180.988 75.541 185.78C75.541 190.571 79.4161 194.456 84.1963 194.456H118.096C122.877 194.456 126.752 190.571 126.752 185.78C126.752 180.988 122.877 177.104 118.096 177.104Z" stroke="#E8E8E8"/>
<path d="M132.688 186.486C132.29 186.486 131.964 186.33 131.71 186.018C131.462 185.7 131.338 185.254 131.338 184.682C131.338 184.115 131.462 183.675 131.71 183.363C131.964 183.051 132.29 182.895 132.688 182.895C133.086 182.895 133.409 183.051 133.658 183.363C133.911 183.675 134.038 184.115 134.038 184.682C134.038 185.254 133.911 185.7 133.658 186.018C133.409 186.33 133.086 186.486 132.688 186.486ZM132.688 185.905C132.873 185.905 133.023 185.807 133.138 185.61C133.259 185.413 133.32 185.104 133.32 184.682C133.32 184.254 133.259 183.947 133.138 183.762C133.023 183.571 132.873 183.476 132.688 183.476C132.509 183.476 132.359 183.571 132.238 183.762C132.117 183.947 132.056 184.254 132.056 184.682C132.056 185.104 132.117 185.413 132.238 185.61C132.359 185.807 132.509 185.905 132.688 185.905ZM132.87 188.777L135.96 182.895H136.566L133.484 188.777H132.87ZM136.747 188.777C136.349 188.777 136.023 188.621 135.769 188.308C135.521 187.99 135.397 187.545 135.397 186.972C135.397 186.405 135.521 185.966 135.769 185.654C136.023 185.341 136.349 185.185 136.747 185.185C137.146 185.185 137.469 185.341 137.717 185.654C137.971 185.966 138.098 186.405 138.098 186.972C138.098 187.545 137.971 187.99 137.717 188.308C137.469 188.621 137.146 188.777 136.747 188.777ZM136.747 188.196C136.932 188.196 137.082 188.097 137.198 187.901C137.319 187.704 137.379 187.395 137.379 186.972C137.379 186.544 137.319 186.238 137.198 186.053C137.082 185.862 136.932 185.766 136.747 185.766C136.569 185.766 136.419 185.862 136.297 186.053C136.176 186.238 136.116 186.544 136.116 186.972C136.116 187.395 136.176 187.704 136.297 187.901C136.419 188.097 136.569 188.196 136.747 188.196Z" fill="#1C2525"/>
<path d="M260.188 180.719H219.075C218.279 180.719 217.633 181.366 217.633 182.165V188.672C217.633 189.47 218.279 190.118 219.075 190.118H260.188C260.985 190.118 261.631 189.47 261.631 188.672V182.165C261.631 181.366 260.985 180.719 260.188 180.719Z" fill="#F4F5F9"/>
<path d="M403 245.789H64V246.512H403V245.789Z" fill="#F4F4F4"/>
<path d="M84.9141 227.713V222.039H86.0479L87.0519 224.815C87.1154 224.994 87.176 225.18 87.2337 225.37C87.2972 225.556 87.3577 225.741 87.4155 225.926H87.4501C87.5135 225.741 87.5741 225.556 87.6318 225.37C87.6895 225.18 87.7472 224.994 87.8049 224.815L88.783 222.039H89.9255V227.713H88.9994V225.119C88.9994 224.94 89.0051 224.746 89.0167 224.538C89.034 224.324 89.0513 224.11 89.0686 223.895C89.0917 223.681 89.1119 223.488 89.1292 223.314H89.0946L88.6358 224.633L87.7097 227.184H87.1125L86.1777 224.633L85.7277 223.314H85.693C85.7104 223.488 85.7277 223.681 85.745 223.895C85.7681 224.11 85.7854 224.324 85.7969 224.538C85.8142 224.746 85.8229 224.94 85.8229 225.119V227.713H84.9141ZM93.0943 227.817C92.702 227.817 92.3471 227.73 92.0297 227.557C91.7124 227.377 91.4614 227.123 91.2767 226.793C91.0921 226.458 90.9998 226.056 90.9998 225.587C90.9998 225.125 91.0921 224.726 91.2767 224.39C91.4671 224.055 91.7124 223.797 92.0124 223.618C92.3125 223.439 92.627 223.349 92.9559 223.349C93.3425 223.349 93.6656 223.436 93.9253 223.609C94.1849 223.777 94.3811 224.014 94.5138 224.321C94.6465 224.621 94.7129 224.971 94.7129 225.37C94.7129 225.579 94.6985 225.741 94.6696 225.856H91.9692C92.0153 226.232 92.1509 226.524 92.376 226.733C92.601 226.941 92.8837 227.045 93.2242 227.045C93.4088 227.045 93.579 227.019 93.7348 226.967C93.8964 226.909 94.0551 226.831 94.2109 226.733L94.5484 227.357C94.3465 227.49 94.1214 227.6 93.8733 227.687C93.6252 227.774 93.3655 227.817 93.0943 227.817ZM91.9605 225.18H93.8474C93.8474 224.85 93.7752 224.592 93.631 224.407C93.4867 224.217 93.2703 224.121 92.9818 224.121C92.7337 224.121 92.5116 224.214 92.3154 224.399C92.125 224.578 92.0067 224.838 91.9605 225.18ZM95.6635 227.713V223.453H96.4858L96.555 224.034H96.5897C96.7685 223.843 96.9618 223.681 97.1696 223.548C97.3831 223.415 97.6225 223.349 97.888 223.349C98.1995 223.349 98.4477 223.418 98.6323 223.557C98.8227 223.69 98.967 223.875 99.0651 224.112C99.267 223.893 99.4776 223.71 99.6969 223.566C99.922 223.421 100.167 223.349 100.433 223.349C100.883 223.349 101.214 223.496 101.428 223.791C101.641 224.086 101.748 224.503 101.748 225.041V227.713H100.744V225.171C100.744 224.818 100.689 224.569 100.58 224.425C100.476 224.28 100.314 224.208 100.095 224.208C99.8296 224.208 99.5325 224.384 99.2036 224.737V227.713H98.2082V225.171C98.2082 224.818 98.1534 224.569 98.0437 224.425C97.9399 224.28 97.7754 224.208 97.5504 224.208C97.285 224.208 96.9878 224.384 96.6589 224.737V227.713H95.6635ZM104.698 227.817C104.346 227.817 104.017 227.73 103.711 227.557C103.405 227.377 103.157 227.123 102.967 226.793C102.776 226.458 102.681 226.056 102.681 225.587C102.681 225.113 102.776 224.711 102.967 224.381C103.157 224.046 103.405 223.791 103.711 223.618C104.017 223.439 104.346 223.349 104.698 223.349C105.055 223.349 105.387 223.439 105.693 223.618C105.999 223.791 106.247 224.046 106.437 224.381C106.628 224.711 106.723 225.113 106.723 225.587C106.723 226.056 106.628 226.458 106.437 226.793C106.247 227.123 105.999 227.377 105.693 227.557C105.387 227.73 105.055 227.817 104.698 227.817ZM104.698 227.002C105.009 227.002 105.255 226.871 105.433 226.611C105.612 226.351 105.702 226.01 105.702 225.587C105.702 225.159 105.612 224.815 105.433 224.555C105.255 224.295 105.009 224.164 104.698 224.164C104.386 224.164 104.141 224.295 103.962 224.555C103.789 224.815 103.702 225.159 103.702 225.587C103.702 226.01 103.789 226.351 103.962 226.611C104.141 226.871 104.386 227.002 104.698 227.002ZM107.708 227.713V223.453H108.531L108.6 224.208H108.634C108.784 223.93 108.966 223.719 109.18 223.574C109.393 223.424 109.613 223.349 109.838 223.349C110.04 223.349 110.201 223.378 110.322 223.436L110.149 224.303C110.074 224.28 110.005 224.263 109.941 224.251C109.878 224.24 109.8 224.234 109.708 224.234C109.54 224.234 109.364 224.3 109.18 224.433C108.995 224.561 108.836 224.786 108.704 225.11V227.713H107.708ZM111.358 229.466C111.243 229.466 111.142 229.457 111.055 229.439C110.969 229.422 110.885 229.402 110.804 229.379L110.986 228.598C111.026 228.609 111.072 228.621 111.124 228.633C111.182 228.65 111.237 228.659 111.289 228.659C111.514 228.659 111.693 228.589 111.825 228.45C111.964 228.317 112.068 228.144 112.137 227.93L112.215 227.661L110.544 223.453H111.557L112.293 225.544C112.356 225.729 112.417 225.926 112.475 226.134C112.538 226.336 112.601 226.539 112.665 226.741H112.7C112.752 226.545 112.803 226.345 112.855 226.143C112.913 225.934 112.968 225.735 113.02 225.544L113.66 223.453H114.621L113.08 227.904C112.902 228.384 112.685 228.763 112.431 229.04C112.177 229.324 111.82 229.466 111.358 229.466ZM118.121 227.817C117.751 227.817 117.448 227.701 117.212 227.47C116.981 227.239 116.866 226.938 116.866 226.568C116.866 226.111 117.065 225.758 117.463 225.509C117.861 225.255 118.496 225.081 119.367 224.989C119.361 224.763 119.301 224.569 119.185 224.407C119.076 224.24 118.876 224.156 118.588 224.156C118.38 224.156 118.175 224.196 117.973 224.277C117.777 224.358 117.584 224.457 117.394 224.572L117.03 223.904C117.267 223.754 117.532 223.624 117.826 223.514C118.126 223.404 118.444 223.349 118.778 223.349C119.309 223.349 119.704 223.508 119.964 223.826C120.23 224.138 120.362 224.592 120.362 225.188V227.713H119.54L119.471 227.244H119.436C119.246 227.406 119.041 227.542 118.822 227.652C118.608 227.762 118.374 227.817 118.121 227.817ZM118.441 227.036C118.614 227.036 118.77 226.996 118.908 226.915C119.052 226.828 119.205 226.712 119.367 226.568V225.613C118.79 225.689 118.389 225.801 118.164 225.952C117.939 226.096 117.826 226.276 117.826 226.49C117.826 226.681 117.884 226.819 117.999 226.906C118.115 226.993 118.262 227.036 118.441 227.036ZM122.506 227.713L121.025 223.453H122.038L122.713 225.665C122.771 225.874 122.829 226.085 122.886 226.299C122.95 226.513 123.01 226.73 123.068 226.949H123.103C123.166 226.73 123.227 226.513 123.285 226.299C123.348 226.085 123.409 225.874 123.466 225.665L124.141 223.453H125.102L123.657 227.713H122.506ZM126.7 227.817C126.33 227.817 126.028 227.701 125.791 227.47C125.56 227.239 125.445 226.938 125.445 226.568C125.445 226.111 125.644 225.758 126.042 225.509C126.44 225.255 127.075 225.081 127.946 224.989C127.94 224.763 127.88 224.569 127.764 224.407C127.655 224.24 127.456 224.156 127.167 224.156C126.959 224.156 126.755 224.196 126.553 224.277C126.356 224.358 126.163 224.457 125.973 224.572L125.609 223.904C125.846 223.754 126.111 223.624 126.405 223.514C126.706 223.404 127.023 223.349 127.358 223.349C127.888 223.349 128.284 223.508 128.543 223.826C128.809 224.138 128.942 224.592 128.942 225.188V227.713H128.119L128.05 227.244H128.015C127.825 227.406 127.62 227.542 127.401 227.652C127.187 227.762 126.954 227.817 126.7 227.817ZM127.02 227.036C127.193 227.036 127.349 226.996 127.487 226.915C127.632 226.828 127.785 226.712 127.946 226.568V225.613C127.369 225.689 126.968 225.801 126.743 225.952C126.518 226.096 126.405 226.276 126.405 226.49C126.405 226.681 126.463 226.819 126.579 226.906C126.694 226.993 126.841 227.036 127.02 227.036ZM130.133 227.713V223.453H131.128V227.713H130.133ZM130.635 222.707C130.456 222.707 130.312 222.655 130.202 222.551C130.092 222.447 130.037 222.308 130.037 222.134C130.037 221.967 130.092 221.831 130.202 221.726C130.312 221.622 130.456 221.57 130.635 221.57C130.814 221.57 130.958 221.622 131.067 221.726C131.177 221.831 131.232 221.967 131.232 222.134C131.232 222.308 131.177 222.447 131.067 222.551C130.958 222.655 130.814 222.707 130.635 222.707ZM133.367 227.817C133.015 227.817 132.764 227.71 132.614 227.496C132.47 227.282 132.398 226.99 132.398 226.62V221.588H133.393V226.672C133.393 226.793 133.416 226.88 133.463 226.932C133.509 226.978 133.558 227.002 133.61 227.002C133.633 227.002 133.653 227.002 133.67 227.002C133.693 226.996 133.725 226.99 133.765 226.984L133.895 227.73C133.838 227.753 133.763 227.774 133.67 227.791C133.584 227.808 133.483 227.817 133.367 227.817ZM135.778 227.817C135.408 227.817 135.105 227.701 134.869 227.47C134.638 227.239 134.523 226.938 134.523 226.568C134.523 226.111 134.722 225.758 135.12 225.509C135.518 225.255 136.153 225.081 137.024 224.989C137.018 224.763 136.958 224.569 136.842 224.407C136.733 224.24 136.534 224.156 136.245 224.156C136.037 224.156 135.833 224.196 135.631 224.277C135.434 224.358 135.241 224.457 135.051 224.572L134.687 223.904C134.924 223.754 135.189 223.624 135.483 223.514C135.783 223.404 136.101 223.349 136.436 223.349C136.966 223.349 137.362 223.508 137.621 223.826C137.887 224.138 138.019 224.592 138.019 225.188V227.713H137.197L137.128 227.244H137.093C136.903 227.406 136.698 227.542 136.479 227.652C136.265 227.762 136.032 227.817 135.778 227.817ZM136.098 227.036C136.271 227.036 136.427 226.996 136.565 226.915C136.71 226.828 136.863 226.712 137.024 226.568V225.613C136.447 225.689 136.046 225.801 135.821 225.952C135.596 226.096 135.483 226.276 135.483 226.49C135.483 226.681 135.541 226.819 135.657 226.906C135.772 226.993 135.919 227.036 136.098 227.036ZM141.27 227.817C140.866 227.817 140.48 227.632 140.11 227.262H140.085L139.998 227.713H139.21V221.588H140.206V223.167L140.18 223.878C140.359 223.722 140.555 223.595 140.768 223.496C140.982 223.398 141.195 223.349 141.409 223.349C141.94 223.349 142.352 223.546 142.646 223.939C142.941 224.332 143.088 224.856 143.088 225.509C143.088 225.995 143.001 226.412 142.828 226.759C142.655 227.1 142.43 227.363 142.153 227.548C141.882 227.727 141.588 227.817 141.27 227.817ZM141.063 226.993C141.345 226.993 141.582 226.868 141.772 226.62C141.963 226.371 142.058 226.007 142.058 225.527C142.058 225.099 141.986 224.766 141.842 224.529C141.697 224.292 141.464 224.173 141.14 224.173C140.84 224.173 140.529 224.332 140.206 224.65V226.637C140.356 226.764 140.503 226.857 140.647 226.915C140.797 226.967 140.936 226.993 141.063 226.993ZM145.057 227.817C144.705 227.817 144.454 227.71 144.304 227.496C144.16 227.282 144.088 226.99 144.088 226.62V221.588H145.083V226.672C145.083 226.793 145.106 226.88 145.152 226.932C145.198 226.978 145.247 227.002 145.299 227.002C145.322 227.002 145.343 227.002 145.36 227.002C145.383 226.996 145.415 226.99 145.455 226.984L145.585 227.73C145.527 227.753 145.452 227.774 145.36 227.791C145.273 227.808 145.172 227.817 145.057 227.817ZM148.255 227.817C147.863 227.817 147.508 227.73 147.191 227.557C146.873 227.377 146.622 227.123 146.438 226.793C146.253 226.458 146.161 226.056 146.161 225.587C146.161 225.125 146.253 224.726 146.438 224.39C146.628 224.055 146.873 223.797 147.173 223.618C147.473 223.439 147.788 223.349 148.117 223.349C148.503 223.349 148.826 223.436 149.086 223.609C149.346 223.777 149.542 224.014 149.675 224.321C149.807 224.621 149.874 224.971 149.874 225.37C149.874 225.579 149.859 225.741 149.83 225.856H147.13C147.176 226.232 147.312 226.524 147.537 226.733C147.762 226.941 148.045 227.045 148.385 227.045C148.57 227.045 148.74 227.019 148.896 226.967C149.057 226.909 149.216 226.831 149.372 226.733L149.709 227.357C149.507 227.49 149.282 227.6 149.034 227.687C148.786 227.774 148.526 227.817 148.255 227.817ZM147.121 225.18H149.008C149.008 224.85 148.936 224.592 148.792 224.407C148.648 224.217 148.431 224.121 148.143 224.121C147.894 224.121 147.672 224.214 147.476 224.399C147.286 224.578 147.167 224.838 147.121 225.18ZM151.387 227.817C151.208 227.817 151.055 227.753 150.928 227.626C150.801 227.499 150.738 227.337 150.738 227.14C150.738 226.944 150.801 226.782 150.928 226.654C151.055 226.527 151.208 226.464 151.387 226.464C151.572 226.464 151.724 226.527 151.846 226.654C151.967 226.782 152.027 226.944 152.027 227.14C152.027 227.337 151.967 227.499 151.846 227.626C151.724 227.753 151.572 227.817 151.387 227.817ZM153.771 227.817C153.592 227.817 153.439 227.753 153.312 227.626C153.185 227.499 153.122 227.337 153.122 227.14C153.122 226.944 153.185 226.782 153.312 226.654C153.439 226.527 153.592 226.464 153.771 226.464C153.955 226.464 154.108 226.527 154.229 226.654C154.351 226.782 154.411 226.944 154.411 227.14C154.411 227.337 154.351 227.499 154.229 227.626C154.108 227.753 153.955 227.817 153.771 227.817ZM156.154 227.817C155.975 227.817 155.822 227.753 155.695 227.626C155.568 227.499 155.505 227.337 155.505 227.14C155.505 226.944 155.568 226.782 155.695 226.654C155.822 226.527 155.975 226.464 156.154 226.464C156.338 226.464 156.491 226.527 156.613 226.654C156.734 226.782 156.794 226.944 156.794 227.14C156.794 227.337 156.734 227.499 156.613 227.626C156.491 227.753 156.338 227.817 156.154 227.817Z" fill="#1C2525"/>
<path d="M157.767 216.145H84.1963C79.4161 216.145 75.541 220.029 75.541 224.821C75.541 229.612 79.4161 233.497 84.1963 233.497H157.767C162.547 233.497 166.422 229.612 166.422 224.821C166.422 220.029 162.547 216.145 157.767 216.145Z" stroke="#E8E8E8"/>
<path d="M260.188 220.484H195.273C194.476 220.484 193.83 221.132 193.83 221.93V228.437C193.83 229.236 194.476 229.883 195.273 229.883H260.188C260.984 229.883 261.63 229.236 261.63 228.437V221.93C261.63 221.132 260.984 220.484 260.188 220.484Z" fill="#F4F5F9"/>
<path d="M289.754 220.162C288.891 220.41 288.436 220.059 288.316 219.852V233.497H392.18V218.922C391.461 219.646 389.808 221.155 388.946 221.403C387.868 221.713 386.43 219.232 385.352 218.612C384.274 217.992 382.836 225.434 380.679 225.434C378.524 225.434 379.961 211.17 376.726 217.992C373.492 224.814 370.617 222.644 369.179 222.333C367.742 222.023 367.023 224.814 364.507 224.814C361.991 224.814 361.632 218.612 360.194 217.062C358.757 215.512 357.679 222.954 355.882 223.573C354.085 224.194 354.444 221.403 352.288 220.473C350.131 219.543 349.772 224.504 348.335 226.055C346.897 227.605 346.178 222.023 344.022 220.162C341.865 218.302 340.787 225.744 339.71 226.674C338.631 227.605 336.115 221.093 335.037 220.473C333.959 219.853 331.803 222.954 331.084 223.573C330.365 224.194 328.927 222.644 328.209 222.333C327.49 222.023 324.615 227.605 322.818 228.225C321.021 228.845 319.943 224.504 319.224 224.194C318.505 223.883 316.708 225.434 315.271 226.055C313.833 226.674 309.521 220.162 308.442 219.232C307.364 218.303 305.926 222.954 304.13 224.504C302.333 226.055 302.333 221.713 300.176 220.162C298.02 218.611 298.02 223.264 295.864 223.883C293.707 224.504 292.989 219.232 292.629 218.612C292.27 217.992 290.832 219.852 289.754 220.162Z" fill="#F4F5F9"/>
<path d="M289.039 219.874C289.157 220.081 289.606 220.435 290.456 220.185C291.52 219.874 292.938 218.003 293.292 218.626C293.647 219.25 294.355 224.552 296.481 223.928C298.608 223.304 298.608 218.626 300.735 220.185C302.861 221.745 302.861 226.111 304.632 224.552C306.405 222.993 307.823 218.315 308.886 219.251C309.949 220.185 314.202 226.735 315.619 226.111C317.037 225.488 318.808 223.928 319.517 224.24C320.226 224.552 321.29 228.918 323.062 228.295C324.833 227.671 327.668 222.057 328.377 222.369C329.086 222.68 330.504 224.24 331.213 223.616C331.921 222.993 334.047 219.874 335.111 220.498C336.174 221.122 338.655 227.671 339.718 226.735C340.781 225.8 341.844 218.314 343.971 220.185C346.097 222.057 346.806 227.671 348.223 226.111C349.641 224.552 349.996 219.562 352.122 220.498C354.248 221.433 353.894 224.24 355.666 223.616C357.438 222.993 358.501 215.508 359.919 217.067C361.336 218.626 361.691 224.864 364.172 224.864C366.653 224.864 367.361 222.057 368.779 222.369C370.196 222.68 373.032 224.864 376.221 218.003C379.411 211.142 377.993 225.488 380.12 225.488C382.246 225.488 383.663 218.003 384.726 218.627C385.79 219.251 387.208 221.746 388.271 221.433C389.121 221.184 390.751 219.666 391.46 218.938" stroke="#DEDFE3" stroke-width="2" stroke-linecap="round"/>
<path d="M86.0558 266.756V261.932H84.4199V261.082H88.6957V261.932H87.0598V266.756H86.0558ZM90.6743 266.86C90.3223 266.86 89.9934 266.774 89.6876 266.6C89.3818 266.421 89.1337 266.166 88.9433 265.836C88.7528 265.501 88.6576 265.099 88.6576 264.631C88.6576 264.156 88.7528 263.754 88.9433 263.425C89.1337 263.089 89.3818 262.835 89.6876 262.661C89.9934 262.482 90.3223 262.392 90.6743 262.392C91.0321 262.392 91.3639 262.482 91.6697 262.661C91.9755 262.835 92.2236 263.089 92.414 263.425C92.6045 263.754 92.6997 264.156 92.6997 264.631C92.6997 265.099 92.6045 265.501 92.414 265.836C92.2236 266.166 91.9755 266.421 91.6697 266.6C91.3639 266.774 91.0321 266.86 90.6743 266.86ZM90.6743 266.045C90.9859 266.045 91.2312 265.915 91.41 265.654C91.5889 265.394 91.6783 265.053 91.6783 264.631C91.6783 264.203 91.5889 263.858 91.41 263.598C91.2312 263.338 90.9859 263.208 90.6743 263.208C90.3627 263.208 90.1175 263.338 89.9386 263.598C89.7655 263.858 89.679 264.203 89.679 264.631C89.679 265.053 89.7655 265.394 89.9386 265.654C90.1175 265.915 90.3627 266.045 90.6743 266.045ZM94.9878 266.86C94.4974 266.86 94.1483 266.719 93.9406 266.435C93.7386 266.146 93.6376 265.773 93.6376 265.316V263.286H93.0317V262.54L93.6896 262.496L93.8107 261.334H94.6416V262.496H95.7236V263.286H94.6416V265.316C94.6416 265.813 94.8407 266.062 95.2389 266.062C95.3139 266.062 95.3918 266.053 95.4725 266.036C95.5533 266.013 95.6226 265.99 95.6803 265.967L95.8534 266.704C95.738 266.745 95.6053 266.779 95.4552 266.808C95.311 266.843 95.1552 266.86 94.9878 266.86ZM97.4619 266.86C97.0926 266.86 96.7897 266.745 96.5531 266.513C96.3223 266.282 96.2069 265.981 96.2069 265.611C96.2069 265.154 96.406 264.801 96.8041 264.552C97.2022 264.298 97.837 264.124 98.7083 264.032C98.7025 263.806 98.6419 263.613 98.5265 263.451C98.4169 263.283 98.2178 263.199 97.9293 263.199C97.7216 263.199 97.5167 263.239 97.3148 263.32C97.1186 263.401 96.9253 263.5 96.7349 263.615L96.3713 262.947C96.6079 262.797 96.8733 262.667 97.1676 262.557C97.4677 262.447 97.785 262.392 98.1197 262.392C98.6506 262.392 99.0458 262.551 99.3055 262.869C99.5709 263.182 99.7036 263.636 99.7036 264.231V266.756H98.8814L98.8121 266.288H98.7775C98.5871 266.45 98.3822 266.586 98.163 266.695C97.9495 266.805 97.7158 266.86 97.4619 266.86ZM97.7821 266.079C97.9553 266.079 98.1111 266.039 98.2495 265.958C98.3938 265.871 98.5467 265.756 98.7083 265.611V264.657C98.1312 264.732 97.7302 264.845 97.5052 264.995C97.2801 265.14 97.1676 265.319 97.1676 265.533C97.1676 265.724 97.2253 265.863 97.3407 265.949C97.4561 266.036 97.6033 266.079 97.7821 266.079ZM101.864 266.86C101.512 266.86 101.261 266.753 101.111 266.539C100.967 266.325 100.895 266.033 100.895 265.663V260.631H101.89V265.715C101.89 265.836 101.913 265.923 101.959 265.975C102.006 266.022 102.055 266.045 102.107 266.045C102.13 266.045 102.15 266.045 102.167 266.045C102.19 266.039 102.222 266.033 102.262 266.027L102.392 266.774C102.334 266.797 102.259 266.817 102.167 266.834C102.081 266.852 101.98 266.86 101.864 266.86ZM106.466 266.86C105.935 266.86 105.511 266.664 105.194 266.27C104.876 265.877 104.718 265.33 104.718 264.631C104.718 264.168 104.801 263.769 104.969 263.433C105.142 263.098 105.367 262.84 105.644 262.661C105.921 262.482 106.212 262.392 106.518 262.392C106.76 262.392 106.965 262.435 107.133 262.522C107.306 262.603 107.473 262.716 107.635 262.861L107.6 262.175V260.631H108.595V266.756H107.773L107.704 266.296H107.669C107.513 266.452 107.332 266.586 107.124 266.695C106.916 266.805 106.697 266.86 106.466 266.86ZM106.708 266.036C107.026 266.036 107.323 265.877 107.6 265.559V263.572C107.456 263.439 107.311 263.346 107.167 263.294C107.023 263.242 106.879 263.216 106.734 263.216C106.463 263.216 106.23 263.341 106.033 263.589C105.843 263.832 105.748 264.176 105.748 264.622C105.748 265.079 105.831 265.429 105.999 265.672C106.166 265.915 106.403 266.036 106.708 266.036ZM110.893 266.86C110.524 266.86 110.221 266.745 109.984 266.513C109.753 266.282 109.638 265.981 109.638 265.611C109.638 265.154 109.837 264.801 110.235 264.552C110.633 264.298 111.268 264.124 112.139 264.032C112.133 263.806 112.073 263.613 111.957 263.451C111.848 263.283 111.649 263.199 111.36 263.199C111.153 263.199 110.948 263.239 110.746 263.32C110.55 263.401 110.356 263.5 110.166 263.615L109.802 262.947C110.039 262.797 110.304 262.667 110.599 262.557C110.899 262.447 111.216 262.392 111.551 262.392C112.082 262.392 112.477 262.551 112.736 262.869C113.002 263.182 113.135 263.636 113.135 264.231V266.756H112.312L112.243 266.288H112.208C112.018 266.45 111.813 266.586 111.594 266.695C111.38 266.805 111.147 266.86 110.893 266.86ZM111.213 266.079C111.386 266.079 111.542 266.039 111.681 265.958C111.825 265.871 111.978 265.756 112.139 265.611V264.657C111.562 264.732 111.161 264.845 110.936 264.995C110.711 265.14 110.599 265.319 110.599 265.533C110.599 265.724 110.656 265.863 110.772 265.949C110.887 266.036 111.034 266.079 111.213 266.079ZM115.688 266.86C115.197 266.86 114.848 266.719 114.641 266.435C114.439 266.146 114.338 265.773 114.338 265.316V263.286H113.732V262.54L114.39 262.496L114.511 261.334H115.342V262.496H116.424V263.286H115.342V265.316C115.342 265.813 115.541 266.062 115.939 266.062C116.014 266.062 116.092 266.053 116.173 266.036C116.253 266.013 116.323 265.99 116.38 265.967L116.553 266.704C116.438 266.745 116.305 266.779 116.155 266.808C116.011 266.843 115.855 266.86 115.688 266.86ZM118.162 266.86C117.793 266.86 117.49 266.745 117.253 266.513C117.022 266.282 116.907 265.981 116.907 265.611C116.907 265.154 117.106 264.801 117.504 264.552C117.902 264.298 118.537 264.124 119.408 264.032C119.403 263.806 119.342 263.613 119.227 263.451C119.117 263.283 118.918 263.199 118.629 263.199C118.422 263.199 118.217 263.239 118.015 263.32C117.819 263.401 117.625 263.5 117.435 263.615L117.071 262.947C117.308 262.797 117.573 262.667 117.868 262.557C118.168 262.447 118.485 262.392 118.82 262.392C119.351 262.392 119.746 262.551 120.006 262.869C120.271 263.182 120.404 263.636 120.404 264.231V266.756H119.582L119.512 266.288H119.478C119.287 266.45 119.082 266.586 118.863 266.695C118.65 266.805 118.416 266.86 118.162 266.86ZM118.482 266.079C118.655 266.079 118.811 266.039 118.95 265.958C119.094 265.871 119.247 265.756 119.408 265.611V264.657C118.831 264.732 118.43 264.845 118.205 264.995C117.98 265.14 117.868 265.319 117.868 265.533C117.868 265.724 117.925 265.863 118.041 265.949C118.156 266.036 118.303 266.079 118.482 266.079ZM124.513 266.86C124.225 266.86 123.936 266.805 123.648 266.695C123.359 266.58 123.111 266.438 122.904 266.27L123.371 265.628C123.561 265.773 123.752 265.889 123.942 265.975C124.133 266.062 124.335 266.105 124.548 266.105C124.779 266.105 124.949 266.056 125.059 265.958C125.168 265.86 125.223 265.738 125.223 265.594C125.223 265.472 125.177 265.374 125.085 265.299C124.998 265.218 124.886 265.148 124.747 265.09C124.609 265.027 124.464 264.966 124.314 264.908C124.13 264.839 123.945 264.755 123.76 264.657C123.582 264.552 123.434 264.422 123.319 264.266C123.204 264.104 123.146 263.905 123.146 263.667C123.146 263.292 123.284 262.985 123.561 262.748C123.838 262.511 124.213 262.392 124.687 262.392C124.987 262.392 125.255 262.444 125.492 262.548C125.728 262.652 125.933 262.771 126.106 262.904L125.647 263.511C125.497 263.401 125.344 263.315 125.189 263.251C125.039 263.182 124.88 263.147 124.713 263.147C124.499 263.147 124.34 263.193 124.236 263.286C124.133 263.372 124.081 263.482 124.081 263.615C124.081 263.783 124.167 263.91 124.34 263.997C124.513 264.084 124.715 264.168 124.946 264.249C125.142 264.318 125.333 264.405 125.517 264.509C125.702 264.607 125.855 264.738 125.976 264.899C126.103 265.061 126.167 265.275 126.167 265.542C126.167 265.906 126.025 266.218 125.743 266.479C125.46 266.733 125.05 266.86 124.513 266.86ZM128.873 266.86C128.48 266.86 128.126 266.774 127.808 266.6C127.491 266.421 127.24 266.166 127.055 265.836C126.871 265.501 126.778 265.099 126.778 264.631C126.778 264.168 126.871 263.769 127.055 263.433C127.246 263.098 127.491 262.84 127.791 262.661C128.091 262.482 128.405 262.392 128.734 262.392C129.121 262.392 129.444 262.479 129.704 262.652C129.963 262.82 130.16 263.057 130.292 263.364C130.425 263.665 130.491 264.015 130.491 264.414C130.491 264.622 130.477 264.784 130.448 264.899H127.748C127.794 265.275 127.929 265.568 128.154 265.776C128.379 265.984 128.662 266.088 129.003 266.088C129.187 266.088 129.358 266.062 129.513 266.01C129.675 265.952 129.834 265.874 129.989 265.776L130.327 266.4C130.125 266.533 129.9 266.643 129.652 266.73C129.404 266.817 129.144 266.86 128.873 266.86ZM127.739 264.223H129.626C129.626 263.893 129.554 263.636 129.409 263.451C129.265 263.26 129.049 263.164 128.76 263.164C128.512 263.164 128.29 263.257 128.094 263.442C127.903 263.621 127.785 263.881 127.739 264.223ZM131.442 266.756V262.496H132.264L132.334 263.069H132.368C132.559 262.884 132.766 262.725 132.991 262.592C133.216 262.459 133.473 262.392 133.762 262.392C134.218 262.392 134.549 262.54 134.757 262.835C134.965 263.13 135.069 263.546 135.069 264.084V266.756H134.073V264.214C134.073 263.861 134.021 263.613 133.917 263.468C133.814 263.323 133.643 263.251 133.407 263.251C133.222 263.251 133.058 263.297 132.913 263.39C132.775 263.477 132.616 263.607 132.437 263.78V266.756H131.442ZM137.774 266.86C137.243 266.86 136.819 266.664 136.502 266.27C136.184 265.877 136.026 265.33 136.026 264.631C136.026 264.168 136.109 263.769 136.277 263.433C136.45 263.098 136.675 262.84 136.952 262.661C137.229 262.482 137.52 262.392 137.826 262.392C138.068 262.392 138.273 262.435 138.441 262.522C138.614 262.603 138.781 262.716 138.943 262.861L138.908 262.175V260.631H139.903V266.756H139.081L139.012 266.296H138.977C138.821 266.452 138.64 266.586 138.432 266.695C138.224 266.805 138.005 266.86 137.774 266.86ZM138.017 266.036C138.334 266.036 138.631 265.877 138.908 265.559V263.572C138.764 263.439 138.62 263.346 138.475 263.294C138.331 263.242 138.187 263.216 138.043 263.216C137.771 263.216 137.538 263.341 137.341 263.589C137.151 263.832 137.056 264.176 137.056 264.622C137.056 265.079 137.139 265.429 137.307 265.672C137.474 265.915 137.711 266.036 138.017 266.036Z" fill="#1C2525"/>
<path d="M141.177 255.188H84.1963C79.4161 255.188 75.541 259.072 75.541 263.864C75.541 268.655 79.4161 272.54 84.1963 272.54H141.177C145.957 272.54 149.833 268.655 149.833 263.864C149.833 259.072 145.957 255.188 141.177 255.188Z" stroke="#E8E8E8"/>
<path d="M156.531 266.861C156.15 266.861 155.781 266.789 155.423 266.644C155.071 266.499 154.759 266.294 154.488 266.028L155.077 265.343C155.279 265.533 155.51 265.69 155.769 265.811C156.029 265.927 156.289 265.985 156.548 265.985C156.871 265.985 157.117 265.918 157.284 265.785C157.451 265.652 157.535 265.476 157.535 265.256C157.535 265.019 157.451 264.848 157.284 264.744C157.122 264.64 156.915 264.533 156.661 264.423L155.882 264.085C155.697 264.004 155.515 263.899 155.337 263.772C155.163 263.645 155.019 263.483 154.904 263.286C154.794 263.09 154.739 262.853 154.739 262.575C154.739 262.274 154.82 262.005 154.982 261.768C155.149 261.525 155.374 261.334 155.657 261.195C155.945 261.051 156.274 260.979 156.643 260.979C156.972 260.979 157.29 261.045 157.596 261.178C157.901 261.305 158.164 261.479 158.383 261.699L157.873 262.341C157.694 262.19 157.503 262.072 157.301 261.985C157.105 261.898 156.886 261.855 156.643 261.855C156.378 261.855 156.162 261.916 155.994 262.037C155.833 262.153 155.752 262.315 155.752 262.523C155.752 262.667 155.792 262.789 155.873 262.887C155.96 262.98 156.072 263.061 156.211 263.13C156.349 263.194 156.496 263.257 156.652 263.321L157.422 263.642C157.757 263.787 158.031 263.978 158.245 264.215C158.458 264.446 158.565 264.767 158.565 265.178C158.565 265.484 158.484 265.765 158.323 266.019C158.161 266.274 157.927 266.479 157.622 266.635C157.321 266.786 156.958 266.861 156.531 266.861ZM161.325 266.861C160.933 266.861 160.578 266.774 160.261 266.601C159.943 266.421 159.692 266.167 159.508 265.837C159.323 265.502 159.231 265.1 159.231 264.631C159.231 264.168 159.323 263.769 159.508 263.434C159.698 263.098 159.943 262.841 160.243 262.662C160.543 262.482 160.858 262.393 161.187 262.393C161.573 262.393 161.897 262.479 162.156 262.653C162.416 262.821 162.612 263.058 162.745 263.364C162.877 263.665 162.944 264.015 162.944 264.414C162.944 264.622 162.929 264.784 162.901 264.9H160.2C160.246 265.276 160.382 265.568 160.607 265.776C160.832 265.985 161.115 266.089 161.455 266.089C161.64 266.089 161.81 266.063 161.966 266.011C162.127 265.953 162.286 265.875 162.442 265.776L162.779 266.401C162.577 266.534 162.352 266.644 162.104 266.731C161.856 266.818 161.596 266.861 161.325 266.861ZM160.191 264.223H162.078C162.078 263.894 162.006 263.636 161.862 263.451C161.718 263.26 161.501 263.165 161.213 263.165C160.965 263.165 160.742 263.257 160.546 263.443C160.356 263.622 160.238 263.882 160.191 264.223ZM165.669 266.861C165.282 266.861 164.933 266.774 164.621 266.601C164.316 266.421 164.07 266.167 163.886 265.837C163.707 265.502 163.617 265.1 163.617 264.631C163.617 264.157 163.716 263.755 163.912 263.425C164.108 263.09 164.368 262.835 164.691 262.662C165.02 262.482 165.372 262.393 165.747 262.393C166.018 262.393 166.254 262.439 166.456 262.532C166.658 262.624 166.837 262.737 166.993 262.87L166.508 263.521C166.399 263.422 166.286 263.347 166.171 263.295C166.055 263.237 165.931 263.208 165.799 263.208C165.458 263.208 165.178 263.338 164.959 263.599C164.746 263.859 164.639 264.203 164.639 264.631C164.639 265.053 164.743 265.395 164.95 265.655C165.164 265.915 165.438 266.045 165.773 266.045C165.94 266.045 166.096 266.011 166.24 265.941C166.39 265.866 166.526 265.779 166.647 265.681L167.054 266.34C166.857 266.514 166.638 266.644 166.396 266.731C166.153 266.818 165.911 266.861 165.669 266.861Z" fill="#1C2525"/>
<path d="M260.187 259.525H228.45C227.654 259.525 227.008 260.173 227.008 260.971V267.478C227.008 268.277 227.654 268.924 228.45 268.924H260.187C260.983 268.924 261.629 268.277 261.629 267.478V260.971C261.629 260.173 260.983 259.525 260.187 259.525Z" fill="#F4F5F9"/>
<path d="M289.754 259.205C288.891 259.453 288.436 259.102 288.316 258.895V272.54H392.18V257.965C391.461 258.689 389.808 260.198 388.946 260.446C387.868 260.756 386.43 258.275 385.352 257.655C384.274 257.035 382.836 264.477 380.679 264.477C378.524 264.477 379.961 250.213 376.726 257.035C373.492 263.857 370.617 261.686 369.179 261.376C367.742 261.066 367.023 263.857 364.507 263.857C361.991 263.857 361.632 257.655 360.194 256.105C358.757 254.555 357.679 261.997 355.882 262.616C354.085 263.237 354.444 260.446 352.288 259.516C350.131 258.586 349.772 263.547 348.335 265.098C346.897 266.648 346.178 261.066 344.022 259.205C341.865 257.345 340.787 264.787 339.71 265.717C338.631 266.648 336.115 260.136 335.037 259.516C333.959 258.896 331.803 261.997 331.084 262.616C330.365 263.237 328.927 261.686 328.209 261.376C327.49 261.066 324.615 266.648 322.818 267.268C321.021 267.888 319.943 263.547 319.224 263.237C318.505 262.926 316.708 264.477 315.271 265.098C313.833 265.717 309.521 259.205 308.442 258.275C307.364 257.346 305.926 261.997 304.13 263.547C302.333 265.098 302.333 260.756 300.176 259.205C298.02 257.654 298.02 262.307 295.864 262.926C293.707 263.547 292.989 258.275 292.629 257.655C292.27 257.035 290.832 258.895 289.754 259.205Z" fill="#EAF7ED"/>
<path d="M289.039 258.917C289.157 259.124 289.606 259.478 290.456 259.228C291.52 258.917 292.938 257.046 293.292 257.669C293.647 258.293 294.355 263.595 296.481 262.971C298.608 262.347 298.608 257.669 300.735 259.228C302.861 260.788 302.861 265.154 304.632 263.595C306.405 262.036 307.823 257.358 308.886 258.294C309.949 259.228 314.202 265.778 315.619 265.154C317.037 264.531 318.808 262.971 319.517 263.283C320.226 263.595 321.29 267.961 323.062 267.338C324.833 266.714 327.668 261.1 328.377 261.412C329.086 261.723 330.504 263.283 331.213 262.659C331.921 262.036 334.047 258.917 335.111 259.541C336.174 260.165 338.655 266.714 339.718 265.778C340.781 264.842 341.844 257.357 343.971 259.228C346.097 261.1 346.806 266.714 348.223 265.154C349.641 263.595 349.996 258.605 352.122 259.541C354.248 260.476 353.894 263.283 355.666 262.659C357.438 262.036 358.501 254.551 359.919 256.11C361.336 257.669 361.691 263.907 364.172 263.907C366.653 263.907 367.361 261.1 368.779 261.412C370.196 261.723 373.032 263.907 376.221 257.046C379.411 250.185 377.993 264.531 380.12 264.531C382.246 264.531 383.663 257.046 384.726 257.67C385.79 258.294 387.208 260.789 388.271 260.476C389.121 260.227 390.751 258.709 391.46 257.981" stroke="#2EB24D" stroke-width="2" stroke-linecap="round"/>
</g>
</g>
<g filter="url(#filter1_d_213_4066)">
<rect x="17" y="30" width="135" height="86" rx="8" fill="#FEFEFE"/>
</g>
<path d="M29.9588 60V51.2727H33.0696C33.7486 51.2727 34.3111 51.3963 34.7571 51.6435C35.2031 51.8906 35.5369 52.2287 35.7585 52.6577C35.9801 53.0838 36.0909 53.5639 36.0909 54.098C36.0909 54.6349 35.9787 55.1179 35.7543 55.5469C35.5327 55.973 35.1974 56.3111 34.7486 56.5611C34.3026 56.8082 33.7415 56.9318 33.0653 56.9318H30.9261V55.8153H32.946C33.375 55.8153 33.723 55.7415 33.9901 55.5938C34.2571 55.4432 34.4531 55.2386 34.5781 54.9801C34.7031 54.7216 34.7656 54.4276 34.7656 54.098C34.7656 53.7685 34.7031 53.4759 34.5781 53.2202C34.4531 52.9645 34.2557 52.7642 33.9858 52.6193C33.7188 52.4744 33.3665 52.402 32.929 52.402H31.2756V60H29.9588ZM40.2713 60.1321C39.6264 60.1321 39.071 59.9943 38.6051 59.7188C38.142 59.4403 37.7841 59.0497 37.5312 58.5469C37.2812 58.0412 37.1562 57.4489 37.1562 56.7699C37.1562 56.0994 37.2812 55.5085 37.5312 54.9972C37.7841 54.4858 38.1364 54.0866 38.5881 53.7997C39.0426 53.5128 39.5739 53.3693 40.1818 53.3693C40.5511 53.3693 40.9091 53.4304 41.2557 53.5526C41.6023 53.6747 41.9134 53.8665 42.1889 54.1278C42.4645 54.3892 42.6818 54.7287 42.8409 55.1463C43 55.5611 43.0795 56.0653 43.0795 56.6591V57.1108H37.8764V56.1562H41.831C41.831 55.821 41.7628 55.5241 41.6264 55.2656C41.4901 55.0043 41.2983 54.7983 41.0511 54.6477C40.8068 54.4972 40.5199 54.4219 40.1903 54.4219C39.8324 54.4219 39.5199 54.5099 39.2528 54.6861C38.9886 54.8594 38.7841 55.0866 38.6392 55.3679C38.4972 55.6463 38.4261 55.9489 38.4261 56.2756V57.0213C38.4261 57.4588 38.5028 57.831 38.6562 58.1378C38.8125 58.4446 39.0298 58.679 39.3082 58.8409C39.5866 59 39.9119 59.0795 40.2841 59.0795C40.5256 59.0795 40.7457 59.0455 40.9446 58.9773C41.1435 58.9062 41.3153 58.8011 41.4602 58.6619C41.6051 58.5227 41.7159 58.3509 41.7926 58.1463L42.9986 58.3636C42.902 58.7187 42.7287 59.0298 42.4787 59.2969C42.2315 59.5611 41.9205 59.767 41.5455 59.9148C41.1733 60.0597 40.7486 60.1321 40.2713 60.1321ZM44.4933 60V53.4545H45.7248V54.4943H45.793C45.9123 54.142 46.1225 53.8651 46.4237 53.6634C46.7276 53.4588 47.0714 53.3565 47.4549 53.3565C47.5344 53.3565 47.6282 53.3594 47.7362 53.3651C47.8469 53.3707 47.9336 53.3778 47.9961 53.3864V54.6051C47.945 54.5909 47.854 54.5753 47.7234 54.5582C47.5927 54.5384 47.462 54.5284 47.3313 54.5284C47.0302 54.5284 46.7617 54.5923 46.5259 54.7202C46.293 54.8452 46.1083 55.0199 45.9719 55.2443C45.8356 55.4659 45.7674 55.7187 45.7674 56.0028V60H44.4933ZM52.6005 53.4545V54.4773H48.9016V53.4545H52.6005ZM49.9158 60V52.696C49.9158 52.2869 50.0053 51.9474 50.1843 51.6776C50.3633 51.4048 50.6005 51.2017 50.896 51.0682C51.1914 50.9318 51.5124 50.8636 51.859 50.8636C52.1147 50.8636 52.3335 50.8849 52.5153 50.9276C52.6971 50.9673 52.832 51.0043 52.9201 51.0384L52.6218 52.0696C52.5621 52.0526 52.4854 52.0327 52.3917 52.0099C52.2979 51.9844 52.1843 51.9716 52.0508 51.9716C51.7411 51.9716 51.5195 52.0483 51.386 52.2017C51.2553 52.3551 51.19 52.5767 51.19 52.8665V60H49.9158ZM56.4144 60.1321C55.8008 60.1321 55.2653 59.9915 54.8079 59.7102C54.3505 59.429 53.9954 59.0355 53.7425 58.5298C53.4897 58.0241 53.3633 57.4332 53.3633 56.7571C53.3633 56.0781 53.4897 55.4844 53.7425 54.9759C53.9954 54.4673 54.3505 54.0724 54.8079 53.7912C55.2653 53.5099 55.8008 53.3693 56.4144 53.3693C57.0281 53.3693 57.5636 53.5099 58.021 53.7912C58.4783 54.0724 58.8335 54.4673 59.0863 54.9759C59.3391 55.4844 59.4656 56.0781 59.4656 56.7571C59.4656 57.4332 59.3391 58.0241 59.0863 58.5298C58.8335 59.0355 58.4783 59.429 58.021 59.7102C57.5636 59.9915 57.0281 60.1321 56.4144 60.1321ZM56.4187 59.0625C56.8164 59.0625 57.146 58.9574 57.4073 58.7472C57.6687 58.5369 57.8619 58.2571 57.9869 57.9077C58.1147 57.5582 58.1786 57.1733 58.1786 56.7528C58.1786 56.3352 58.1147 55.9517 57.9869 55.6023C57.8619 55.25 57.6687 54.9673 57.4073 54.7543C57.146 54.5412 56.8164 54.4347 56.4187 54.4347C56.0181 54.4347 55.6857 54.5412 55.4215 54.7543C55.1602 54.9673 54.9656 55.25 54.8377 55.6023C54.7127 55.9517 54.6502 56.3352 54.6502 56.7528C54.6502 57.1733 54.7127 57.5582 54.8377 57.9077C54.9656 58.2571 55.1602 58.5369 55.4215 58.7472C55.6857 58.9574 56.0181 59.0625 56.4187 59.0625ZM60.8878 60V53.4545H62.1193V54.4943H62.1875C62.3068 54.142 62.517 53.8651 62.8182 53.6634C63.1222 53.4588 63.4659 53.3565 63.8494 53.3565C63.929 53.3565 64.0227 53.3594 64.1307 53.3651C64.2415 53.3707 64.3281 53.3778 64.3906 53.3864V54.6051C64.3395 54.5909 64.2486 54.5753 64.1179 54.5582C63.9872 54.5384 63.8565 54.5284 63.7259 54.5284C63.4247 54.5284 63.1563 54.5923 62.9205 54.7202C62.6875 54.8452 62.5028 55.0199 62.3665 55.2443C62.2301 55.4659 62.1619 55.7187 62.1619 56.0028V60H60.8878ZM65.4933 60V53.4545H66.7163V54.5199H66.7972C66.9336 54.1591 67.1566 53.8778 67.4663 53.6761C67.7759 53.4716 68.1467 53.3693 68.5785 53.3693C69.016 53.3693 69.3825 53.4716 69.6779 53.6761C69.9762 53.8807 70.1964 54.1619 70.3384 54.5199H70.4066C70.5629 54.1705 70.8114 53.892 71.1523 53.6847C71.4933 53.4744 71.8995 53.3693 72.3711 53.3693C72.9648 53.3693 73.4492 53.5554 73.8242 53.9276C74.2021 54.2997 74.391 54.8608 74.391 55.6108V60H73.1168V55.7301C73.1168 55.2869 72.9961 54.9659 72.7546 54.767C72.5131 54.5682 72.2248 54.4688 71.8896 54.4688C71.4748 54.4688 71.1523 54.5966 70.9222 54.8523C70.6921 55.1051 70.5771 55.4304 70.5771 55.8281V60H69.3072V55.6491C69.3072 55.294 69.1964 55.0085 68.9748 54.7926C68.7532 54.5767 68.4648 54.4688 68.1097 54.4688C67.8683 54.4688 67.6452 54.5327 67.4407 54.6605C67.239 54.7855 67.0756 54.9602 66.9506 55.1847C66.8285 55.4091 66.7674 55.669 66.7674 55.9645V60H65.4933ZM78.0036 60.1449C77.5888 60.1449 77.2138 60.0682 76.8786 59.9148C76.5433 59.7585 76.2777 59.5327 76.0817 59.2372C75.8885 58.9418 75.7919 58.5795 75.7919 58.1506C75.7919 57.7812 75.8629 57.4773 76.005 57.2386C76.147 57 76.3388 56.8111 76.5803 56.6719C76.8217 56.5327 77.0916 56.4276 77.3899 56.3565C77.6882 56.2855 77.9922 56.2315 78.3018 56.1946C78.6939 56.1491 79.0121 56.1122 79.2564 56.0838C79.5007 56.0526 79.6783 56.0028 79.7891 55.9347C79.8999 55.8665 79.9553 55.7557 79.9553 55.6023V55.5724C79.9553 55.2003 79.8501 54.9119 79.6399 54.7074C79.4325 54.5028 79.1229 54.4006 78.7109 54.4006C78.282 54.4006 77.9439 54.4957 77.6967 54.6861C77.4524 54.8736 77.2834 55.0824 77.1896 55.3125L75.9922 55.0398C76.1342 54.642 76.3416 54.321 76.6143 54.0767C76.8899 53.8295 77.2067 53.6506 77.5646 53.5398C77.9226 53.4261 78.299 53.3693 78.6939 53.3693C78.9553 53.3693 79.2322 53.4006 79.5249 53.4631C79.8203 53.5227 80.0959 53.6335 80.3516 53.7955C80.6101 53.9574 80.8217 54.1889 80.9865 54.4901C81.1513 54.7884 81.2337 55.1761 81.2337 55.6534V60H79.9893V59.1051H79.9382C79.8558 59.2699 79.7322 59.4318 79.5675 59.5909C79.4027 59.75 79.1911 59.8821 78.9325 59.9872C78.674 60.0923 78.3643 60.1449 78.0036 60.1449ZM78.2805 59.1222C78.6328 59.1222 78.9339 59.0526 79.1839 58.9134C79.4368 58.7741 79.6286 58.5923 79.7592 58.3679C79.8928 58.1406 79.9595 57.8977 79.9595 57.6392V56.7955C79.9141 56.8409 79.826 56.8835 79.6953 56.9233C79.5675 56.9602 79.4212 56.9929 79.2564 57.0213C79.0916 57.0469 78.9311 57.071 78.7749 57.0938C78.6186 57.1136 78.4879 57.1307 78.3828 57.1449C78.1357 57.1761 77.9098 57.2287 77.7053 57.3026C77.5036 57.3764 77.3416 57.483 77.2195 57.6222C77.1001 57.7585 77.0405 57.9403 77.0405 58.1676C77.0405 58.483 77.157 58.7216 77.3899 58.8835C77.6229 59.0426 77.9197 59.1222 78.2805 59.1222ZM84.2049 56.1136V60H82.9308V53.4545H84.1538V54.5199H84.2347C84.3853 54.1733 84.6211 53.8949 84.9421 53.6847C85.266 53.4744 85.6737 53.3693 86.1651 53.3693C86.6112 53.3693 87.0018 53.4631 87.337 53.6506C87.6722 53.8352 87.9322 54.1108 88.1168 54.4773C88.3015 54.8437 88.3938 55.2969 88.3938 55.8366V60H87.1197V55.9901C87.1197 55.5156 86.9961 55.1449 86.7489 54.8778C86.5018 54.608 86.1623 54.473 85.7305 54.473C85.435 54.473 85.1722 54.5369 84.9421 54.6648C84.7148 54.7926 84.5344 54.9801 84.4009 55.2273C84.2702 55.4716 84.2049 55.767 84.2049 56.1136ZM92.8597 60.1321C92.2262 60.1321 91.6808 59.9886 91.2234 59.7017C90.7688 59.4119 90.4194 59.0128 90.1751 58.5043C89.9308 57.9957 89.8086 57.4134 89.8086 56.7571C89.8086 56.0923 89.9336 55.5057 90.1836 54.9972C90.4336 54.4858 90.7859 54.0866 91.2404 53.7997C91.695 53.5128 92.2305 53.3693 92.8469 53.3693C93.3441 53.3693 93.7873 53.4616 94.1765 53.6463C94.5657 53.8281 94.8796 54.0838 95.1183 54.4134C95.3597 54.7429 95.5032 55.1278 95.5487 55.5682H94.3086C94.2404 55.2614 94.0842 54.9972 93.8398 54.7756C93.5984 54.554 93.2745 54.4432 92.8683 54.4432C92.5131 54.4432 92.2021 54.5369 91.935 54.7244C91.6708 54.9091 91.4648 55.1733 91.3171 55.517C91.1694 55.858 91.0955 56.2614 91.0955 56.7273C91.0955 57.2045 91.168 57.6165 91.3129 57.9631C91.4577 58.3097 91.6623 58.5781 91.9265 58.7685C92.1935 58.9588 92.5075 59.054 92.8683 59.054C93.1097 59.054 93.3285 59.0099 93.5245 58.9219C93.7234 58.831 93.8896 58.7017 94.0231 58.5341C94.1594 58.3665 94.2546 58.1648 94.3086 57.929H95.5487C95.5032 58.3523 95.3654 58.7301 95.1353 59.0625C94.9052 59.3949 94.5969 59.6562 94.2106 59.8466C93.8271 60.0369 93.3768 60.1321 92.8597 60.1321ZM99.7322 60.1321C99.0874 60.1321 98.532 59.9943 98.0661 59.7188C97.603 59.4403 97.245 59.0497 96.9922 58.5469C96.7422 58.0412 96.6172 57.4489 96.6172 56.7699C96.6172 56.0994 96.7422 55.5085 96.9922 54.9972C97.245 54.4858 97.5973 54.0866 98.049 53.7997C98.5036 53.5128 99.0348 53.3693 99.6428 53.3693C100.012 53.3693 100.37 53.4304 100.717 53.5526C101.063 53.6747 101.374 53.8665 101.65 54.1278C101.925 54.3892 102.143 54.7287 102.302 55.1463C102.461 55.5611 102.54 56.0653 102.54 56.6591V57.1108H97.3374V56.1562H101.292C101.292 55.821 101.224 55.5241 101.087 55.2656C100.951 55.0043 100.759 54.7983 100.512 54.6477C100.268 54.4972 99.9808 54.4219 99.6513 54.4219C99.2933 54.4219 98.9808 54.5099 98.7138 54.6861C98.4496 54.8594 98.245 55.0866 98.1001 55.3679C97.9581 55.6463 97.8871 55.9489 97.8871 56.2756V57.0213C97.8871 57.4588 97.9638 57.831 98.1172 58.1378C98.2734 58.4446 98.4908 58.679 98.7692 58.8409C99.0476 59 99.3729 59.0795 99.745 59.0795C99.9865 59.0795 100.207 59.0455 100.406 58.9773C100.604 58.9062 100.776 58.8011 100.921 58.6619C101.066 58.5227 101.177 58.3509 101.254 58.1463L102.46 58.3636C102.363 58.7187 102.19 59.0298 101.94 59.2969C101.692 59.5611 101.381 59.767 101.006 59.9148C100.634 60.0597 100.21 60.1321 99.7322 60.1321ZM109.874 62.5909C109.354 62.5909 108.907 62.5227 108.532 62.3864C108.16 62.25 107.856 62.0696 107.62 61.8452C107.384 61.6207 107.208 61.375 107.092 61.108L108.187 60.6562C108.263 60.7812 108.366 60.9134 108.494 61.0526C108.624 61.1946 108.8 61.3153 109.022 61.4148C109.246 61.5142 109.535 61.5639 109.887 61.5639C110.37 61.5639 110.769 61.446 111.085 61.2102C111.4 60.9773 111.558 60.6051 111.558 60.0938V58.8068H111.477C111.4 58.946 111.289 59.1009 111.144 59.2713C111.002 59.4418 110.806 59.5895 110.556 59.7145C110.306 59.8395 109.981 59.902 109.58 59.902C109.063 59.902 108.597 59.7812 108.183 59.5398C107.771 59.2955 107.444 58.9361 107.202 58.4616C106.964 57.9844 106.844 57.3977 106.844 56.7017C106.844 56.0057 106.962 55.4091 107.198 54.9119C107.437 54.4148 107.763 54.0341 108.178 53.7699C108.593 53.5028 109.063 53.3693 109.589 53.3693C109.995 53.3693 110.323 53.4375 110.573 53.5739C110.823 53.7074 111.018 53.8636 111.157 54.0426C111.299 54.2216 111.408 54.3793 111.485 54.5156H111.579V53.4545H112.827V60.1449C112.827 60.7074 112.697 61.169 112.435 61.5298C112.174 61.8906 111.82 62.1577 111.374 62.331C110.931 62.5043 110.431 62.5909 109.874 62.5909ZM109.862 58.8452C110.228 58.8452 110.538 58.7599 110.79 58.5895C111.046 58.4162 111.239 58.169 111.37 57.848C111.504 57.5241 111.57 57.1364 111.57 56.6847C111.57 56.2443 111.505 55.8565 111.374 55.5213C111.244 55.1861 111.052 54.9247 110.799 54.7372C110.546 54.5469 110.234 54.4517 109.862 54.4517C109.478 54.4517 109.158 54.5511 108.903 54.75C108.647 54.946 108.454 55.2131 108.323 55.5511C108.195 55.8892 108.131 56.267 108.131 56.6847C108.131 57.1136 108.197 57.4901 108.327 57.8139C108.458 58.1378 108.651 58.3906 108.907 58.5724C109.165 58.7543 109.484 58.8452 109.862 58.8452ZM114.536 60V53.4545H115.768V54.4943H115.836C115.955 54.142 116.165 53.8651 116.467 53.6634C116.771 53.4588 117.114 53.3565 117.498 53.3565C117.577 53.3565 117.671 53.3594 117.779 53.3651C117.89 53.3707 117.977 53.3778 118.039 53.3864V54.6051C117.988 54.5909 117.897 54.5753 117.766 54.5582C117.636 54.5384 117.505 54.5284 117.374 54.5284C117.073 54.5284 116.805 54.5923 116.569 54.7202C116.336 54.8452 116.151 55.0199 116.015 55.2443C115.879 55.4659 115.81 55.7187 115.81 56.0028V60H114.536ZM120.988 60.1449C120.573 60.1449 120.198 60.0682 119.863 59.9148C119.528 59.7585 119.262 59.5327 119.066 59.2372C118.873 58.9418 118.776 58.5795 118.776 58.1506C118.776 57.7812 118.847 57.4773 118.989 57.2386C119.131 57 119.323 56.8111 119.565 56.6719C119.806 56.5327 120.076 56.4276 120.374 56.3565C120.673 56.2855 120.977 56.2315 121.286 56.1946C121.678 56.1491 121.996 56.1122 122.241 56.0838C122.485 56.0526 122.663 56.0028 122.773 55.9347C122.884 55.8665 122.94 55.7557 122.94 55.6023V55.5724C122.94 55.2003 122.835 54.9119 122.624 54.7074C122.417 54.5028 122.107 54.4006 121.695 54.4006C121.266 54.4006 120.928 54.4957 120.681 54.6861C120.437 54.8736 120.268 55.0824 120.174 55.3125L118.977 55.0398C119.119 54.642 119.326 54.321 119.599 54.0767C119.874 53.8295 120.191 53.6506 120.549 53.5398C120.907 53.4261 121.283 53.3693 121.678 53.3693C121.94 53.3693 122.217 53.4006 122.509 53.4631C122.805 53.5227 123.08 53.6335 123.336 53.7955C123.594 53.9574 123.806 54.1889 123.971 54.4901C124.136 54.7884 124.218 55.1761 124.218 55.6534V60H122.974V59.1051H122.923C122.84 59.2699 122.717 59.4318 122.552 59.5909C122.387 59.75 122.175 59.8821 121.917 59.9872C121.658 60.0923 121.349 60.1449 120.988 60.1449ZM121.265 59.1222C121.617 59.1222 121.918 59.0526 122.168 58.9134C122.421 58.7741 122.613 58.5923 122.744 58.3679C122.877 58.1406 122.944 57.8977 122.944 57.6392V56.7955C122.898 56.8409 122.81 56.8835 122.68 56.9233C122.552 56.9602 122.406 56.9929 122.241 57.0213C122.076 57.0469 121.915 57.071 121.759 57.0938C121.603 57.1136 121.472 57.1307 121.367 57.1449C121.12 57.1761 120.894 57.2287 120.69 57.3026C120.488 57.3764 120.326 57.483 120.204 57.6222C120.085 57.7585 120.025 57.9403 120.025 58.1676C120.025 58.483 120.141 58.7216 120.374 58.8835C120.607 59.0426 120.904 59.1222 121.265 59.1222ZM128.365 60.1278C127.837 60.1278 127.365 59.9929 126.951 59.723C126.539 59.4503 126.215 59.0625 125.979 58.5597C125.746 58.054 125.63 57.4474 125.63 56.7401C125.63 56.0327 125.748 55.4276 125.983 54.9247C126.222 54.4219 126.549 54.0369 126.963 53.7699C127.378 53.5028 127.848 53.3693 128.374 53.3693C128.78 53.3693 129.107 53.4375 129.354 53.5739C129.604 53.7074 129.797 53.8636 129.934 54.0426C130.073 54.2216 130.181 54.3793 130.257 54.5156H130.334V51.2727H131.608V60H130.364V58.9815H130.257C130.181 59.1207 130.07 59.2798 129.925 59.4588C129.783 59.6378 129.587 59.794 129.337 59.9276C129.087 60.0611 128.763 60.1278 128.365 60.1278ZM128.647 59.0412C129.013 59.0412 129.323 58.9446 129.576 58.7514C129.831 58.5554 130.025 58.2841 130.155 57.9375C130.289 57.5909 130.355 57.1875 130.355 56.7273C130.355 56.2727 130.29 55.875 130.159 55.5341C130.029 55.1932 129.837 54.9276 129.584 54.7372C129.331 54.5469 129.019 54.4517 128.647 54.4517C128.263 54.4517 127.944 54.5511 127.688 54.75C127.432 54.9489 127.239 55.2202 127.108 55.5639C126.98 55.9077 126.917 56.2955 126.917 56.7273C126.917 57.1648 126.982 57.5582 127.113 57.9077C127.243 58.2571 127.436 58.5341 127.692 58.7386C127.951 58.9403 128.269 59.0412 128.647 59.0412ZM136.248 60.1321C135.603 60.1321 135.048 59.9943 134.582 59.7188C134.119 59.4403 133.761 59.0497 133.508 58.5469C133.258 58.0412 133.133 57.4489 133.133 56.7699C133.133 56.0994 133.258 55.5085 133.508 54.9972C133.761 54.4858 134.113 54.0866 134.565 53.7997C135.019 53.5128 135.55 53.3693 136.158 53.3693C136.528 53.3693 136.886 53.4304 137.232 53.5526C137.579 53.6747 137.89 53.8665 138.165 54.1278C138.441 54.3892 138.658 54.7287 138.817 55.1463C138.977 55.5611 139.056 56.0653 139.056 56.6591V57.1108H133.853V56.1562H137.808C137.808 55.821 137.739 55.5241 137.603 55.2656C137.467 55.0043 137.275 54.7983 137.028 54.6477C136.783 54.4972 136.496 54.4219 136.167 54.4219C135.809 54.4219 135.496 54.5099 135.229 54.6861C134.965 54.8594 134.761 55.0866 134.616 55.3679C134.474 55.6463 134.403 55.9489 134.403 56.2756V57.0213C134.403 57.4588 134.479 57.831 134.633 58.1378C134.789 58.4446 135.006 58.679 135.285 58.8409C135.563 59 135.888 59.0795 136.261 59.0795C136.502 59.0795 136.722 59.0455 136.921 58.9773C137.12 58.9062 137.292 58.8011 137.437 58.6619C137.582 58.5227 137.692 58.3509 137.769 58.1463L138.975 58.3636C138.879 58.7187 138.705 59.0298 138.455 59.2969C138.208 59.5611 137.897 59.767 137.522 59.9148C137.15 60.0597 136.725 60.1321 136.248 60.1321Z" fill="#1C2525"/>
<path d="M61.8253 92L68.0114 79.7557V79.6562H60.831V77.4545H70.7386V79.706L64.5597 92H61.8253ZM77.9084 92.1989C76.8525 92.1989 75.915 92.0213 75.0959 91.6662C74.2815 91.3111 73.6423 90.8258 73.1783 90.2102C72.719 89.59 72.4917 88.8868 72.4964 88.1009C72.4917 87.4901 72.6243 86.929 72.8942 86.4176C73.1641 85.9062 73.5286 85.4801 73.9879 85.1392C74.4519 84.7936 74.968 84.5734 75.5362 84.4787V84.3793C74.7881 84.2135 74.1821 83.8324 73.718 83.2358C73.2588 82.6345 73.0315 81.9408 73.0362 81.1548C73.0315 80.4067 73.2398 79.7391 73.6612 79.152C74.0826 78.5649 74.6603 78.1032 75.3942 77.767C76.1281 77.4261 76.9661 77.2557 77.9084 77.2557C78.8411 77.2557 79.6721 77.4261 80.4013 77.767C81.1352 78.1032 81.7128 78.5649 82.1342 79.152C82.5604 79.7391 82.7734 80.4067 82.7734 81.1548C82.7734 81.9408 82.5391 82.6345 82.0703 83.2358C81.6063 83.8324 81.0073 84.2135 80.2734 84.3793V84.4787C80.8416 84.5734 81.353 84.7936 81.8075 85.1392C82.2668 85.4801 82.6314 85.9062 82.9013 86.4176C83.1759 86.929 83.3132 87.4901 83.3132 88.1009C83.3132 88.8868 83.0812 89.59 82.6172 90.2102C82.1532 90.8258 81.514 91.3111 80.6996 91.6662C79.8899 92.0213 78.9595 92.1989 77.9084 92.1989ZM77.9084 90.1676C78.4529 90.1676 78.9264 90.0753 79.3288 89.8906C79.7313 89.7012 80.0438 89.4361 80.2663 89.0952C80.4889 88.7543 80.6025 88.3613 80.6072 87.9162C80.6025 87.4522 80.4818 87.0426 80.245 86.6875C80.013 86.3277 79.6934 86.0459 79.2862 85.8423C78.8838 85.6387 78.4245 85.5369 77.9084 85.5369C77.3875 85.5369 76.9235 85.6387 76.5163 85.8423C76.1091 86.0459 75.7872 86.3277 75.5504 86.6875C75.3184 87.0426 75.2048 87.4522 75.2095 87.9162C75.2048 88.3613 75.3137 88.7543 75.5362 89.0952C75.7588 89.4313 76.0713 89.6941 76.4737 89.8835C76.8809 90.0729 77.3591 90.1676 77.9084 90.1676ZM77.9084 83.5412C78.3535 83.5412 78.7464 83.4512 79.0874 83.2713C79.433 83.0914 79.7053 82.8404 79.9041 82.5185C80.103 82.1965 80.2048 81.8248 80.2095 81.4034C80.2048 80.9867 80.1054 80.6222 79.9112 80.3097C79.7171 79.9924 79.4472 79.7486 79.1016 79.5781C78.7559 79.4029 78.3582 79.3153 77.9084 79.3153C77.4491 79.3153 77.0443 79.4029 76.6939 79.5781C76.3482 79.7486 76.0784 79.9924 75.8842 80.3097C75.6948 80.6222 75.6025 80.9867 75.6072 81.4034C75.6025 81.8248 75.6972 82.1965 75.8913 82.5185C76.0902 82.8357 76.3625 83.0866 76.7081 83.2713C77.0585 83.4512 77.4586 83.5412 77.9084 83.5412Z" fill="#00ABB3"/>
<path d="M88.5359 82.8636L85.7234 93.3125H84.5856L87.3981 82.8636H88.5359ZM92.9123 83.2727V92H91.5913V84.5938H91.5401L89.4521 85.9574V84.696L91.6296 83.2727H92.9123ZM98.3114 92.1449C97.6381 92.142 97.0629 91.9645 96.5856 91.6122C96.1083 91.2599 95.7433 90.7472 95.4904 90.0739C95.2376 89.4006 95.1112 88.5895 95.1112 87.6406C95.1112 86.6946 95.2376 85.8864 95.4904 85.2159C95.7461 84.5455 96.1126 84.0341 96.5898 83.6818C97.07 83.3295 97.6438 83.1534 98.3114 83.1534C98.979 83.1534 99.5515 83.331 100.029 83.6861C100.506 84.0384 100.871 84.5497 101.124 85.2202C101.38 85.8878 101.507 86.6946 101.507 87.6406C101.507 88.5923 101.381 89.4048 101.128 90.0781C100.875 90.7486 100.51 91.2614 100.033 91.6165C99.5558 91.9688 98.9819 92.1449 98.3114 92.1449ZM98.3114 91.0071C98.9023 91.0071 99.364 90.7188 99.6964 90.142C100.032 89.5653 100.199 88.7315 100.199 87.6406C100.199 86.9162 100.123 86.304 99.9691 85.804C99.8185 85.3011 99.6012 84.9205 99.3171 84.6619C99.0359 84.4006 98.7006 84.2699 98.3114 84.2699C97.7234 84.2699 97.2617 84.5597 96.9265 85.1392C96.5913 85.7187 96.4222 86.5526 96.4194 87.6406C96.4194 88.3679 96.4947 88.983 96.6452 89.4858C96.7987 89.9858 97.016 90.3651 97.2972 90.6236C97.5785 90.8793 97.9165 91.0071 98.3114 91.0071ZM106.058 92.1449C105.384 92.142 104.809 91.9645 104.332 91.6122C103.854 91.2599 103.489 90.7472 103.237 90.0739C102.984 89.4006 102.857 88.5895 102.857 87.6406C102.857 86.6946 102.984 85.8864 103.237 85.2159C103.492 84.5455 103.859 84.0341 104.336 83.6818C104.816 83.3295 105.39 83.1534 106.058 83.1534C106.725 83.1534 107.298 83.331 107.775 83.6861C108.252 84.0384 108.617 84.5497 108.87 85.2202C109.126 85.8878 109.254 86.6946 109.254 87.6406C109.254 88.5923 109.127 89.4048 108.874 90.0781C108.621 90.7486 108.256 91.2614 107.779 91.6165C107.302 91.9688 106.728 92.1449 106.058 92.1449ZM106.058 91.0071C106.648 91.0071 107.11 90.7188 107.442 90.142C107.778 89.5653 107.945 88.7315 107.945 87.6406C107.945 86.9162 107.869 86.304 107.715 85.804C107.565 85.3011 107.347 84.9205 107.063 84.6619C106.782 84.4006 106.447 84.2699 106.058 84.2699C105.469 84.2699 105.008 84.5597 104.673 85.1392C104.337 85.7187 104.168 86.5526 104.165 87.6406C104.165 88.3679 104.241 88.983 104.391 89.4858C104.545 89.9858 104.762 90.3651 105.043 90.6236C105.325 90.8793 105.663 91.0071 106.058 91.0071Z" fill="#1C2525"/>
<g filter="url(#filter2_d_213_4066)">
<rect x="168" y="30" width="135" height="86" rx="8" fill="#FEFEFE"/>
</g>
<path d="M206.146 60V51.2727H207.463V58.8665H211.418V60H206.146ZM215.575 60.1321C214.961 60.1321 214.425 59.9915 213.968 59.7102C213.511 59.429 213.156 59.0355 212.903 58.5298C212.65 58.0241 212.523 57.4332 212.523 56.7571C212.523 56.0781 212.65 55.4844 212.903 54.9759C213.156 54.4673 213.511 54.0724 213.968 53.7912C214.425 53.5099 214.961 53.3693 215.575 53.3693C216.188 53.3693 216.724 53.5099 217.181 53.7912C217.638 54.0724 217.994 54.4673 218.246 54.9759C218.499 55.4844 218.626 56.0781 218.626 56.7571C218.626 57.4332 218.499 58.0241 218.246 58.5298C217.994 59.0355 217.638 59.429 217.181 59.7102C216.724 59.9915 216.188 60.1321 215.575 60.1321ZM215.579 59.0625C215.977 59.0625 216.306 58.9574 216.567 58.7472C216.829 58.5369 217.022 58.2571 217.147 57.9077C217.275 57.5582 217.339 57.1733 217.339 56.7528C217.339 56.3352 217.275 55.9517 217.147 55.6023C217.022 55.25 216.829 54.9673 216.567 54.7543C216.306 54.5412 215.977 54.4347 215.579 54.4347C215.178 54.4347 214.846 54.5412 214.582 54.7543C214.32 54.9673 214.126 55.25 213.998 55.6023C213.873 55.9517 213.81 56.3352 213.81 56.7528C213.81 57.1733 213.873 57.5582 213.998 57.9077C214.126 58.2571 214.32 58.5369 214.582 58.7472C214.846 58.9574 215.178 59.0625 215.579 59.0625ZM221.953 60.1449C221.538 60.1449 221.163 60.0682 220.828 59.9148C220.493 59.7585 220.227 59.5327 220.031 59.2372C219.838 58.9418 219.741 58.5795 219.741 58.1506C219.741 57.7812 219.812 57.4773 219.954 57.2386C220.096 57 220.288 56.8111 220.529 56.6719C220.771 56.5327 221.041 56.4276 221.339 56.3565C221.637 56.2855 221.941 56.2315 222.251 56.1946C222.643 56.1491 222.961 56.1122 223.206 56.0838C223.45 56.0526 223.627 56.0028 223.738 55.9347C223.849 55.8665 223.904 55.7557 223.904 55.6023V55.5724C223.904 55.2003 223.799 54.9119 223.589 54.7074C223.382 54.5028 223.072 54.4006 222.66 54.4006C222.231 54.4006 221.893 54.4957 221.646 54.6861C221.402 54.8736 221.233 55.0824 221.139 55.3125L219.941 55.0398C220.083 54.642 220.291 54.321 220.564 54.0767C220.839 53.8295 221.156 53.6506 221.514 53.5398C221.872 53.4261 222.248 53.3693 222.643 53.3693C222.904 53.3693 223.181 53.4006 223.474 53.4631C223.77 53.5227 224.045 53.6335 224.301 53.7955C224.559 53.9574 224.771 54.1889 224.936 54.4901C225.1 54.7884 225.183 55.1761 225.183 55.6534V60H223.939V59.1051H223.887C223.805 59.2699 223.681 59.4318 223.517 59.5909C223.352 59.75 223.14 59.8821 222.882 59.9872C222.623 60.0923 222.314 60.1449 221.953 60.1449ZM222.23 59.1222C222.582 59.1222 222.883 59.0526 223.133 58.9134C223.386 58.7741 223.578 58.5923 223.708 58.3679C223.842 58.1406 223.909 57.8977 223.909 57.6392V56.7955C223.863 56.8409 223.775 56.8835 223.645 56.9233C223.517 56.9602 223.37 56.9929 223.206 57.0213C223.041 57.0469 222.88 57.071 222.724 57.0938C222.568 57.1136 222.437 57.1307 222.332 57.1449C222.085 57.1761 221.859 57.2287 221.654 57.3026C221.453 57.3764 221.291 57.483 221.169 57.6222C221.049 57.7585 220.99 57.9403 220.99 58.1676C220.99 58.483 221.106 58.7216 221.339 58.8835C221.572 59.0426 221.869 59.1222 222.23 59.1222ZM229.33 60.1278C228.802 60.1278 228.33 59.9929 227.915 59.723C227.504 59.4503 227.18 59.0625 226.944 58.5597C226.711 58.054 226.594 57.4474 226.594 56.7401C226.594 56.0327 226.712 55.4276 226.948 54.9247C227.187 54.4219 227.513 54.0369 227.928 53.7699C228.343 53.5028 228.813 53.3693 229.339 53.3693C229.745 53.3693 230.072 53.4375 230.319 53.5739C230.569 53.7074 230.762 53.8636 230.898 54.0426C231.038 54.2216 231.146 54.3793 231.222 54.5156H231.299V51.2727H232.573V60H231.329V58.9815H231.222C231.146 59.1207 231.035 59.2798 230.89 59.4588C230.748 59.6378 230.552 59.794 230.302 59.9276C230.052 60.0611 229.728 60.1278 229.33 60.1278ZM229.612 59.0412C229.978 59.0412 230.288 58.9446 230.54 58.7514C230.796 58.5554 230.989 58.2841 231.12 57.9375C231.254 57.5909 231.32 57.1875 231.32 56.7273C231.32 56.2727 231.255 55.875 231.124 55.5341C230.994 55.1932 230.802 54.9276 230.549 54.7372C230.296 54.5469 229.984 54.4517 229.612 54.4517C229.228 54.4517 228.908 54.5511 228.653 54.75C228.397 54.9489 228.204 55.2202 228.073 55.5639C227.945 55.9077 227.881 56.2955 227.881 56.7273C227.881 57.1648 227.947 57.5582 228.077 57.9077C228.208 58.2571 228.401 58.5341 228.657 58.7386C228.915 58.9403 229.234 59.0412 229.612 59.0412ZM240.623 53.4545V54.4773H237.048V53.4545H240.623ZM238.006 51.8864H239.281V58.0781C239.281 58.3253 239.317 58.5114 239.391 58.6364C239.465 58.7585 239.56 58.8423 239.677 58.8878C239.796 58.9304 239.925 58.9517 240.065 58.9517C240.167 58.9517 240.256 58.9446 240.333 58.9304C240.41 58.9162 240.469 58.9048 240.512 58.8963L240.742 59.9489C240.668 59.9773 240.563 60.0057 240.427 60.0341C240.29 60.0653 240.12 60.0824 239.915 60.0852C239.58 60.0909 239.268 60.0312 238.978 59.9062C238.688 59.7812 238.454 59.5881 238.275 59.3267C238.096 59.0653 238.006 58.7372 238.006 58.3423V51.8864ZM242.032 60V53.4545H243.306V60H242.032ZM242.676 52.4446C242.454 52.4446 242.264 52.3707 242.105 52.223C241.949 52.0724 241.87 51.8935 241.87 51.6861C241.87 51.4759 241.949 51.2969 242.105 51.1491C242.264 50.9986 242.454 50.9233 242.676 50.9233C242.897 50.9233 243.086 50.9986 243.243 51.1491C243.402 51.2969 243.481 51.4759 243.481 51.6861C243.481 51.8935 243.402 52.0724 243.243 52.223C243.086 52.3707 242.897 52.4446 242.676 52.4446ZM245.021 60V53.4545H246.244V54.5199H246.325C246.461 54.1591 246.684 53.8778 246.994 53.6761C247.303 53.4716 247.674 53.3693 248.106 53.3693C248.543 53.3693 248.91 53.4716 249.205 53.6761C249.504 53.8807 249.724 54.1619 249.866 54.5199H249.934C250.09 54.1705 250.339 53.892 250.68 53.6847C251.021 53.4744 251.427 53.3693 251.898 53.3693C252.492 53.3693 252.977 53.5554 253.352 53.9276C253.729 54.2997 253.918 54.8608 253.918 55.6108V60H252.644V55.7301C252.644 55.2869 252.523 54.9659 252.282 54.767C252.04 54.5682 251.752 54.4688 251.417 54.4688C251.002 54.4688 250.68 54.5966 250.45 54.8523C250.219 55.1051 250.104 55.4304 250.104 55.8281V60H248.835V55.6491C248.835 55.294 248.724 55.0085 248.502 54.7926C248.281 54.5767 247.992 54.4688 247.637 54.4688C247.396 54.4688 247.173 54.5327 246.968 54.6605C246.766 54.7855 246.603 54.9602 246.478 55.1847C246.356 55.4091 246.295 55.669 246.295 55.9645V60H245.021ZM258.447 60.1321C257.802 60.1321 257.247 59.9943 256.781 59.7188C256.318 59.4403 255.96 59.0497 255.707 58.5469C255.457 58.0412 255.332 57.4489 255.332 56.7699C255.332 56.0994 255.457 55.5085 255.707 54.9972C255.96 54.4858 256.312 54.0866 256.764 53.7997C257.218 53.5128 257.75 53.3693 258.358 53.3693C258.727 53.3693 259.085 53.4304 259.431 53.5526C259.778 53.6747 260.089 53.8665 260.365 54.1278C260.64 54.3892 260.858 54.7287 261.017 55.1463C261.176 55.5611 261.255 56.0653 261.255 56.6591V57.1108H256.052V56.1562H260.007C260.007 55.821 259.939 55.5241 259.802 55.2656C259.666 55.0043 259.474 54.7983 259.227 54.6477C258.983 54.4972 258.696 54.4219 258.366 54.4219C258.008 54.4219 257.696 54.5099 257.429 54.6861C257.164 54.8594 256.96 55.0866 256.815 55.3679C256.673 55.6463 256.602 55.9489 256.602 56.2756V57.0213C256.602 57.4588 256.679 57.831 256.832 58.1378C256.988 58.4446 257.206 58.679 257.484 58.8409C257.762 59 258.088 59.0795 258.46 59.0795C258.701 59.0795 258.922 59.0455 259.12 58.9773C259.319 58.9062 259.491 58.8011 259.636 58.6619C259.781 58.5227 259.892 58.3509 259.968 58.1463L261.174 58.3636C261.078 58.7187 260.904 59.0298 260.654 59.2969C260.407 59.5611 260.096 59.767 259.721 59.9148C259.349 60.0597 258.924 60.1321 258.447 60.1321Z" fill="#1C2525"/>
<path d="M215.349 92.1989C214.402 92.1989 213.555 92.0213 212.807 91.6662C212.059 91.3063 211.464 90.8139 211.024 90.1889C210.589 89.5639 210.357 88.849 210.328 88.044H212.885C212.932 88.6406 213.19 89.1283 213.659 89.5071C214.128 89.8812 214.691 90.0682 215.349 90.0682C215.866 90.0682 216.325 89.9498 216.727 89.7131C217.13 89.4763 217.447 89.1473 217.679 88.7259C217.911 88.3045 218.025 87.8239 218.02 87.2841C218.025 86.7348 217.909 86.2472 217.672 85.821C217.435 85.3949 217.111 85.0611 216.699 84.8196C216.287 84.5734 215.813 84.4503 215.278 84.4503C214.843 84.4455 214.414 84.526 213.993 84.6918C213.571 84.8575 213.238 85.0753 212.991 85.3452L210.612 84.9545L211.372 77.4545H219.81V79.6562H213.553L213.134 83.5128H213.219C213.489 83.1955 213.87 82.9328 214.362 82.7244C214.855 82.5114 215.394 82.4048 215.982 82.4048C216.862 82.4048 217.648 82.6132 218.339 83.0298C219.031 83.4418 219.575 84.0099 219.973 84.7344C220.371 85.4588 220.57 86.2874 220.57 87.2202C220.57 88.1813 220.347 89.0384 219.902 89.7912C219.462 90.5393 218.848 91.1288 218.062 91.5597C217.281 91.9858 216.377 92.1989 215.349 92.1989ZM228.865 77.4545V92H226.23V80.0185H226.145L222.743 82.1918V79.777L226.358 77.4545H228.865ZM232.295 89.3011V87.206L238.467 77.4545H240.214V80.4375H239.149L234.994 87.0213V87.1349H243.609V89.3011H232.295ZM239.234 92V88.6619L239.263 87.7244V77.4545H241.749V92H239.234Z" fill="#F71010"/>
<path d="M248.766 82.8636L245.954 93.3125H244.816L247.629 82.8636H248.766ZM249.849 92V85.4545H251.072V86.5199H251.153C251.289 86.1591 251.512 85.8778 251.822 85.6761C252.131 85.4716 252.502 85.3693 252.934 85.3693C253.371 85.3693 253.738 85.4716 254.033 85.6761C254.332 85.8807 254.552 86.1619 254.694 86.5199H254.762C254.918 86.1705 255.167 85.892 255.508 85.6847C255.849 85.4744 256.255 85.3693 256.727 85.3693C257.32 85.3693 257.805 85.5554 258.18 85.9276C258.558 86.2997 258.746 86.8608 258.746 87.6108V92H257.472V87.7301C257.472 87.2869 257.352 86.9659 257.11 86.767C256.869 86.5682 256.58 86.4688 256.245 86.4688C255.83 86.4688 255.508 86.5966 255.278 86.8523C255.048 87.1051 254.933 87.4304 254.933 87.8281V92H253.663V87.6491C253.663 87.294 253.552 87.0085 253.33 86.7926C253.109 86.5767 252.82 86.4688 252.465 86.4688C252.224 86.4688 252.001 86.5327 251.796 86.6605C251.594 86.7855 251.431 86.9602 251.306 87.1847C251.184 87.4091 251.123 87.669 251.123 87.9645V92H249.849ZM265.359 87.0526L264.204 87.2571C264.156 87.1094 264.079 86.9687 263.974 86.8352C263.872 86.7017 263.733 86.5923 263.556 86.5071C263.38 86.4219 263.16 86.3793 262.896 86.3793C262.535 86.3793 262.234 86.4602 261.993 86.6222C261.751 86.7812 261.63 86.9872 261.63 87.2401C261.63 87.4588 261.711 87.6349 261.873 87.7685C262.035 87.902 262.297 88.0114 262.657 88.0966L263.697 88.3352C264.299 88.4744 264.748 88.6889 265.044 88.9787C265.339 89.2685 265.487 89.6449 265.487 90.108C265.487 90.5 265.373 90.8494 265.146 91.1562C264.922 91.4602 264.608 91.6989 264.204 91.8722C263.804 92.0455 263.339 92.1321 262.811 92.1321C262.078 92.1321 261.48 91.9759 261.017 91.6634C260.554 91.348 260.27 90.9006 260.164 90.321L261.396 90.1335C261.473 90.4545 261.63 90.6974 261.869 90.8622C262.108 91.0241 262.419 91.1051 262.802 91.1051C263.22 91.1051 263.554 91.0185 263.804 90.8452C264.054 90.669 264.179 90.4545 264.179 90.2017C264.179 89.9972 264.102 89.8253 263.949 89.6861C263.798 89.5469 263.566 89.4418 263.254 89.3707L262.146 89.1278C261.535 88.9886 261.083 88.767 260.791 88.4631C260.501 88.1591 260.356 87.7741 260.356 87.3082C260.356 86.9219 260.464 86.5838 260.68 86.294C260.896 86.0043 261.194 85.7784 261.575 85.6165C261.956 85.4517 262.392 85.3693 262.883 85.3693C263.591 85.3693 264.147 85.5227 264.554 85.8295C264.96 86.1335 265.228 86.5412 265.359 87.0526Z" fill="#1C2525"/>
<defs>
<filter id="filter0_d_213_4066" x="47.3613" y="126.361" width="372.279" height="187.277" filterUnits="userSpaceOnUse" color-interpolation-filters="sRGB">
<feFlood flood-opacity="0" result="BackgroundImageFix"/>
<feColorMatrix in="SourceAlpha" type="matrix" values="0 0 0 0 0 0 0 0 0 0 0 0 0 0 0 0 0 0 127 0" result="hardAlpha"/>
<feOffset dy="10"/>
<feGaussianBlur stdDeviation="8.5"/>
<feComposite in2="hardAlpha" operator="out"/>
<feColorMatrix type="matrix" values="0 0 0 0 0 0 0 0 0 0 0 0 0 0 0 0 0 0 0.02 0"/>
<feBlend mode="normal" in2="BackgroundImageFix" result="effect1_dropShadow_213_4066"/>
<feBlend mode="normal" in="SourceGraphic" in2="effect1_dropShadow_213_4066" result="shape"/>
</filter>
<filter id="filter1_d_213_4066" x="0" y="23" width="169" height="120" filterUnits="userSpaceOnUse" color-interpolation-filters="sRGB">
<feFlood flood-opacity="0" result="BackgroundImageFix"/>
<feColorMatrix in="SourceAlpha" type="matrix" values="0 0 0 0 0 0 0 0 0 0 0 0 0 0 0 0 0 0 127 0" result="hardAlpha"/>
<feOffset dy="10"/>
<feGaussianBlur stdDeviation="8.5"/>
<feComposite in2="hardAlpha" operator="out"/>
<feColorMatrix type="matrix" values="0 0 0 0 0 0 0 0 0 0 0 0 0 0 0 0 0 0 0.02 0"/>
<feBlend mode="normal" in2="BackgroundImageFix" result="effect1_dropShadow_213_4066"/>
<feBlend mode="normal" in="SourceGraphic" in2="effect1_dropShadow_213_4066" result="shape"/>
</filter>
<filter id="filter2_d_213_4066" x="151" y="23" width="169" height="120" filterUnits="userSpaceOnUse" color-interpolation-filters="sRGB">
<feFlood flood-opacity="0" result="BackgroundImageFix"/>
<feColorMatrix in="SourceAlpha" type="matrix" values="0 0 0 0 0 0 0 0 0 0 0 0 0 0 0 0 0 0 127 0" result="hardAlpha"/>
<feOffset dy="10"/>
<feGaussianBlur stdDeviation="8.5"/>
<feComposite in2="hardAlpha" operator="out"/>
<feColorMatrix type="matrix" values="0 0 0 0 0 0 0 0 0 0 0 0 0 0 0 0 0 0 0.02 0"/>
<feBlend mode="normal" in2="BackgroundImageFix" result="effect1_dropShadow_213_4066"/>
<feBlend mode="normal" in="SourceGraphic" in2="effect1_dropShadow_213_4066" result="shape"/>
</filter>
<clipPath id="clip0_213_4066">
<rect width="339" height="154" fill="white" transform="translate(64 133)"/>
</clipPath>
</defs>
</svg>
