<svg width="608" height="451" viewBox="0 0 608 451" fill="none" xmlns="http://www.w3.org/2000/svg">
<path opacity="0.73" d="M304 451C471.895 451 608 448.538 608 445.5C608 442.462 471.895 440 304 440C136.105 440 0 442.462 0 445.5C0 448.538 136.105 451 304 451Z" fill="#DEDFE3"/>
<path d="M560 14.8901V322.227C560 330.456 553.338 337.117 545.11 337.117H55.3041C47.0754 337.117 40.4141 330.456 40.4141 322.227V14.8901C40.4141 6.66136 47.0754 0 55.3041 0H545.11C553.338 0 560 6.66136 560 14.8901Z" fill="#FEFEFE"/>
<path d="M560 14.8901V20.8984H40.4141V14.8901C40.4141 6.66136 47.0754 0 55.3041 0H545.11C553.338 0 560 6.66136 560 14.8901Z" fill="#DEDFE3"/>
<path d="M533.375 15C533.272 15 533.17 15 533.067 14.8745C532.965 14.6234 532.965 14.3723 533.17 14.2468L543.42 5.08246C543.625 4.95692 543.83 4.95692 543.933 5.208C544.035 5.45908 544.035 5.71015 543.83 5.83569L533.58 15C533.477 15 533.477 15 533.375 15Z" fill="#40507F"/>
<path d="M543.626 15.283C543.524 15.283 543.524 15.283 543.422 15.1524L533.212 5.61753C533.008 5.48691 533.008 5.22569 533.11 4.96446C533.212 4.70323 533.416 4.70323 533.621 4.83384L543.83 14.3687C544.034 14.4993 544.034 14.7606 543.932 15.0218C543.83 15.283 543.728 15.283 543.626 15.283Z" fill="#40507F"/>
<path d="M515.71 15H506.29C506.145 15 506 14.7531 506 14.5062V5.49383C506 5.24692 506.145 5 506.29 5H515.71C515.855 5 516 5.24692 516 5.49383V14.5062C515.928 14.8765 515.855 15 515.71 15ZM506.507 14.1358H515.42V5.98766H506.507V14.1358Z" fill="#40507F"/>
<path d="M491.646 11H482.354C482.177 11 482 10.75 482 10.5C482 10.25 482.177 10 482.354 10H491.646C491.823 10 492 10.25 492 10.5C491.912 10.75 491.735 11 491.646 11Z" fill="#40507F"/>
<path d="M338.216 80.8503V199.187C338.216 209.767 329.595 218.388 319.016 218.388H96.1867C85.6069 218.388 76.9863 209.767 76.9863 199.187V80.8503C76.9863 70.2705 85.6069 61.6499 96.1867 61.6499H318.885C329.595 61.5193 338.216 70.1399 338.216 80.8503Z" fill="#00858C"/>
<path d="M338.218 86.9863H76.9883V88.2925H338.218V86.9863Z" fill="#E0DFE5"/>
<path d="M338.218 114.023V115.33H77.3801C77.2495 115.33 77.1189 115.199 76.9883 115.199V114.285C77.1189 114.154 77.2495 114.154 77.3801 114.154H338.218V114.023Z" fill="#E0DFE5"/>
<path d="M338.218 139.496V140.671C338.087 140.671 338.087 140.671 337.957 140.671H76.9883V139.365H337.957C338.087 139.365 338.087 139.365 338.218 139.496Z" fill="#E0DFE5"/>
<path d="M338.218 166.404V167.71H77.2495C77.1189 167.71 77.1189 167.71 76.9883 167.71V166.535C77.1189 166.535 77.1189 166.535 77.2495 166.535H338.218V166.404Z" fill="#E0DFE5"/>
<path d="M338.218 193.443V194.619C338.087 194.619 338.087 194.619 337.957 194.619H76.9883V193.312H337.957C338.087 193.443 338.087 193.443 338.218 193.443Z" fill="#E0DFE5"/>
<path d="M104.292 61.5176H102.986V218.386H104.292V61.5176Z" fill="#E0DFE5"/>
<path d="M131.325 61.5176H130.019V218.386H131.325V61.5176Z" fill="#E0DFE5"/>
<path d="M156.665 61.5176H155.359V218.386H156.665V61.5176Z" fill="#E0DFE5"/>
<path d="M183.704 61.5176H182.398V218.386H183.704V61.5176Z" fill="#E0DFE5"/>
<path d="M210.613 61.5176H209.306V218.386H210.613V61.5176Z" fill="#E0DFE5"/>
<path d="M236.863 61.5176H235.557V218.386H236.863V61.5176Z" fill="#E0DFE5"/>
<path d="M263.896 61.5176H262.59V218.386H263.896V61.5176Z" fill="#E0DFE5"/>
<path d="M289.369 61.5176H288.062V218.386H289.369V61.5176Z" fill="#E0DFE5"/>
<path d="M316.277 61.5176H314.971V218.386H316.277V61.5176Z" fill="#E0DFE5"/>
<path d="M387.846 268.02H197.801C194.405 268.02 191.793 265.277 191.793 262.012V155.299C191.793 151.903 194.536 149.291 197.801 149.291H387.846C391.242 149.291 393.854 152.034 393.854 155.299V262.012C393.854 265.277 391.242 268.02 387.846 268.02Z" fill="#F4F5F9"/>
<path d="M243.515 214.6H231.629V247.253H243.515V214.6Z" fill="#E8E9E9"/>
<path d="M352.322 214.6H340.436V247.253H352.322V214.6Z" fill="#E8E9E9"/>
<path d="M376.886 214.6H365V247.253H376.886V214.6Z" fill="#E8E9E9"/>
<path d="M270.685 197.879H258.799V247.251H270.685V197.879Z" fill="#E8E9E9"/>
<path d="M297.849 183.643H285.963V247.121H297.849V183.643Z" fill="#E8E9E9"/>
<path d="M325.021 169.926H313.135V247.511H325.021V169.926Z" fill="#E8E9E9"/>
<path d="M130.016 120.947C133.478 120.947 136.285 118.14 136.285 114.678C136.285 111.215 133.478 108.408 130.016 108.408C126.553 108.408 123.746 111.215 123.746 114.678C123.746 118.14 126.553 120.947 130.016 120.947Z" fill="#F7B369"/>
<path d="M156.008 173.975C159.47 173.975 162.277 171.168 162.277 167.705C162.277 164.242 159.47 161.436 156.008 161.436C152.545 161.436 149.738 164.242 149.738 167.705C149.738 171.168 152.545 173.975 156.008 173.975Z" fill="#5C69A5"/>
<path d="M263.242 121.602C266.705 121.602 269.512 118.795 269.512 115.332C269.512 111.869 266.705 109.062 263.242 109.062C259.78 109.062 256.973 111.869 256.973 115.332C256.973 118.795 259.78 121.602 263.242 121.602Z" fill="#00BCC5"/>
<path d="M522.379 81.895H408.614C405.218 81.895 402.475 79.1521 402.475 75.7561C402.475 72.3601 405.218 69.6172 408.614 69.6172H522.379C525.775 69.6172 528.518 72.3601 528.518 75.7561C528.518 79.1521 525.775 81.895 522.379 81.895Z" fill="#00BCC5"/>
<path d="M522.379 104.491H408.614C405.218 104.491 402.475 101.748 402.475 98.3518C402.475 94.9558 405.218 92.2129 408.614 92.2129H522.379C525.775 92.2129 528.518 94.9558 528.518 98.3518C528.518 101.878 525.775 104.491 522.379 104.491Z" fill="#00BCC5"/>
<path d="M522.379 127.084H408.614C405.218 127.084 402.475 124.342 402.475 120.946C402.475 117.55 405.218 114.807 408.614 114.807H522.379C525.775 114.807 528.518 117.55 528.518 120.946C528.518 124.342 525.775 127.084 522.379 127.084Z" fill="#00BCC5"/>
<path d="M522.383 168.622H441.793C438.397 168.622 435.654 165.879 435.654 162.483C435.654 159.087 438.397 156.344 441.793 156.344H522.383C525.779 156.344 528.521 159.087 528.521 162.483C528.521 165.879 525.779 168.622 522.383 168.622Z" fill="#6B9CFF"/>
<path d="M522.383 191.745H441.793C438.397 191.745 435.654 189.002 435.654 185.606C435.654 182.21 438.397 179.467 441.793 179.467H522.383C525.779 179.467 528.521 182.21 528.521 185.606C528.521 189.002 525.779 191.745 522.383 191.745Z" fill="#6B9CFF"/>
<path d="M522.383 233.278H441.793C438.397 233.278 435.654 230.535 435.654 227.139C435.654 223.743 438.397 221 441.793 221H522.383C525.779 221 528.521 223.743 528.521 227.139C528.521 230.535 525.779 233.278 522.383 233.278Z" fill="#F7B369"/>
<path d="M522.383 256.397H441.793C438.397 256.397 435.654 253.654 435.654 250.258C435.654 246.862 438.397 244.119 441.793 244.119H522.383C525.779 244.119 528.521 246.862 528.521 250.258C528.521 253.654 525.779 256.397 522.383 256.397Z" fill="#F7B369"/>
<g opacity="0.56">
<path d="M333.379 198.274C365.047 198.274 390.719 172.602 390.719 140.934C390.719 109.266 365.047 83.5938 333.379 83.5938C301.711 83.5938 276.039 109.266 276.039 140.934C276.039 172.602 301.711 198.274 333.379 198.274Z" fill="#E0DFE5"/>
</g>
<path d="M335.334 202.195C332.722 202.195 329.979 202.064 327.367 201.673C311.301 199.583 296.934 191.354 287.007 178.423C266.5 151.778 271.464 113.508 298.109 93.0011C324.755 72.4946 363.025 77.4579 383.531 104.103C393.458 117.034 397.768 132.969 395.678 149.035C393.589 165.1 385.36 179.468 372.429 189.395C361.588 197.885 348.657 202.195 335.334 202.195ZM335.073 86.9928C323.448 86.9928 311.824 90.65 302.028 98.2257C278.256 116.512 273.815 150.733 292.101 174.505C300.983 185.999 313.783 193.313 328.151 195.272C342.518 197.101 356.755 193.313 368.38 184.431C379.874 175.55 387.188 162.749 389.148 148.382C390.976 134.014 387.188 119.777 378.307 108.283C367.596 94.3072 351.4 86.9928 335.073 86.9928Z" fill="#35456D"/>
<path d="M265.065 189.391L252.656 211.595C252.656 211.595 270.289 216.167 286.355 201.016C299.416 188.738 265.065 189.391 265.065 189.391Z" fill="#F8A991"/>
<path d="M156.005 125.52C155.482 125.128 141.245 131.267 138.372 150.206C135.498 169.145 150.78 172.672 150.78 172.672L171.809 160.786L163.711 124.605L156.005 125.52Z" fill="#1C2525"/>
<path d="M201.591 155.17C201.591 155.17 209.82 167.448 228.759 178.419C242.343 186.256 263.242 183.383 263.242 183.383L265.07 211.857C265.07 211.857 219.486 227.531 201.853 207.677C179.126 182.207 201.591 155.17 201.591 155.17Z" fill="#A37B90"/>
<path d="M199.366 380.221C199.366 380.221 208.379 392.89 208.771 395.372C209.163 397.854 202.24 402.295 202.24 402.295L218.828 423.062H181.995L180.166 383.094L199.366 380.221Z" fill="#35456D"/>
<path d="M175.203 108.402C175.203 108.402 161.097 101.872 154.828 113.496C148.689 124.729 157.832 135.179 157.832 135.179L173.375 118.982L175.203 108.402Z" fill="#1C2525"/>
<path d="M187.832 386.4L160.02 385.762L159.286 417.753L187.099 418.391L187.832 386.4Z" fill="#F8A991"/>
<path d="M157.052 236.416C157.052 236.416 151.958 254.571 151.697 290.229C151.436 321.054 145.819 389.366 148.04 392.631C150.391 395.896 197.673 394.068 199.502 393.153C201.331 392.239 201.853 370.949 201.853 370.949C201.853 370.949 233.331 318.181 237.511 309.299C241.691 300.548 214.392 223.746 214.392 223.746L157.052 236.416Z" fill="#6B9CFF"/>
<path d="M168.023 149.684C168.023 149.684 145.819 157.782 142.945 170.191C140.202 182.599 159.664 232.233 164.758 233.931C169.852 235.629 210.604 226.616 214.391 223.612C218.049 220.608 213.869 189.783 212.955 185.473C212.04 181.162 208.383 164.052 203.159 156.738C198.065 149.423 193.885 149.031 188.791 149.031C183.828 149.162 168.023 149.684 168.023 149.684Z" fill="#A37B90"/>
<path d="M164.101 147.727C164.101 147.727 159.922 149.163 158.615 151.123C157.179 153.343 159.922 159.09 167.497 163.531C173.114 166.796 177.685 167.972 177.685 167.972C177.685 167.972 182.518 161.31 183.432 157.261C184.347 153.212 180.951 147.857 180.951 147.857L164.101 147.727Z" fill="#F7B369"/>
<path d="M163.713 140.67L164.888 152.817C164.888 152.817 167.37 156.082 174.554 155.952C179.909 155.821 181.607 154.515 181.607 154.515L180.301 148.507L178.995 142.629L165.933 141.062L163.713 140.67Z" fill="#F8A991"/>
<path d="M165.932 140.938C165.932 141.329 166.193 141.591 166.454 142.113C169.719 147.86 177.295 148.513 180.299 148.513L178.993 142.635L165.932 140.938Z" fill="#1C2525"/>
<path d="M178.995 114.548C178.995 114.548 186.832 129.046 185.134 137.797C183.436 146.418 175.599 145.765 170.897 144.458C166.195 143.152 163.713 140.54 163.713 140.54C163.713 140.54 159.533 142.369 156.268 138.581C153.003 134.793 154.439 130.091 156.79 128.785C159.142 127.479 162.276 129.046 162.276 129.046L159.664 124.866C159.664 124.997 167.501 101.878 178.995 114.548Z" fill="#F8A991"/>
<path d="M161.1 437.035C159.011 436.904 157.312 435.076 157.312 432.986C157.312 424.234 157.443 404.12 159.011 404.12C161.1 404.12 180.431 410.259 180.431 410.259C180.431 410.259 180.954 398.242 189.444 400.332C195.974 402.03 203.55 409.606 206.685 413.132C207.73 414.177 208.905 414.961 210.342 415.353C216.481 416.789 233.2 421.753 233.461 430.504C233.722 441.345 229.412 440.039 227.322 440.039C225.624 440.039 175.337 437.688 161.1 437.035Z" fill="#40507F"/>
<path d="M162.279 129.179C162.279 129.179 168.81 129.963 172.859 122.518C176.908 114.942 176.255 112.069 176.255 112.069L181.349 119.253C181.349 119.253 182.002 114.028 179.651 110.893C177.3 107.758 175.21 108.542 175.21 108.542L161.104 113.114L158.1 124.869L162.279 129.179Z" fill="#1C2525"/>
<path d="M202.765 366.244C202.503 366.244 202.242 365.983 202.242 365.722L202.634 258.095C202.634 257.965 202.634 257.834 202.765 257.834L213.344 247.254C213.475 247.124 213.867 247.124 213.998 247.254C214.128 247.385 214.128 247.777 213.998 247.907L203.548 258.356L203.156 365.852C203.287 366.114 203.026 366.244 202.765 366.244Z" fill="#FEFEFE"/>
<path d="M159.404 266.845C159.142 266.845 159.012 266.715 159.012 266.454C159.012 266.192 159.142 265.931 159.404 265.931C163.844 265.278 167.24 263.58 169.461 260.576C172.988 255.874 172.073 249.604 172.073 249.474C172.073 249.212 172.204 248.951 172.465 248.951C172.726 248.951 172.987 249.082 172.987 249.343C172.987 249.604 173.902 256.004 170.245 261.098C167.763 264.233 164.106 266.192 159.404 266.845Z" fill="#FEFEFE"/>
<path d="M181.347 119.513C181.347 119.513 181.216 119.513 181.347 119.513L179.257 119.121C178.996 119.121 178.865 118.86 178.865 118.599C178.865 118.338 179.126 118.207 179.388 118.207L181.478 118.599C181.739 118.599 181.869 118.86 181.869 119.121C181.739 119.383 181.478 119.513 181.347 119.513Z" fill="#1C2525"/>
<path d="M172.46 120.163C172.199 120.163 172.068 120.032 172.068 119.771C172.068 119.51 172.199 119.249 172.46 119.249L175.856 118.465C176.117 118.465 176.379 118.595 176.379 118.857C176.379 119.118 176.248 119.379 175.987 119.379L172.46 120.163C172.591 120.163 172.591 120.163 172.46 120.163Z" fill="#1C2525"/>
<path d="M173.768 127.868C173.507 127.868 173.376 127.738 173.376 127.477L172.984 124.995C172.984 124.864 172.984 124.603 173.115 124.603L174.813 123.428C175.074 123.297 175.335 123.297 175.466 123.558C175.597 123.819 175.597 124.081 175.335 124.211L173.899 125.256L174.291 127.477C174.291 127.607 174.16 127.868 173.768 127.868C173.899 127.868 173.768 127.868 173.768 127.868Z" fill="#1C2525"/>
<path d="M182.129 126.044C181.868 126.044 181.738 125.914 181.738 125.652L181.346 123.171C181.346 123.04 181.346 122.779 181.476 122.779L183.174 121.603C183.436 121.473 183.697 121.473 183.827 121.734C183.958 121.995 183.958 122.256 183.697 122.387L182.26 123.432L182.652 125.652C182.521 125.783 182.391 126.044 182.129 126.044Z" fill="#1C2525"/>
<path d="M180.303 132.837H180.173C179.912 132.706 179.781 132.445 179.912 132.314C180.826 129.441 178.997 125.914 178.867 125.914C178.736 125.653 178.867 125.392 178.997 125.261C179.258 125.131 179.52 125.261 179.65 125.392C179.781 125.522 181.74 129.31 180.695 132.445C180.695 132.706 180.565 132.837 180.303 132.837Z" fill="#1C2525"/>
<path d="M177.69 138.975C175.6 138.975 174.686 136.493 174.686 136.493C174.686 136.363 174.686 136.232 174.686 136.101C174.816 135.971 174.947 135.971 175.077 135.971H180.302C180.433 135.971 180.563 136.101 180.694 136.101C180.824 136.232 180.824 136.363 180.694 136.493C180.694 136.493 179.78 138.975 177.69 138.975ZM175.861 136.754C176.253 137.277 176.775 138.061 177.69 138.061C178.604 138.061 179.257 137.277 179.518 136.754H175.861Z" fill="#1C2525"/>
<path d="M162.926 136.1C162.796 136.1 162.796 136.1 162.665 135.969L157.179 131.92C156.918 131.79 156.918 131.528 157.049 131.267C157.179 131.006 157.441 131.006 157.702 131.137L163.188 135.186C163.449 135.316 163.449 135.577 163.318 135.839C163.188 136.1 163.057 136.1 162.926 136.1Z" fill="#1C2525"/>
<path d="M157.444 136.752C157.313 136.752 157.183 136.621 157.052 136.491C156.922 136.229 157.052 135.968 157.183 135.838L160.709 133.878C160.971 133.748 161.232 133.878 161.362 134.009C161.493 134.27 161.362 134.531 161.232 134.662L157.705 136.621C157.575 136.752 157.444 136.752 157.444 136.752Z" fill="#1C2525"/>
<path d="M164.496 147.986C164.496 147.986 171.157 153.995 175.859 153.995C180.692 153.995 180.561 149.554 180.561 149.554L182.521 156.346L176.643 162.354L166.063 158.044L160.186 151.382L164.496 147.986Z" fill="#F7B369"/>
<path d="M173.115 163.398C173.115 163.398 169.589 168.362 168.805 175.937C168.022 183.644 172.593 192.264 172.593 192.264C172.593 192.264 179.777 184.166 180.691 178.027C181.605 171.888 178.34 163.137 178.34 163.137C178.34 163.137 181.605 170.582 182.389 175.023C183.173 179.595 184.348 185.342 184.348 185.342C184.348 185.342 188.659 179.595 188.397 172.672C188.136 165.88 180.822 161.309 180.822 161.309L173.115 163.398Z" fill="#F7B369"/>
<path d="M174.032 165.49C173.509 165.49 173.118 165.49 172.726 165.359C170.505 164.706 170.113 159.612 170.636 157.522C170.636 157.261 170.897 157.131 171.158 157.131C171.42 157.131 171.55 157.392 171.55 157.653C171.158 159.743 171.681 164.053 172.987 164.445C174.162 164.837 176.775 164.314 178.081 163.923C177.558 162.486 176.252 158.567 177.297 156.739C177.689 156.216 178.212 155.824 178.865 155.824C179.648 155.694 180.171 156.086 180.432 156.478C181.738 158.306 179.518 163.792 179.256 164.445C179.256 164.576 179.126 164.576 178.995 164.706C178.995 164.706 178.995 164.706 178.865 164.706C178.734 164.706 176.122 165.49 174.032 165.49ZM179.126 156.869C178.995 156.869 178.995 156.869 179.126 156.869C178.603 156.869 178.342 157 178.212 157.392C177.558 158.567 178.212 161.31 178.865 163.139C179.648 160.918 180.432 158.176 179.779 157.261C179.648 157 179.387 156.869 179.126 156.869Z" fill="#40507F"/>
<path d="M174.29 175.938C173.767 175.938 173.376 175.677 173.114 175.285C171.678 173.195 174.29 165.881 174.551 165.097C174.682 164.967 174.812 164.836 175.074 164.836C175.335 164.836 175.465 164.967 175.465 165.228C175.596 166.011 177.163 173.326 175.596 175.416C175.204 175.677 174.812 175.938 174.29 175.938ZM174.943 167.056C174.029 169.93 173.245 173.718 173.898 174.763C174.029 174.893 174.159 175.024 174.29 175.024C174.551 175.024 174.682 174.893 174.812 174.763C175.727 173.587 175.335 169.669 174.943 167.056Z" fill="#40507F"/>
<path d="M205.115 201.407C204.854 201.407 204.723 201.277 204.723 201.016L202.503 190.958C202.503 190.828 202.503 190.697 202.503 190.697C202.503 190.697 204.984 185.342 204.593 179.072C204.201 172.803 198.846 165.358 198.846 165.227C198.715 164.966 198.715 164.705 198.976 164.574C199.237 164.443 199.499 164.443 199.629 164.705C199.89 164.966 205.115 172.411 205.638 178.942C206.029 184.95 203.94 189.913 203.548 190.828L205.768 200.754C205.638 201.146 205.507 201.407 205.115 201.407C205.246 201.407 205.246 201.407 205.115 201.407Z" fill="#F7B369"/>
<path d="M225.495 205.195L196.891 214.077C196.891 214.077 220.14 243.335 229.936 227.922C239.732 212.249 225.495 205.195 225.495 205.195Z" fill="#F8A991"/>
<path d="M227.322 208.07C227.322 208.07 243.127 208.07 242.343 212.381C241.559 216.691 232.286 214.601 232.286 214.601L227.322 208.07Z" fill="#F8A991"/>
<path d="M277.214 185.736C277.214 185.736 272.773 170.455 277.214 170.063C281.524 169.671 282.177 179.075 282.177 179.075L277.214 185.736Z" fill="#F8A991"/>
<path d="M213.215 236.933L212.3 235.627C211.386 234.32 211.517 232.623 212.823 231.578L286.098 175.152C287.404 174.238 289.102 174.368 290.147 175.674L291.061 176.981C291.976 178.287 291.845 179.985 290.539 181.03L217.264 237.455C215.958 238.37 214.129 238.108 213.215 236.933Z" fill="#35456D"/>
<path d="M212.17 235.626L211.256 234.32C210.341 233.014 210.472 231.316 211.778 230.271L285.053 173.845C286.359 172.931 288.057 173.062 289.102 174.368L290.016 175.674C290.931 176.98 290.8 178.678 289.494 179.723L216.219 236.149C214.913 237.063 213.215 236.802 212.17 235.626Z" fill="#5C69A5"/>
<path d="M333.508 202.195C330.896 202.195 328.153 202.064 325.541 201.673C309.475 199.583 295.107 191.354 285.181 178.423C264.674 151.778 269.638 113.508 296.283 93.0011C322.928 72.4946 361.199 77.4579 381.705 104.103C391.632 117.034 395.942 132.969 393.852 149.035C391.762 165.1 383.534 179.468 370.603 189.395C359.762 197.885 346.831 202.195 333.508 202.195ZM333.378 86.9928C321.753 86.9928 310.128 90.65 300.332 98.2257C276.56 116.512 272.119 150.733 290.405 174.505C299.287 185.999 312.087 193.313 326.455 195.272C340.823 197.101 355.06 193.313 366.684 184.431C378.179 175.55 385.493 162.749 387.452 148.382C389.281 134.014 385.493 119.777 376.611 108.283C365.77 94.3072 349.704 86.9928 333.378 86.9928Z" fill="#5C69A5"/>
<path d="M285.834 135.445C285.703 135.445 285.572 135.445 285.442 135.314C285.311 135.184 285.311 134.792 285.442 134.661L328.283 94.4319C328.414 94.3013 328.806 94.3013 328.936 94.4319C329.067 94.5626 329.067 94.9544 328.936 95.085L286.095 135.314C286.095 135.445 285.964 135.445 285.834 135.445Z" fill="#FEFEFE"/>
<path d="M263.498 188.741C263.367 190.048 263.759 191.354 264.282 192.529C265.98 196.578 273.033 207.158 277.604 206.244C282.045 205.33 278.388 199.321 278.388 199.321C278.388 199.321 282.306 203.501 284.266 199.844C285.964 196.84 283.482 193.966 283.482 193.966C283.482 193.966 288.576 201.15 289.36 195.795C290.143 190.439 281.392 176.986 277.474 174.766C273.555 172.545 273.163 179.207 273.163 179.207C273.163 179.207 268.592 177.247 267.155 179.598C265.588 182.08 268.331 184.954 268.331 184.954C268.331 184.954 263.89 184.039 263.498 188.741Z" fill="#F8A991"/>
<path d="M278.26 199.842C278.129 199.842 277.999 199.712 277.868 199.581L268.986 186.258C268.856 185.997 268.856 185.736 269.117 185.605C269.378 185.475 269.639 185.475 269.77 185.736L278.652 199.059C278.782 199.32 278.782 199.581 278.521 199.712C278.39 199.842 278.39 199.842 278.26 199.842Z" fill="#1C2525"/>
<path d="M283.355 194.487C283.224 194.487 283.094 194.356 282.963 194.226L273.82 181.034C273.69 180.773 273.69 180.511 273.951 180.381C274.212 180.25 274.473 180.25 274.604 180.511L283.747 193.703C283.878 193.965 283.878 194.226 283.616 194.357C283.616 194.487 283.486 194.487 283.355 194.487Z" fill="#1C2525"/>
<path d="M238.033 223.483C238.163 222.177 237.902 220.871 237.379 219.695C235.681 215.646 228.89 205.066 224.318 205.85C219.877 206.634 223.534 212.642 223.534 212.642C223.534 212.642 219.616 208.332 217.657 211.989C215.959 214.993 218.31 217.866 218.31 217.866C218.31 217.866 213.869 213.817 213.085 219.042C212.301 224.267 220.269 234.585 224.057 236.936C227.975 239.287 228.367 232.626 228.367 232.626C228.367 232.626 232.808 234.585 234.245 232.365C235.812 230.014 233.2 227.009 233.2 227.009C233.2 227.009 237.771 228.054 238.033 223.483Z" fill="#F8A991"/>
<path d="M232.284 226.225C232.153 226.225 232.023 226.094 231.892 225.964L223.271 212.51C223.141 212.249 223.141 211.988 223.402 211.857C223.663 211.727 223.924 211.727 224.055 211.988L232.676 225.441C232.806 225.702 232.806 225.964 232.545 226.094C232.545 226.225 232.414 226.225 232.284 226.225Z" fill="#1C2525"/>
<path d="M227.32 231.448C227.19 231.448 227.059 231.317 226.929 231.186L218.047 217.733C217.916 217.472 217.916 217.211 218.177 217.08C218.439 216.949 218.7 216.949 218.83 217.211L227.712 230.664C227.843 230.925 227.843 231.186 227.582 231.317C227.451 231.448 227.451 231.448 227.32 231.448Z" fill="#1C2525"/>
<path d="M145.166 165.227C145.166 165.227 121.786 192.264 135.631 221.913C147.909 248.167 176.905 248.951 191.665 244.249C206.555 239.677 213.739 232.232 213.739 232.232L209.559 207.676C209.559 207.676 182.522 207.546 167.762 206.24C152.872 204.933 145.166 165.227 145.166 165.227Z" fill="#A37B90"/>
<path d="M158.354 208.33C156.394 208.33 154.958 208.069 154.566 207.415C154.174 206.632 154.958 205.718 155.349 205.456C160.052 201.015 169.325 205.979 169.717 206.109C169.848 206.24 169.978 206.371 169.978 206.632C169.978 206.762 169.848 207.024 169.586 207.024C167.497 207.285 162.141 208.33 158.354 208.33ZM160.574 204.411C158.876 204.411 157.178 204.803 156.003 205.979C155.48 206.501 155.349 206.762 155.48 206.762C156.003 207.677 162.141 207.154 168.019 206.109C166.452 205.587 163.448 204.411 160.574 204.411Z" fill="#F7B369"/>
<path d="M181.607 207.678L169.068 206.764C168.806 206.764 168.676 206.503 168.676 206.241C168.676 205.98 168.937 205.85 169.198 205.85L181.607 206.764C181.868 206.764 181.999 207.025 181.999 207.286C182.129 207.417 181.868 207.678 181.607 207.678Z" fill="#F7B369"/>
<path d="M93.7865 413.02C93.7865 413.02 113.178 422.927 118.764 428.618C124.455 434.203 124.56 437.997 123.928 439.789C123.19 441.58 82.7206 438.63 82.7206 438.63C82.7206 438.63 82.6152 427.458 78.2942 428.091C73.9733 428.723 76.0811 438.735 76.0811 438.735L63.8559 438.313C63.8559 438.313 63.6451 427.248 64.5936 422.927C65.6475 418.289 68.5984 411.018 68.5984 411.018L93.7865 413.02Z" fill="#68B6D8"/>
<path d="M89.6773 409.646C89.6773 409.646 106.329 419.658 103.167 420.501C100.111 421.45 82.7216 421.134 77.6629 419.131C72.6042 417.129 68.3887 411.016 68.3887 411.016L80.1923 406.59L89.6773 409.646Z" fill="#F8A991"/>
<path d="M89.6753 409.646C89.6753 409.646 101.69 339.562 93.8909 329.656C86.0921 319.749 68.2812 344.726 68.2812 344.726L68.3866 410.911C68.492 411.016 84.3004 416.391 89.6753 409.646Z" fill="#F8A991"/>
<path d="M70.2838 338.088C70.2838 338.088 67.8598 404.589 64.6981 411.65C61.5365 418.711 44.0418 411.65 44.0418 411.65L39.9316 339.563L70.2838 338.088Z" fill="#F8A991"/>
<path d="M88.4117 269.269C88.4117 269.269 94.8404 289.292 97.2644 305.944C99.6883 322.701 100.215 349.575 98.2129 350.418C96.1051 351.261 72.3925 350.945 72.3925 350.945C72.3925 350.945 64.2775 352.737 50.5769 351.472C44.8858 350.945 41.0918 350.418 38.984 349.891C37.614 349.575 36.5601 348.416 36.6655 346.94C36.9816 335.558 39.511 282.337 46.5721 272.746C52.6847 264.421 88.4117 269.269 88.4117 269.269Z" fill="#F7B369"/>
<path d="M65.3333 409.433C65.3333 409.433 71.5512 430.932 70.2866 435.464C69.0219 439.996 55.8482 445.16 51.5273 444.949C47.2063 444.738 39.4075 437.15 38.3536 434.515C37.2997 431.775 42.6746 405.85 48.7871 407.536C54.8997 409.222 65.3333 409.433 65.3333 409.433Z" fill="#81CEEA"/>
<path d="M65.3316 409.437C65.3316 409.437 62.2753 423.664 55.1089 423.664C47.9424 423.664 44.043 411.65 44.043 411.65L46.9939 398.266L65.3316 409.437Z" fill="#F8A991"/>
<path d="M108.12 250.93C108.12 250.93 94.1029 218.892 78.5053 214.36C62.9077 209.828 79.6646 254.513 79.6646 254.513L108.12 250.93Z" fill="#00BCC5"/>
<path d="M50.0498 212.672C50.0498 212.672 19.5923 218.995 15.5875 243.867C10.1073 278.119 52.0522 280.753 52.0522 280.753L50.0498 212.672Z" fill="#00BCC5"/>
<path d="M58.901 207.403C58.901 207.403 44.7789 209.301 49.3106 191.068C53.8424 172.836 66.9106 183.164 66.9106 183.164L58.901 207.403Z" fill="#1C2525"/>
<path d="M91.2593 278.016C91.2593 278.016 91.4701 220.368 79.9827 214.888C65.5443 208.037 44.7826 211.199 40.9886 218.155C36.6676 226.059 42.8856 273.906 42.8856 273.906C42.8856 273.906 64.2796 286.025 91.2593 278.016Z" fill="#00BCC5"/>
<path d="M56.1595 202.557L55.3164 212.358C55.3164 212.358 56.1595 215.625 61.8506 216.573C66.0661 217.311 68.3847 216.152 68.3847 216.152L68.1739 211.093L67.9631 206.245L57.7404 203.084L56.1595 202.557Z" fill="#F8A991"/>
<path d="M57.8457 203.08C57.8457 203.396 57.9511 203.712 58.0565 204.029C59.8481 209.087 65.7499 210.668 68.1739 211.09L67.9631 206.242L57.8457 203.08Z" fill="#1C2525"/>
<path d="M72.0805 184.006C72.0805 184.006 76.1907 196.758 73.6614 203.397C71.0266 210.037 64.914 208.35 61.3308 206.664C57.7476 204.978 56.1667 202.554 56.1667 202.554C56.1667 202.554 52.5835 203.397 50.5811 199.919C48.5787 196.441 50.3703 192.858 52.4781 192.226C54.5859 191.594 56.7991 193.28 56.7991 193.28L55.3236 189.591C55.2182 189.486 64.8086 172.202 72.0805 184.006Z" fill="#F8A991"/>
<path d="M98.8442 233.011C98.8442 233.011 108.856 212.25 107.381 212.039C105.905 211.723 96.8418 231.431 96.8418 231.431L98.8442 233.011Z" fill="#1C2525"/>
<path d="M88.9387 249.348C88.7279 249.348 88.5172 249.137 88.6225 248.926C89.1495 244.289 85.3555 229.535 85.3555 229.429C85.3555 229.219 85.4609 229.008 85.6716 229.008C85.8824 229.008 86.0932 229.113 86.0932 229.324C86.304 229.956 89.9926 244.289 89.3603 249.137C89.2549 249.137 89.1495 249.348 88.9387 249.348Z" fill="#FEFEFE"/>
<path d="M109.069 243.34C109.069 243.34 102.641 229.956 99.0574 228.059C95.3688 226.162 85.9891 226.9 85.7783 228.059C85.6729 229.218 93.9987 231.537 93.9987 231.537C93.9987 231.537 88.2023 239.335 87.8861 241.233C87.57 243.13 91.2586 249.137 92.1017 249.769C92.9448 250.401 95.7903 247.661 95.7903 247.661C95.7903 247.661 98.0035 251.139 101.692 252.615C105.275 254.09 110.229 248.926 110.229 248.926L109.069 243.34Z" fill="#F8A991"/>
<path d="M71.9722 195.705C71.7614 195.705 71.656 195.599 71.5506 195.388L71.3398 192.965C71.3398 192.754 71.4452 192.648 71.5506 192.543L72.7099 192.121C72.9207 192.016 73.1315 192.121 73.1315 192.332C73.2368 192.543 73.1315 192.754 72.9207 192.754L71.9722 193.07L72.1829 195.178C72.3937 195.494 72.1829 195.599 71.9722 195.705Z" fill="#1C2525"/>
<path d="M97.7903 253.143C97.7903 253.143 94.207 249.349 94.207 246.293C94.207 243.237 100.847 243.658 100.847 243.658L101.69 249.666L97.7903 253.143Z" fill="#FF9C85"/>
<path d="M107.066 277.065H62.6971C61.1162 277.065 59.8516 275.8 59.8516 274.219V244.183C59.8516 242.603 61.1162 241.338 62.6971 241.338H107.066C108.647 241.338 109.912 242.603 109.912 244.183V274.219C109.912 275.8 108.647 277.065 107.066 277.065Z" fill="#1C2525"/>
<path d="M103.799 277.065H59.6404C58.0596 277.065 56.7949 275.8 56.7949 274.219V244.183C56.7949 242.603 58.0596 241.338 59.6404 241.338H103.799C105.379 241.338 106.644 242.603 106.644 244.183V274.219C106.644 275.8 105.379 277.065 103.799 277.065Z" fill="#40507F"/>
<path d="M83.6707 263.47C85.9988 263.47 87.8862 261.583 87.8862 259.255C87.8862 256.926 85.9988 255.039 83.6707 255.039C81.3425 255.039 79.4551 256.926 79.4551 259.255C79.4551 261.583 81.3425 263.47 83.6707 263.47Z" fill="#FEFEFE"/>
<path d="M64.9098 195.178C64.699 195.178 64.5936 194.967 64.4882 194.861L64.3828 192.754C64.3828 192.648 64.4882 192.437 64.5936 192.437L65.7529 191.91C65.9637 191.805 66.1744 191.91 66.2798 192.121C66.3852 192.332 66.2798 192.543 66.069 192.648L65.1205 193.07L65.2259 194.967C65.3313 195.072 65.1205 195.178 64.9098 195.178Z" fill="#1C2525"/>
<path d="M46.7836 257.673C46.7836 257.673 55.6363 254.828 56.7956 254.406C56.7956 254.406 56.901 257.568 56.5848 258.095C56.1633 258.622 73.5525 261.362 73.4471 263.048C73.4471 264.734 71.7609 265.051 71.7609 265.051C71.7609 265.051 75.2387 265.788 74.2902 267.475C73.3417 269.161 71.7609 269.266 71.7609 269.266C71.7609 269.266 75.1333 270.952 71.7609 273.06C68.3884 275.168 51.6315 276.433 46.2567 271.163C42.3572 267.158 46.7836 257.673 46.7836 257.673Z" fill="#F8A991"/>
<path d="M56.6878 193.284C56.6878 193.284 62.4843 192.757 65.3298 189.279C67.8591 186.118 69.0184 182.324 69.0184 182.324C69.0184 182.324 70.1777 183.378 71.5477 185.802C72.6016 187.699 73.4448 189.912 73.4448 189.912C73.4448 189.912 76.0795 181.902 68.913 178.635C61.7465 175.368 55.2124 179.794 52.9992 184.221C50.9968 188.647 56.6878 193.284 56.6878 193.284Z" fill="#1C2525"/>
<path d="M52.0545 252.51L51.633 274.747C51.633 274.747 43.3072 276.117 31.8198 268.424C15.8006 257.78 21.3862 254.407 21.3862 254.407L36.8784 245.344L52.0545 252.51Z" fill="#00BCC5"/>
<path d="M71.7618 265.475L61.8552 264.316C61.6445 264.316 61.5391 264.105 61.5391 263.894C61.5391 263.684 61.7498 263.578 61.9606 263.578L71.8672 264.737C72.078 264.737 72.1834 264.948 72.1834 265.159C72.1834 265.264 71.9726 265.475 71.7618 265.475Z" fill="#1C2525"/>
<path d="M71.7618 269.583H61.8552C61.6444 269.583 61.4336 269.373 61.4336 269.162C61.4336 268.951 61.6444 268.74 61.8552 268.74H71.7618C71.9725 268.74 72.1833 268.951 72.1833 269.162C72.1833 269.478 71.9725 269.583 71.7618 269.583Z" fill="#1C2525"/>
<path d="M55.109 252.195C55.0036 252.195 55.0036 252.195 54.8983 252.195C54.7929 252.09 41.0922 245.239 34.2419 244.818C34.0312 244.818 33.9258 244.607 33.9258 244.396C33.9258 244.185 34.1366 244.08 34.3473 244.08C41.303 244.607 54.6875 251.247 55.2144 251.563C55.4252 251.668 55.4252 251.879 55.4252 252.09C55.4252 252.09 55.3198 252.195 55.109 252.195Z" fill="#FEFEFE"/>
<path d="M46.3615 248.189C46.2561 248.189 46.1507 248.189 46.1507 248.083C44.2537 246.608 38.3519 241.655 38.8789 240.074C38.9842 239.863 39.195 239.547 39.9327 239.441H40.0381C43.6214 239.441 46.6777 247.346 46.7831 247.662C46.8884 247.767 46.783 247.978 46.6777 248.083C46.4669 248.189 46.4669 248.189 46.3615 248.189ZM39.9327 240.179C39.6166 240.179 39.5112 240.285 39.5112 240.285C39.3004 240.917 42.2513 243.868 45.413 246.502C44.2537 244.079 42.0405 240.179 39.9327 240.179Z" fill="#FEFEFE"/>
<path d="M55.2139 184.743C55.2139 184.743 56.9001 174.099 47.8366 173.045C38.7732 171.991 39.9324 189.907 51.5253 189.696C63.2235 189.485 55.2139 184.743 55.2139 184.743Z" fill="#1C2525"/>
<path d="M49.7346 189.909C49.4184 189.909 49.313 189.698 49.4184 189.488C50.5777 184.218 53.2124 182.427 53.3178 182.321C53.5286 182.216 53.7394 182.216 53.8448 182.427C53.9502 182.637 53.9502 182.848 53.7394 182.954C53.7394 182.954 51.21 184.745 50.1561 189.698C50.0508 189.804 49.9454 189.909 49.7346 189.909Z" fill="#FEFEFE"/>
<path d="M63.9607 190.226C63.7499 190.226 63.6445 190.12 63.6445 189.909C63.6445 189.699 63.7499 189.488 63.9607 189.488L67.2278 188.961C67.4385 188.961 67.6493 189.066 67.6493 189.277C67.6493 189.488 67.5439 189.699 67.3332 189.699L63.9607 190.226Z" fill="#1C2525"/>
<path d="M73.5511 190.228L71.3379 189.806C71.1271 189.806 71.0217 189.595 71.0217 189.385C71.0217 189.174 71.2325 189.068 71.4433 189.068L73.5511 189.49C73.7618 189.49 73.8672 189.701 73.8672 189.911C73.8672 190.122 73.7618 190.228 73.5511 190.228Z" fill="#1C2525"/>
<path d="M69.1257 199.396C69.0203 199.396 68.9149 199.396 68.8095 199.291C68.7041 199.186 68.7041 198.869 68.8095 198.764C70.1796 197.499 68.8095 194.127 68.8095 194.127C68.7041 193.916 68.8095 193.705 69.0203 193.6C69.2311 193.495 69.4418 193.6 69.5472 193.811C69.6526 193.916 71.2335 197.605 69.4419 199.291C69.3365 199.396 69.2311 199.396 69.1257 199.396Z" fill="#1C2525"/>
<path d="M66.174 202.132H66.0687C65.9633 202.132 64.1716 201.5 63.8555 199.498C63.8555 199.287 63.9609 199.076 64.1716 199.076C64.3824 199.076 64.5932 199.182 64.5932 199.392C64.9094 200.973 66.2794 201.5 66.3848 201.5C66.5956 201.606 66.701 201.816 66.5956 201.922C66.4902 202.027 66.2794 202.132 66.174 202.132Z" fill="#1C2525"/>
<path d="M55.8476 198.34C55.7422 198.34 55.6368 198.34 55.6368 198.234L51.9482 194.651C51.8428 194.546 51.8428 194.229 51.9482 194.124C52.0536 194.019 52.3697 194.019 52.4751 194.124L56.1638 197.707C56.2691 197.813 56.2691 198.129 56.1638 198.234C55.953 198.234 55.953 198.34 55.8476 198.34Z" fill="#1C2525"/>
<path d="M52.0525 197.388C51.8417 197.388 51.7363 197.283 51.7363 197.072C51.7363 196.861 51.8417 196.65 52.0525 196.65L54.4765 196.334C54.6872 196.334 54.898 196.439 54.898 196.65C54.898 196.861 54.7926 197.072 54.5818 197.072L52.0525 197.388Z" fill="#1C2525"/>
<path d="M63.5393 217.099C60.5884 217.099 57.3213 216.362 54.7919 213.622C54.6865 213.516 54.6865 213.2 54.7919 213.095C54.8973 212.989 55.2135 212.989 55.3189 213.095C60.5883 218.891 69.8626 215.202 69.968 215.202C70.1788 215.097 70.3896 215.202 70.495 215.413C70.6003 215.624 70.495 215.835 70.2842 215.94C70.2842 215.94 67.2279 217.099 63.5393 217.099Z" fill="#FEFEFE"/>
<path d="M98.8438 233.438C98.7384 233.438 98.633 233.438 98.633 233.332C97.6845 232.489 94.9444 231.962 93.9959 231.857C93.7851 231.857 93.6797 231.646 93.6797 231.435C93.6797 231.225 93.8905 231.119 94.1012 231.119C94.2066 231.119 97.8953 231.541 99.1599 232.7C99.2653 232.805 99.2653 233.122 99.1599 233.227C99.0545 233.332 98.9491 233.438 98.8438 233.438Z" fill="#1C2525"/>
<path d="M46.3605 351.577C46.1498 351.577 46.0444 351.471 46.0444 351.26L42.9881 340.827L40.8803 350.417C40.8803 350.628 40.6695 350.733 40.4587 350.733C40.248 350.733 40.1426 350.523 40.1426 350.312L42.5665 339.351C42.5665 339.141 42.7773 339.035 42.8827 339.035C43.0935 339.035 43.1989 339.141 43.1989 339.351L46.6767 351.155C46.7821 351.26 46.6767 351.471 46.3605 351.577C46.4659 351.577 46.4659 351.577 46.3605 351.577Z" fill="#40507F"/>
</svg>
