<svg width="407" height="318" viewBox="0 0 407 318" fill="none" xmlns="http://www.w3.org/2000/svg">
<rect x="55" width="318" height="318" rx="12" fill="#F6F7FA"/>
<g filter="url(#filter0_d_213_4039)">
<rect x="107" y="100" width="283" height="171" rx="8" fill="#FEFEFE"/>
</g>
<path d="M124.979 129H123.348L127.012 118.818H128.787L132.451 129H130.82L127.942 120.668H127.862L124.979 129ZM125.252 125.013H130.542V126.305H125.252V125.013ZM139.47 123.228L138.122 123.467C138.066 123.294 137.977 123.13 137.854 122.974C137.735 122.819 137.572 122.691 137.367 122.592C137.161 122.492 136.904 122.442 136.596 122.442C136.175 122.442 135.824 122.537 135.542 122.726C135.26 122.911 135.119 123.152 135.119 123.447C135.119 123.702 135.214 123.907 135.403 124.063C135.592 124.219 135.897 124.347 136.318 124.446L137.531 124.724C138.233 124.887 138.757 125.137 139.102 125.475C139.446 125.813 139.619 126.252 139.619 126.793C139.619 127.25 139.486 127.658 139.221 128.016C138.959 128.37 138.593 128.649 138.122 128.851C137.655 129.053 137.113 129.154 136.497 129.154C135.642 129.154 134.944 128.972 134.404 128.607C133.863 128.239 133.532 127.717 133.409 127.041L134.846 126.822C134.936 127.197 135.119 127.48 135.398 127.673C135.676 127.862 136.039 127.956 136.487 127.956C136.974 127.956 137.363 127.855 137.655 127.653C137.947 127.447 138.093 127.197 138.093 126.902C138.093 126.663 138.003 126.463 137.824 126.3C137.648 126.138 137.378 126.015 137.014 125.933L135.721 125.649C135.008 125.487 134.481 125.228 134.14 124.874C133.802 124.519 133.633 124.07 133.633 123.526C133.633 123.076 133.759 122.681 134.011 122.343C134.263 122.005 134.611 121.741 135.055 121.553C135.499 121.36 136.008 121.264 136.581 121.264C137.406 121.264 138.056 121.443 138.53 121.801C139.004 122.156 139.317 122.631 139.47 123.228ZM141.253 129V121.364H142.74V129H141.253ZM142.004 120.185C141.745 120.185 141.523 120.099 141.338 119.927C141.155 119.751 141.064 119.542 141.064 119.3C141.064 119.055 141.155 118.846 141.338 118.674C141.523 118.498 141.745 118.411 142.004 118.411C142.262 118.411 142.483 118.498 142.665 118.674C142.851 118.846 142.944 119.055 142.944 119.3C142.944 119.542 142.851 119.751 142.665 119.927C142.483 120.099 142.262 120.185 142.004 120.185ZM146.962 129.169C146.478 129.169 146.04 129.08 145.649 128.901C145.258 128.718 144.948 128.455 144.72 128.11C144.494 127.765 144.382 127.343 144.382 126.842C144.382 126.411 144.464 126.057 144.63 125.778C144.796 125.5 145.02 125.28 145.301 125.117C145.583 124.955 145.898 124.832 146.246 124.749C146.594 124.666 146.949 124.603 147.31 124.56C147.767 124.507 148.138 124.464 148.423 124.431C148.709 124.395 148.916 124.337 149.045 124.257C149.174 124.178 149.239 124.048 149.239 123.869V123.835C149.239 123.4 149.116 123.064 148.871 122.825C148.629 122.587 148.268 122.467 147.787 122.467C147.287 122.467 146.892 122.578 146.604 122.8C146.319 123.019 146.122 123.263 146.012 123.531L144.615 123.213C144.781 122.749 145.023 122.375 145.341 122.089C145.663 121.801 146.032 121.592 146.45 121.463C146.867 121.33 147.307 121.264 147.767 121.264C148.072 121.264 148.395 121.301 148.737 121.374C149.081 121.443 149.403 121.572 149.701 121.761C150.003 121.95 150.25 122.22 150.442 122.572C150.634 122.92 150.73 123.372 150.73 123.929V129H149.279V127.956H149.219C149.123 128.148 148.979 128.337 148.786 128.523C148.594 128.708 148.347 128.862 148.046 128.985C147.744 129.108 147.383 129.169 146.962 129.169ZM147.285 127.976C147.696 127.976 148.047 127.895 148.339 127.732C148.634 127.57 148.858 127.358 149.01 127.096C149.166 126.831 149.244 126.547 149.244 126.246V125.261C149.191 125.314 149.088 125.364 148.936 125.411C148.786 125.454 148.616 125.492 148.423 125.525C148.231 125.555 148.044 125.583 147.862 125.609C147.679 125.633 147.527 125.652 147.404 125.669C147.116 125.705 146.852 125.767 146.614 125.853C146.378 125.939 146.19 126.063 146.047 126.226C145.908 126.385 145.838 126.597 145.838 126.862C145.838 127.23 145.974 127.509 146.246 127.697C146.518 127.883 146.864 127.976 147.285 127.976ZM160.915 124.053V125.341H156.4V124.053H160.915ZM166.601 121.364H168.087V129.497C168.087 130.008 167.995 130.438 167.809 130.79C167.627 131.141 167.355 131.408 166.994 131.59C166.636 131.772 166.193 131.864 165.666 131.864C165.613 131.864 165.563 131.864 165.517 131.864C165.467 131.864 165.416 131.862 165.363 131.859V130.581C165.409 130.581 165.451 130.581 165.487 130.581C165.52 130.581 165.558 130.581 165.602 130.581C165.953 130.581 166.206 130.487 166.362 130.298C166.521 130.112 166.601 129.842 166.601 129.487V121.364ZM167.337 120.185C167.078 120.185 166.856 120.099 166.67 119.927C166.488 119.751 166.397 119.542 166.397 119.3C166.397 119.055 166.488 118.846 166.67 118.674C166.856 118.498 167.078 118.411 167.337 118.411C167.595 118.411 167.816 118.498 167.998 118.674C168.183 118.846 168.276 119.055 168.276 119.3C168.276 119.542 168.183 119.751 167.998 119.927C167.816 120.099 167.595 120.185 167.337 120.185ZM172.309 129.169C171.826 129.169 171.388 129.08 170.997 128.901C170.606 128.718 170.296 128.455 170.067 128.11C169.842 127.765 169.729 127.343 169.729 126.842C169.729 126.411 169.812 126.057 169.978 125.778C170.144 125.5 170.367 125.28 170.649 125.117C170.931 124.955 171.246 124.832 171.594 124.749C171.942 124.666 172.296 124.603 172.657 124.56C173.115 124.507 173.486 124.464 173.771 124.431C174.056 124.395 174.263 124.337 174.393 124.257C174.522 124.178 174.586 124.048 174.586 123.869V123.835C174.586 123.4 174.464 123.064 174.219 122.825C173.977 122.587 173.615 122.467 173.135 122.467C172.634 122.467 172.24 122.578 171.952 122.8C171.666 123.019 171.469 123.263 171.36 123.531L169.963 123.213C170.129 122.749 170.371 122.375 170.689 122.089C171.01 121.801 171.38 121.592 171.797 121.463C172.215 121.33 172.654 121.264 173.115 121.264C173.42 121.264 173.743 121.301 174.084 121.374C174.429 121.443 174.751 121.572 175.049 121.761C175.35 121.95 175.597 122.22 175.79 122.572C175.982 122.92 176.078 123.372 176.078 123.929V129H174.626V127.956H174.567C174.47 128.148 174.326 128.337 174.134 128.523C173.942 128.708 173.695 128.862 173.393 128.985C173.092 129.108 172.73 129.169 172.309 129.169ZM172.633 127.976C173.044 127.976 173.395 127.895 173.687 127.732C173.982 127.57 174.205 127.358 174.358 127.096C174.514 126.831 174.591 126.547 174.591 126.246V125.261C174.538 125.314 174.436 125.364 174.283 125.411C174.134 125.454 173.963 125.492 173.771 125.525C173.579 125.555 173.392 125.583 173.209 125.609C173.027 125.633 172.875 125.652 172.752 125.669C172.464 125.705 172.2 125.767 171.961 125.853C171.726 125.939 171.537 126.063 171.395 126.226C171.256 126.385 171.186 126.597 171.186 126.862C171.186 127.23 171.322 127.509 171.594 127.697C171.865 127.883 172.212 127.976 172.633 127.976ZM178.058 131.864V121.364H179.51V122.602H179.634C179.72 122.442 179.844 122.259 180.007 122.05C180.169 121.841 180.395 121.659 180.683 121.503C180.971 121.344 181.352 121.264 181.826 121.264C182.443 121.264 182.993 121.42 183.477 121.732C183.961 122.043 184.34 122.492 184.615 123.079C184.894 123.665 185.033 124.371 185.033 125.197C185.033 126.022 184.895 126.73 184.62 127.32C184.345 127.906 183.967 128.359 183.487 128.677C183.006 128.992 182.458 129.149 181.841 129.149C181.377 129.149 180.998 129.071 180.703 128.915C180.411 128.76 180.182 128.577 180.017 128.369C179.851 128.16 179.723 127.974 179.634 127.812H179.544V131.864H178.058ZM179.515 125.182C179.515 125.719 179.592 126.189 179.748 126.594C179.904 126.998 180.129 127.315 180.424 127.543C180.719 127.769 181.081 127.881 181.508 127.881C181.952 127.881 182.324 127.764 182.622 127.528C182.92 127.29 183.145 126.967 183.298 126.559C183.454 126.151 183.532 125.692 183.532 125.182C183.532 124.678 183.455 124.226 183.303 123.825C183.154 123.424 182.928 123.107 182.627 122.875C182.328 122.643 181.956 122.527 181.508 122.527C181.077 122.527 180.713 122.638 180.414 122.86C180.119 123.082 179.896 123.392 179.743 123.79C179.591 124.187 179.515 124.652 179.515 125.182ZM188.921 129.169C188.437 129.169 187.999 129.08 187.608 128.901C187.217 128.718 186.907 128.455 186.679 128.11C186.453 127.765 186.341 127.343 186.341 126.842C186.341 126.411 186.423 126.057 186.589 125.778C186.755 125.5 186.979 125.28 187.26 125.117C187.542 124.955 187.857 124.832 188.205 124.749C188.553 124.666 188.908 124.603 189.269 124.56C189.726 124.507 190.097 124.464 190.382 124.431C190.667 124.395 190.875 124.337 191.004 124.257C191.133 124.178 191.198 124.048 191.198 123.869V123.835C191.198 123.4 191.075 123.064 190.83 122.825C190.588 122.587 190.227 122.467 189.746 122.467C189.246 122.467 188.851 122.578 188.563 122.8C188.278 123.019 188.081 123.263 187.971 123.531L186.574 123.213C186.74 122.749 186.982 122.375 187.3 122.089C187.622 121.801 187.991 121.592 188.409 121.463C188.826 121.33 189.266 121.264 189.726 121.264C190.031 121.264 190.354 121.301 190.696 121.374C191.04 121.443 191.362 121.572 191.66 121.761C191.962 121.95 192.209 122.22 192.401 122.572C192.593 122.92 192.689 123.372 192.689 123.929V129H191.238V127.956H191.178C191.082 128.148 190.938 128.337 190.745 128.523C190.553 128.708 190.306 128.862 190.005 128.985C189.703 129.108 189.342 129.169 188.921 129.169ZM189.244 127.976C189.655 127.976 190.006 127.895 190.298 127.732C190.593 127.57 190.817 127.358 190.969 127.096C191.125 126.831 191.203 126.547 191.203 126.246V125.261C191.15 125.314 191.047 125.364 190.895 125.411C190.745 125.454 190.575 125.492 190.382 125.525C190.19 125.555 190.003 125.583 189.821 125.609C189.638 125.633 189.486 125.652 189.363 125.669C189.075 125.705 188.811 125.767 188.573 125.853C188.337 125.939 188.149 126.063 188.006 126.226C187.867 126.385 187.797 126.597 187.797 126.862C187.797 127.23 187.933 127.509 188.205 127.697C188.477 127.883 188.823 127.976 189.244 127.976ZM196.156 124.466V129H194.669V121.364H196.096V122.607H196.191C196.366 122.202 196.641 121.877 197.016 121.632C197.394 121.387 197.869 121.264 198.443 121.264C198.963 121.264 199.419 121.374 199.81 121.592C200.201 121.808 200.504 122.129 200.72 122.557C200.935 122.984 201.043 123.513 201.043 124.143V129H199.556V124.322C199.556 123.768 199.412 123.336 199.124 123.024C198.835 122.709 198.439 122.552 197.936 122.552C197.591 122.552 197.284 122.626 197.016 122.776C196.751 122.925 196.54 123.143 196.384 123.432C196.232 123.717 196.156 124.062 196.156 124.466ZM211.241 123.263V124.555H206.727V123.263H211.241ZM216.544 120.141V118.818H224.424V120.141H221.247V129H219.716V120.141H216.544ZM228.155 129.154C227.439 129.154 226.815 128.99 226.281 128.662C225.747 128.334 225.333 127.875 225.038 127.285C224.743 126.695 224.596 126.005 224.596 125.217C224.596 124.424 224.743 123.732 225.038 123.138C225.333 122.545 225.747 122.085 226.281 121.756C226.815 121.428 227.439 121.264 228.155 121.264C228.871 121.264 229.496 121.428 230.03 121.756C230.563 122.085 230.978 122.545 231.273 123.138C231.568 123.732 231.715 124.424 231.715 125.217C231.715 126.005 231.568 126.695 231.273 127.285C230.978 127.875 230.563 128.334 230.03 128.662C229.496 128.99 228.871 129.154 228.155 129.154ZM228.16 127.906C228.624 127.906 229.009 127.784 229.314 127.538C229.619 127.293 229.844 126.967 229.99 126.559C230.139 126.151 230.214 125.702 230.214 125.212C230.214 124.724 230.139 124.277 229.99 123.869C229.844 123.458 229.619 123.129 229.314 122.88C229.009 122.631 228.624 122.507 228.16 122.507C227.693 122.507 227.305 122.631 226.997 122.88C226.692 123.129 226.465 123.458 226.316 123.869C226.17 124.277 226.097 124.724 226.097 125.212C226.097 125.702 226.17 126.151 226.316 126.559C226.465 126.967 226.692 127.293 226.997 127.538C227.305 127.784 227.693 127.906 228.16 127.906ZM234.741 126.41L234.732 124.595H234.99L238.033 121.364H239.812L236.342 125.043H236.109L234.741 126.41ZM233.374 129V118.818H234.861V129H233.374ZM238.197 129L235.462 125.371L236.487 124.332L240.021 129H238.197ZM242.148 131.864C241.926 131.864 241.724 131.845 241.541 131.809C241.359 131.776 241.223 131.739 241.134 131.7L241.492 130.482C241.763 130.554 242.005 130.586 242.218 130.576C242.43 130.566 242.617 130.487 242.779 130.337C242.945 130.188 243.091 129.945 243.217 129.607L243.401 129.099L240.607 121.364H242.198L244.132 127.29H244.211L246.145 121.364H247.741L244.594 130.019C244.448 130.417 244.262 130.753 244.037 131.028C243.812 131.307 243.543 131.516 243.232 131.655C242.92 131.794 242.559 131.864 242.148 131.864ZM252.095 129.154C251.379 129.154 250.754 128.99 250.221 128.662C249.687 128.334 249.273 127.875 248.978 127.285C248.683 126.695 248.535 126.005 248.535 125.217C248.535 124.424 248.683 123.732 248.978 123.138C249.273 122.545 249.687 122.085 250.221 121.756C250.754 121.428 251.379 121.264 252.095 121.264C252.811 121.264 253.435 121.428 253.969 121.756C254.503 122.085 254.917 122.545 255.212 123.138C255.507 123.732 255.654 124.424 255.654 125.217C255.654 126.005 255.507 126.695 255.212 127.285C254.917 127.875 254.503 128.334 253.969 128.662C253.435 128.99 252.811 129.154 252.095 129.154ZM252.1 127.906C252.564 127.906 252.948 127.784 253.253 127.538C253.558 127.293 253.783 126.967 253.929 126.559C254.078 126.151 254.153 125.702 254.153 125.212C254.153 124.724 254.078 124.277 253.929 123.869C253.783 123.458 253.558 123.129 253.253 122.88C252.948 122.631 252.564 122.507 252.1 122.507C251.632 122.507 251.245 122.631 250.936 122.88C250.632 123.129 250.404 123.458 250.255 123.869C250.109 124.277 250.037 124.724 250.037 125.212C250.037 125.702 250.109 126.151 250.255 126.559C250.404 126.967 250.632 127.293 250.936 127.538C251.245 127.784 251.632 127.906 252.1 127.906Z" fill="#495151"/>
<rect x="123" y="144" width="251" height="1" fill="#F4F5F9"/>
<path d="M124.119 170V159.818H130.502V161.141H125.655V164.243H130.169V165.56H125.655V168.678H130.562V170H124.119ZM137.272 166.833V162.364H138.764V170H137.302V168.678H137.222C137.047 169.085 136.765 169.425 136.377 169.697C135.993 169.965 135.514 170.099 134.941 170.099C134.45 170.099 134.016 169.992 133.638 169.776C133.263 169.558 132.968 169.234 132.753 168.807C132.541 168.379 132.435 167.851 132.435 167.221V162.364H133.921V167.042C133.921 167.562 134.066 167.977 134.354 168.285C134.642 168.593 135.017 168.747 135.477 168.747C135.756 168.747 136.033 168.678 136.308 168.538C136.586 168.399 136.816 168.189 136.999 167.907C137.184 167.625 137.276 167.267 137.272 166.833ZM140.761 170V162.364H142.198V163.577H142.277C142.417 163.166 142.662 162.843 143.013 162.607C143.368 162.369 143.769 162.249 144.216 162.249C144.309 162.249 144.418 162.253 144.544 162.259C144.674 162.266 144.775 162.274 144.848 162.284V163.706C144.788 163.689 144.682 163.671 144.529 163.651C144.377 163.628 144.225 163.616 144.072 163.616C143.721 163.616 143.408 163.691 143.132 163.84C142.861 163.986 142.645 164.19 142.486 164.452C142.327 164.71 142.248 165.005 142.248 165.337V170H140.761ZM149.077 170.154C148.361 170.154 147.737 169.99 147.203 169.662C146.669 169.334 146.255 168.875 145.96 168.285C145.665 167.695 145.518 167.005 145.518 166.217C145.518 165.424 145.665 164.732 145.96 164.138C146.255 163.545 146.669 163.085 147.203 162.756C147.737 162.428 148.361 162.264 149.077 162.264C149.793 162.264 150.418 162.428 150.952 162.756C151.485 163.085 151.899 163.545 152.194 164.138C152.489 164.732 152.637 165.424 152.637 166.217C152.637 167.005 152.489 167.695 152.194 168.285C151.899 168.875 151.485 169.334 150.952 169.662C150.418 169.99 149.793 170.154 149.077 170.154ZM149.082 168.906C149.546 168.906 149.931 168.784 150.236 168.538C150.541 168.293 150.766 167.967 150.912 167.559C151.061 167.151 151.135 166.702 151.135 166.212C151.135 165.724 151.061 165.277 150.912 164.869C150.766 164.458 150.541 164.129 150.236 163.88C149.931 163.631 149.546 163.507 149.082 163.507C148.615 163.507 148.227 163.631 147.919 163.88C147.614 164.129 147.387 164.458 147.238 164.869C147.092 165.277 147.019 165.724 147.019 166.212C147.019 166.702 147.092 167.151 147.238 167.559C147.387 167.967 147.614 168.293 147.919 168.538C148.227 168.784 148.615 168.906 149.082 168.906ZM154.296 172.864V162.364H155.748V163.602H155.872C155.958 163.442 156.083 163.259 156.245 163.05C156.407 162.841 156.633 162.659 156.921 162.503C157.21 162.344 157.591 162.264 158.065 162.264C158.681 162.264 159.231 162.42 159.715 162.732C160.199 163.043 160.579 163.492 160.854 164.079C161.132 164.665 161.271 165.371 161.271 166.197C161.271 167.022 161.134 167.73 160.859 168.32C160.584 168.906 160.206 169.359 159.725 169.677C159.245 169.992 158.696 170.149 158.08 170.149C157.616 170.149 157.236 170.071 156.941 169.915C156.649 169.76 156.421 169.577 156.255 169.369C156.089 169.16 155.962 168.974 155.872 168.812H155.783V172.864H154.296ZM155.753 166.182C155.753 166.719 155.831 167.189 155.987 167.594C156.142 167.998 156.368 168.315 156.663 168.543C156.958 168.769 157.319 168.881 157.746 168.881C158.191 168.881 158.562 168.764 158.86 168.528C159.158 168.29 159.384 167.967 159.536 167.559C159.692 167.151 159.77 166.692 159.77 166.182C159.77 165.678 159.694 165.226 159.541 164.825C159.392 164.424 159.167 164.107 158.865 163.875C158.567 163.643 158.194 163.527 157.746 163.527C157.316 163.527 156.951 163.638 156.653 163.86C156.358 164.082 156.134 164.392 155.982 164.79C155.829 165.187 155.753 165.652 155.753 166.182ZM166.228 170.154C165.476 170.154 164.828 169.993 164.284 169.672C163.744 169.347 163.326 168.891 163.031 168.305C162.74 167.715 162.594 167.024 162.594 166.232C162.594 165.449 162.74 164.76 163.031 164.163C163.326 163.567 163.737 163.101 164.264 162.766C164.795 162.432 165.414 162.264 166.124 162.264C166.554 162.264 166.972 162.335 167.376 162.478C167.781 162.621 168.144 162.844 168.465 163.149C168.787 163.454 169.04 163.85 169.226 164.337C169.411 164.821 169.504 165.41 169.504 166.102V166.629H163.434V165.516H168.048C168.048 165.125 167.968 164.778 167.809 164.477C167.65 164.172 167.426 163.931 167.138 163.756C166.853 163.58 166.518 163.492 166.134 163.492C165.716 163.492 165.351 163.595 165.04 163.8C164.732 164.003 164.493 164.268 164.324 164.596C164.158 164.921 164.075 165.274 164.075 165.655V166.525C164.075 167.035 164.165 167.469 164.344 167.827C164.526 168.185 164.78 168.459 165.104 168.648C165.429 168.833 165.809 168.926 166.243 168.926C166.525 168.926 166.781 168.886 167.013 168.807C167.246 168.724 167.446 168.601 167.615 168.439C167.784 168.277 167.913 168.076 168.003 167.837L169.41 168.091C169.297 168.505 169.095 168.868 168.803 169.18C168.515 169.488 168.152 169.728 167.714 169.901C167.28 170.07 166.785 170.154 166.228 170.154ZM179.358 164.263V165.555H174.844V164.263H179.358ZM195.759 163.035C195.663 162.733 195.534 162.463 195.371 162.224C195.212 161.982 195.022 161.777 194.8 161.608C194.578 161.436 194.324 161.305 194.039 161.215C193.757 161.126 193.447 161.081 193.109 161.081C192.536 161.081 192.019 161.228 191.558 161.523C191.098 161.818 190.733 162.251 190.464 162.821C190.199 163.388 190.067 164.082 190.067 164.904C190.067 165.729 190.201 166.427 190.469 166.997C190.738 167.567 191.106 168 191.573 168.295C192.04 168.59 192.572 168.737 193.169 168.737C193.723 168.737 194.205 168.625 194.616 168.399C195.03 168.174 195.35 167.856 195.575 167.445C195.804 167.03 195.918 166.543 195.918 165.983L196.316 166.058H193.403V164.79H197.405V165.948C197.405 166.803 197.223 167.546 196.858 168.175C196.497 168.802 195.996 169.286 195.357 169.627C194.72 169.969 193.991 170.139 193.169 170.139C192.248 170.139 191.439 169.927 190.743 169.503C190.05 169.079 189.51 168.477 189.122 167.698C188.734 166.916 188.54 165.988 188.54 164.914C188.54 164.102 188.653 163.373 188.879 162.727C189.104 162.08 189.42 161.532 189.828 161.081C190.239 160.627 190.721 160.281 191.275 160.042C191.832 159.8 192.44 159.679 193.099 159.679C193.65 159.679 194.162 159.76 194.636 159.923C195.113 160.085 195.537 160.315 195.908 160.614C196.283 160.912 196.593 161.267 196.838 161.678C197.083 162.085 197.249 162.538 197.335 163.035H195.759ZM202.527 170.154C201.774 170.154 201.126 169.993 200.583 169.672C200.043 169.347 199.625 168.891 199.33 168.305C199.038 167.715 198.893 167.024 198.893 166.232C198.893 165.449 199.038 164.76 199.33 164.163C199.625 163.567 200.036 163.101 200.563 162.766C201.093 162.432 201.713 162.264 202.422 162.264C202.853 162.264 203.271 162.335 203.675 162.478C204.08 162.621 204.443 162.844 204.764 163.149C205.086 163.454 205.339 163.85 205.525 164.337C205.71 164.821 205.803 165.41 205.803 166.102V166.629H199.733V165.516H204.346C204.346 165.125 204.267 164.778 204.108 164.477C203.949 164.172 203.725 163.931 203.437 163.756C203.152 163.58 202.817 163.492 202.432 163.492C202.015 163.492 201.65 163.595 201.339 163.8C201.03 164.003 200.792 164.268 200.623 164.596C200.457 164.921 200.374 165.274 200.374 165.655V166.525C200.374 167.035 200.464 167.469 200.643 167.827C200.825 168.185 201.078 168.459 201.403 168.648C201.728 168.833 202.108 168.926 202.542 168.926C202.823 168.926 203.08 168.886 203.312 168.807C203.544 168.724 203.745 168.601 203.914 168.439C204.083 168.277 204.212 168.076 204.302 167.837L205.709 168.091C205.596 168.505 205.394 168.868 205.102 169.18C204.814 169.488 204.451 169.728 204.013 169.901C203.579 170.07 203.084 170.154 202.527 170.154ZM207.452 170V162.364H208.889V163.577H208.969C209.108 163.166 209.353 162.843 209.705 162.607C210.059 162.369 210.46 162.249 210.908 162.249C211 162.249 211.11 162.253 211.236 162.259C211.365 162.266 211.466 162.274 211.539 162.284V163.706C211.479 163.689 211.373 163.671 211.221 163.651C211.068 163.628 210.916 163.616 210.763 163.616C210.412 163.616 210.099 163.691 209.824 163.84C209.552 163.986 209.337 164.19 209.178 164.452C209.018 164.71 208.939 165.005 208.939 165.337V170H207.452ZM212.825 170V162.364H214.252V163.607H214.347C214.506 163.186 214.766 162.857 215.127 162.622C215.489 162.384 215.921 162.264 216.425 162.264C216.935 162.264 217.363 162.384 217.708 162.622C218.056 162.861 218.312 163.189 218.478 163.607H218.558C218.74 163.199 219.03 162.874 219.428 162.632C219.825 162.387 220.299 162.264 220.85 162.264C221.542 162.264 222.107 162.481 222.545 162.915C222.986 163.35 223.206 164.004 223.206 164.879V170H221.72V165.018C221.72 164.501 221.579 164.127 221.297 163.895C221.015 163.663 220.679 163.547 220.288 163.547C219.804 163.547 219.428 163.696 219.159 163.994C218.891 164.289 218.757 164.669 218.757 165.133V170H217.275V164.924C217.275 164.51 217.146 164.177 216.887 163.925C216.629 163.673 216.292 163.547 215.878 163.547C215.596 163.547 215.336 163.621 215.097 163.771C214.862 163.916 214.672 164.12 214.526 164.382C214.383 164.644 214.312 164.947 214.312 165.292V170H212.825ZM227.421 170.169C226.937 170.169 226.499 170.08 226.108 169.901C225.717 169.718 225.407 169.455 225.179 169.11C224.953 168.765 224.841 168.343 224.841 167.842C224.841 167.411 224.923 167.057 225.089 166.778C225.255 166.5 225.479 166.28 225.76 166.117C226.042 165.955 226.357 165.832 226.705 165.749C227.053 165.666 227.408 165.603 227.769 165.56C228.226 165.507 228.597 165.464 228.882 165.431C229.167 165.395 229.375 165.337 229.504 165.257C229.633 165.178 229.698 165.048 229.698 164.869V164.835C229.698 164.4 229.575 164.064 229.33 163.825C229.088 163.587 228.727 163.467 228.246 163.467C227.746 163.467 227.351 163.578 227.063 163.8C226.778 164.019 226.581 164.263 226.471 164.531L225.074 164.213C225.24 163.749 225.482 163.375 225.8 163.089C226.122 162.801 226.491 162.592 226.909 162.463C227.326 162.33 227.766 162.264 228.226 162.264C228.531 162.264 228.854 162.301 229.196 162.374C229.54 162.443 229.862 162.572 230.16 162.761C230.462 162.95 230.709 163.22 230.901 163.572C231.093 163.92 231.189 164.372 231.189 164.929V170H229.738V168.956H229.678C229.582 169.148 229.438 169.337 229.245 169.523C229.053 169.708 228.806 169.862 228.505 169.985C228.203 170.108 227.842 170.169 227.421 170.169ZM227.744 168.976C228.155 168.976 228.506 168.895 228.798 168.732C229.093 168.57 229.317 168.358 229.469 168.096C229.625 167.831 229.703 167.547 229.703 167.246V166.261C229.65 166.314 229.547 166.364 229.395 166.411C229.245 166.454 229.075 166.492 228.882 166.525C228.69 166.555 228.503 166.583 228.321 166.609C228.138 166.633 227.986 166.652 227.863 166.669C227.575 166.705 227.311 166.767 227.073 166.853C226.837 166.939 226.649 167.063 226.506 167.226C226.367 167.385 226.297 167.597 226.297 167.862C226.297 168.23 226.433 168.509 226.705 168.697C226.977 168.883 227.323 168.976 227.744 168.976ZM234.656 165.466V170H233.169V162.364H234.596V163.607H234.691C234.866 163.202 235.141 162.877 235.516 162.632C235.894 162.387 236.369 162.264 236.943 162.264C237.463 162.264 237.919 162.374 238.31 162.592C238.701 162.808 239.004 163.129 239.22 163.557C239.435 163.984 239.543 164.513 239.543 165.143V170H238.056V165.322C238.056 164.768 237.912 164.336 237.624 164.024C237.335 163.709 236.939 163.552 236.436 163.552C236.091 163.552 235.784 163.626 235.516 163.776C235.251 163.925 235.04 164.143 234.884 164.432C234.732 164.717 234.656 165.062 234.656 165.466ZM242.203 172.864C241.981 172.864 241.778 172.845 241.596 172.809C241.414 172.776 241.278 172.739 241.188 172.7L241.546 171.482C241.818 171.554 242.06 171.586 242.272 171.576C242.484 171.566 242.672 171.487 242.834 171.337C243 171.188 243.146 170.945 243.271 170.607L243.455 170.099L240.661 162.364H242.252L244.186 168.29H244.266L246.2 162.364H247.796L244.649 171.019C244.503 171.417 244.317 171.753 244.092 172.028C243.866 172.307 243.598 172.516 243.286 172.655C242.975 172.794 242.614 172.864 242.203 172.864ZM257.397 164.263V165.555H252.883V164.263H257.397ZM263.203 170V159.818H269.517V161.141H264.739V164.243H269.064V165.56H264.739V170H263.203ZM271.191 170V162.364H272.627V163.577H272.707C272.846 163.166 273.092 162.843 273.443 162.607C273.797 162.369 274.199 162.249 274.646 162.249C274.739 162.249 274.848 162.253 274.974 162.259C275.103 162.266 275.204 162.274 275.277 162.284V163.706C275.218 163.689 275.112 163.671 274.959 163.651C274.807 163.628 274.654 163.616 274.502 163.616C274.15 163.616 273.837 163.691 273.562 163.84C273.29 163.986 273.075 164.19 272.916 164.452C272.757 164.71 272.677 165.005 272.677 165.337V170H271.191ZM278.718 170.169C278.234 170.169 277.796 170.08 277.405 169.901C277.014 169.718 276.704 169.455 276.475 169.11C276.25 168.765 276.137 168.343 276.137 167.842C276.137 167.411 276.22 167.057 276.386 166.778C276.552 166.5 276.775 166.28 277.057 166.117C277.339 165.955 277.654 165.832 278.002 165.749C278.35 165.666 278.704 165.603 279.066 165.56C279.523 165.507 279.894 165.464 280.179 165.431C280.464 165.395 280.672 165.337 280.801 165.257C280.93 165.178 280.995 165.048 280.995 164.869V164.835C280.995 164.4 280.872 164.064 280.627 163.825C280.385 163.587 280.024 163.467 279.543 163.467C279.042 163.467 278.648 163.578 278.36 163.8C278.075 164.019 277.877 164.263 277.768 164.531L276.371 164.213C276.537 163.749 276.779 163.375 277.097 163.089C277.418 162.801 277.788 162.592 278.206 162.463C278.623 162.33 279.062 162.264 279.523 162.264C279.828 162.264 280.151 162.301 280.493 162.374C280.837 162.443 281.159 162.572 281.457 162.761C281.759 162.95 282.006 163.22 282.198 163.572C282.39 163.92 282.486 164.372 282.486 164.929V170H281.034V168.956H280.975C280.879 169.148 280.734 169.337 280.542 169.523C280.35 169.708 280.103 169.862 279.801 169.985C279.5 170.108 279.139 170.169 278.718 170.169ZM279.041 168.976C279.452 168.976 279.803 168.895 280.095 168.732C280.39 168.57 280.614 168.358 280.766 168.096C280.922 167.831 281 167.547 281 167.246V166.261C280.947 166.314 280.844 166.364 280.691 166.411C280.542 166.454 280.372 166.492 280.179 166.525C279.987 166.555 279.8 166.583 279.618 166.609C279.435 166.633 279.283 166.652 279.16 166.669C278.872 166.705 278.608 166.767 278.37 166.853C278.134 166.939 277.945 167.063 277.803 167.226C277.664 167.385 277.594 167.597 277.594 167.862C277.594 168.23 277.73 168.509 278.002 168.697C278.274 168.883 278.62 168.976 279.041 168.976ZM285.953 165.466V170H284.466V162.364H285.893V163.607H285.987C286.163 163.202 286.438 162.877 286.813 162.632C287.191 162.387 287.666 162.264 288.24 162.264C288.76 162.264 289.216 162.374 289.607 162.592C289.998 162.808 290.301 163.129 290.517 163.557C290.732 163.984 290.84 164.513 290.84 165.143V170H289.353V165.322C289.353 164.768 289.209 164.336 288.921 164.024C288.632 163.709 288.236 163.552 287.732 163.552C287.388 163.552 287.081 163.626 286.813 163.776C286.548 163.925 286.337 164.143 286.181 164.432C286.029 164.717 285.953 165.062 285.953 165.466ZM294.2 167.41L294.191 165.595H294.449L297.492 162.364H299.271L295.801 166.043H295.568L294.2 167.41ZM292.833 170V159.818H294.32V170H292.833ZM297.656 170L294.921 166.371L295.945 165.332L299.48 170H297.656ZM304.26 162.364V163.557H299.945V162.364H304.26ZM301.128 170V161.479C301.128 161.001 301.233 160.605 301.442 160.29C301.65 159.972 301.927 159.735 302.272 159.58C302.617 159.42 302.991 159.341 303.395 159.341C303.694 159.341 303.949 159.366 304.161 159.415C304.373 159.462 304.531 159.505 304.633 159.545L304.285 160.748C304.216 160.728 304.126 160.705 304.017 160.678C303.907 160.648 303.775 160.634 303.619 160.634C303.258 160.634 302.999 160.723 302.844 160.902C302.691 161.081 302.615 161.339 302.615 161.678V170H301.128ZM305.794 170V162.364H307.231V163.577H307.311C307.45 163.166 307.695 162.843 308.046 162.607C308.401 162.369 308.802 162.249 309.249 162.249C309.342 162.249 309.452 162.253 309.578 162.259C309.707 162.266 309.808 162.274 309.881 162.284V163.706C309.821 163.689 309.715 163.671 309.563 163.651C309.41 163.628 309.258 163.616 309.105 163.616C308.754 163.616 308.441 163.691 308.166 163.84C307.894 163.986 307.678 164.19 307.519 164.452C307.36 164.71 307.281 165.005 307.281 165.337V170H305.794ZM316.005 166.833V162.364H317.496V170H316.034V168.678H315.955C315.779 169.085 315.498 169.425 315.11 169.697C314.725 169.965 314.246 170.099 313.673 170.099C313.182 170.099 312.748 169.992 312.37 169.776C311.996 169.558 311.701 169.234 311.485 168.807C311.273 168.379 311.167 167.851 311.167 167.221V162.364H312.654V167.042C312.654 167.562 312.798 167.977 313.086 168.285C313.375 168.593 313.749 168.747 314.21 168.747C314.488 168.747 314.765 168.678 315.04 168.538C315.319 168.399 315.549 168.189 315.731 167.907C315.917 167.625 316.008 167.267 316.005 166.833ZM323.058 162.364V163.557H318.887V162.364H323.058ZM320.006 160.534H321.492V167.758C321.492 168.046 321.535 168.263 321.621 168.409C321.707 168.552 321.818 168.649 321.954 168.702C322.094 168.752 322.244 168.777 322.407 168.777C322.526 168.777 322.631 168.769 322.72 168.752C322.809 168.736 322.879 168.722 322.929 168.712L323.197 169.94C323.111 169.973 322.988 170.007 322.829 170.04C322.67 170.076 322.471 170.096 322.233 170.099C321.842 170.106 321.477 170.036 321.139 169.891C320.801 169.745 320.528 169.519 320.319 169.214C320.11 168.91 320.006 168.527 320.006 168.066V160.534Z" fill="#495151"/>
<rect x="123" y="185" width="251" height="1" fill="#F4F5F9"/>
<path d="M124.119 211V200.818H130.502V202.141H125.655V205.243H130.169V206.56H125.655V209.678H130.562V211H124.119ZM137.272 207.833V203.364H138.764V211H137.302V209.678H137.222C137.047 210.085 136.765 210.425 136.377 210.697C135.993 210.965 135.514 211.099 134.941 211.099C134.45 211.099 134.016 210.992 133.638 210.776C133.263 210.558 132.968 210.234 132.753 209.807C132.541 209.379 132.435 208.851 132.435 208.221V203.364H133.921V208.042C133.921 208.562 134.066 208.977 134.354 209.285C134.642 209.593 135.017 209.747 135.477 209.747C135.756 209.747 136.033 209.678 136.308 209.538C136.586 209.399 136.816 209.189 136.999 208.907C137.184 208.625 137.276 208.267 137.272 207.833ZM140.761 211V203.364H142.198V204.577H142.277C142.417 204.166 142.662 203.843 143.013 203.607C143.368 203.369 143.769 203.249 144.216 203.249C144.309 203.249 144.418 203.253 144.544 203.259C144.674 203.266 144.775 203.274 144.848 203.284V204.706C144.788 204.689 144.682 204.671 144.529 204.651C144.377 204.628 144.225 204.616 144.072 204.616C143.721 204.616 143.408 204.691 143.132 204.84C142.861 204.986 142.645 205.19 142.486 205.452C142.327 205.71 142.248 206.005 142.248 206.337V211H140.761ZM149.077 211.154C148.361 211.154 147.737 210.99 147.203 210.662C146.669 210.334 146.255 209.875 145.96 209.285C145.665 208.695 145.518 208.005 145.518 207.217C145.518 206.424 145.665 205.732 145.96 205.138C146.255 204.545 146.669 204.085 147.203 203.756C147.737 203.428 148.361 203.264 149.077 203.264C149.793 203.264 150.418 203.428 150.952 203.756C151.485 204.085 151.899 204.545 152.194 205.138C152.489 205.732 152.637 206.424 152.637 207.217C152.637 208.005 152.489 208.695 152.194 209.285C151.899 209.875 151.485 210.334 150.952 210.662C150.418 210.99 149.793 211.154 149.077 211.154ZM149.082 209.906C149.546 209.906 149.931 209.784 150.236 209.538C150.541 209.293 150.766 208.967 150.912 208.559C151.061 208.151 151.135 207.702 151.135 207.212C151.135 206.724 151.061 206.277 150.912 205.869C150.766 205.458 150.541 205.129 150.236 204.88C149.931 204.631 149.546 204.507 149.082 204.507C148.615 204.507 148.227 204.631 147.919 204.88C147.614 205.129 147.387 205.458 147.238 205.869C147.092 206.277 147.019 206.724 147.019 207.212C147.019 207.702 147.092 208.151 147.238 208.559C147.387 208.967 147.614 209.293 147.919 209.538C148.227 209.784 148.615 209.906 149.082 209.906ZM154.296 213.864V203.364H155.748V204.602H155.872C155.958 204.442 156.083 204.259 156.245 204.05C156.407 203.841 156.633 203.659 156.921 203.503C157.21 203.344 157.591 203.264 158.065 203.264C158.681 203.264 159.231 203.42 159.715 203.732C160.199 204.043 160.579 204.492 160.854 205.079C161.132 205.665 161.271 206.371 161.271 207.197C161.271 208.022 161.134 208.73 160.859 209.32C160.584 209.906 160.206 210.359 159.725 210.677C159.245 210.992 158.696 211.149 158.08 211.149C157.616 211.149 157.236 211.071 156.941 210.915C156.649 210.76 156.421 210.577 156.255 210.369C156.089 210.16 155.962 209.974 155.872 209.812H155.783V213.864H154.296ZM155.753 207.182C155.753 207.719 155.831 208.189 155.987 208.594C156.142 208.998 156.368 209.315 156.663 209.543C156.958 209.769 157.319 209.881 157.746 209.881C158.191 209.881 158.562 209.764 158.86 209.528C159.158 209.29 159.384 208.967 159.536 208.559C159.692 208.151 159.77 207.692 159.77 207.182C159.77 206.678 159.694 206.226 159.541 205.825C159.392 205.424 159.167 205.107 158.865 204.875C158.567 204.643 158.194 204.527 157.746 204.527C157.316 204.527 156.951 204.638 156.653 204.86C156.358 205.082 156.134 205.392 155.982 205.79C155.829 206.187 155.753 206.652 155.753 207.182ZM166.228 211.154C165.476 211.154 164.828 210.993 164.284 210.672C163.744 210.347 163.326 209.891 163.031 209.305C162.74 208.715 162.594 208.024 162.594 207.232C162.594 206.449 162.74 205.76 163.031 205.163C163.326 204.567 163.737 204.101 164.264 203.766C164.795 203.432 165.414 203.264 166.124 203.264C166.554 203.264 166.972 203.335 167.376 203.478C167.781 203.621 168.144 203.844 168.465 204.149C168.787 204.454 169.04 204.85 169.226 205.337C169.411 205.821 169.504 206.41 169.504 207.102V207.629H163.434V206.516H168.048C168.048 206.125 167.968 205.778 167.809 205.477C167.65 205.172 167.426 204.931 167.138 204.756C166.853 204.58 166.518 204.492 166.134 204.492C165.716 204.492 165.351 204.595 165.04 204.8C164.732 205.003 164.493 205.268 164.324 205.596C164.158 205.921 164.075 206.274 164.075 206.655V207.525C164.075 208.035 164.165 208.469 164.344 208.827C164.526 209.185 164.78 209.459 165.104 209.648C165.429 209.833 165.809 209.926 166.243 209.926C166.525 209.926 166.781 209.886 167.013 209.807C167.246 209.724 167.446 209.601 167.615 209.439C167.784 209.277 167.913 209.076 168.003 208.837L169.41 209.091C169.297 209.505 169.095 209.868 168.803 210.18C168.515 210.488 168.152 210.728 167.714 210.901C167.28 211.07 166.785 211.154 166.228 211.154ZM179.358 205.263V206.555H174.844V205.263H179.358ZM195.416 200.818H196.957V207.515C196.957 208.228 196.79 208.859 196.455 209.409C196.121 209.956 195.65 210.387 195.043 210.702C194.437 211.013 193.726 211.169 192.911 211.169C192.098 211.169 191.389 211.013 190.783 210.702C190.176 210.387 189.705 209.956 189.371 209.409C189.036 208.859 188.869 208.228 188.869 207.515V200.818H190.405V207.391C190.405 207.851 190.506 208.261 190.708 208.619C190.914 208.977 191.204 209.258 191.578 209.464C191.953 209.666 192.397 209.767 192.911 209.767C193.428 209.767 193.873 209.666 194.248 209.464C194.626 209.258 194.914 208.977 195.113 208.619C195.315 208.261 195.416 207.851 195.416 207.391V200.818ZM200.558 206.466V211H199.072V203.364H200.498V204.607H200.593C200.769 204.202 201.044 203.877 201.418 203.632C201.796 203.387 202.272 203.264 202.845 203.264C203.365 203.264 203.821 203.374 204.212 203.592C204.603 203.808 204.907 204.129 205.122 204.557C205.337 204.984 205.445 205.513 205.445 206.143V211H203.959V206.322C203.959 205.768 203.814 205.336 203.526 205.024C203.238 204.709 202.842 204.552 202.338 204.552C201.993 204.552 201.687 204.626 201.418 204.776C201.153 204.925 200.943 205.143 200.787 205.432C200.634 205.717 200.558 206.062 200.558 206.466ZM207.439 211V203.364H208.925V211H207.439ZM208.189 202.185C207.931 202.185 207.709 202.099 207.523 201.927C207.341 201.751 207.25 201.542 207.25 201.3C207.25 201.055 207.341 200.846 207.523 200.674C207.709 200.498 207.931 200.411 208.189 200.411C208.448 200.411 208.668 200.498 208.851 200.674C209.036 200.846 209.129 201.055 209.129 201.3C209.129 201.542 209.036 201.751 208.851 201.927C208.668 202.099 208.448 202.185 208.189 202.185ZM214.49 203.364V204.557H210.319V203.364H214.49ZM211.437 201.534H212.924V208.758C212.924 209.046 212.967 209.263 213.053 209.409C213.139 209.552 213.25 209.649 213.386 209.702C213.525 209.752 213.676 209.777 213.838 209.777C213.958 209.777 214.062 209.769 214.152 209.752C214.241 209.736 214.311 209.722 214.36 209.712L214.629 210.94C214.543 210.973 214.42 211.007 214.261 211.04C214.102 211.076 213.903 211.096 213.664 211.099C213.273 211.106 212.909 211.036 212.571 210.891C212.233 210.745 211.959 210.519 211.75 210.214C211.542 209.91 211.437 209.527 211.437 209.066V201.534ZM219.343 211.154C218.591 211.154 217.943 210.993 217.399 210.672C216.859 210.347 216.441 209.891 216.146 209.305C215.855 208.715 215.709 208.024 215.709 207.232C215.709 206.449 215.855 205.76 216.146 205.163C216.441 204.567 216.852 204.101 217.379 203.766C217.91 203.432 218.53 203.264 219.239 203.264C219.67 203.264 220.087 203.335 220.492 203.478C220.896 203.621 221.259 203.844 221.58 204.149C221.902 204.454 222.155 204.85 222.341 205.337C222.527 205.821 222.619 206.41 222.619 207.102V207.629H216.549V206.516H221.163C221.163 206.125 221.083 205.778 220.924 205.477C220.765 205.172 220.541 204.931 220.253 204.756C219.968 204.58 219.633 204.492 219.249 204.492C218.831 204.492 218.467 204.595 218.155 204.8C217.847 205.003 217.608 205.268 217.439 205.596C217.273 205.921 217.191 206.274 217.191 206.655V207.525C217.191 208.035 217.28 208.469 217.459 208.827C217.641 209.185 217.895 209.459 218.22 209.648C218.544 209.833 218.924 209.926 219.358 209.926C219.64 209.926 219.897 209.886 220.129 209.807C220.361 209.724 220.561 209.601 220.73 209.439C220.899 209.277 221.029 209.076 221.118 208.837L222.525 209.091C222.412 209.505 222.21 209.868 221.919 210.18C221.63 210.488 221.267 210.728 220.83 210.901C220.396 211.07 219.9 211.154 219.343 211.154ZM227.127 211.149C226.511 211.149 225.961 210.992 225.477 210.677C224.996 210.359 224.618 209.906 224.343 209.32C224.072 208.73 223.936 208.022 223.936 207.197C223.936 206.371 224.073 205.665 224.348 205.079C224.627 204.492 225.008 204.043 225.492 203.732C225.976 203.42 226.524 203.264 227.137 203.264C227.611 203.264 227.993 203.344 228.281 203.503C228.573 203.659 228.798 203.841 228.957 204.05C229.119 204.259 229.245 204.442 229.335 204.602H229.424V200.818H230.911V211H229.459V209.812H229.335C229.245 209.974 229.116 210.16 228.947 210.369C228.781 210.577 228.553 210.76 228.261 210.915C227.969 211.071 227.592 211.149 227.127 211.149ZM227.456 209.881C227.883 209.881 228.244 209.769 228.539 209.543C228.838 209.315 229.063 208.998 229.216 208.594C229.371 208.189 229.449 207.719 229.449 207.182C229.449 206.652 229.373 206.187 229.221 205.79C229.068 205.392 228.844 205.082 228.549 204.86C228.254 204.638 227.89 204.527 227.456 204.527C227.008 204.527 226.635 204.643 226.337 204.875C226.039 205.107 225.813 205.424 225.661 205.825C225.512 206.226 225.437 206.678 225.437 207.182C225.437 207.692 225.513 208.151 225.666 208.559C225.818 208.967 226.044 209.29 226.342 209.528C226.644 209.764 227.015 209.881 227.456 209.881ZM236.857 211V200.818H238.393V205.68H238.517L242.788 200.818H244.722L240.615 205.402L244.737 211H242.887L239.596 206.451L238.393 207.833V211H236.857ZM246.513 211V203.364H247.999V211H246.513ZM247.264 202.185C247.005 202.185 246.783 202.099 246.597 201.927C246.415 201.751 246.324 201.542 246.324 201.3C246.324 201.055 246.415 200.846 246.597 200.674C246.783 200.498 247.005 200.411 247.264 200.411C247.522 200.411 247.743 200.498 247.925 200.674C248.11 200.846 248.203 201.055 248.203 201.3C248.203 201.542 248.11 201.751 247.925 201.927C247.743 202.099 247.522 202.185 247.264 202.185ZM251.486 206.466V211H249.999V203.364H251.426V204.607H251.521C251.696 204.202 251.971 203.877 252.346 203.632C252.724 203.387 253.199 203.264 253.773 203.264C254.293 203.264 254.749 203.374 255.14 203.592C255.531 203.808 255.834 204.129 256.05 204.557C256.265 204.984 256.373 205.513 256.373 206.143V211H254.886V206.322C254.886 205.768 254.742 205.336 254.454 205.024C254.165 204.709 253.769 204.552 253.266 204.552C252.921 204.552 252.614 204.626 252.346 204.776C252.081 204.925 251.87 205.143 251.714 205.432C251.562 205.717 251.486 206.062 251.486 206.466ZM261.568 214.023C260.962 214.023 260.44 213.943 260.002 213.784C259.568 213.625 259.213 213.415 258.938 213.153C258.663 212.891 258.458 212.604 258.322 212.293L259.599 211.766C259.689 211.911 259.808 212.066 259.957 212.228C260.11 212.394 260.315 212.535 260.574 212.651C260.836 212.767 261.172 212.825 261.583 212.825C262.147 212.825 262.612 212.687 262.98 212.412C263.348 212.14 263.532 211.706 263.532 211.109V209.608H263.438C263.348 209.77 263.219 209.951 263.05 210.15C262.884 210.349 262.655 210.521 262.364 210.667C262.072 210.813 261.692 210.886 261.225 210.886C260.622 210.886 260.078 210.745 259.594 210.463C259.114 210.178 258.733 209.759 258.451 209.205C258.173 208.648 258.033 207.964 258.033 207.152C258.033 206.34 258.171 205.644 258.446 205.064C258.724 204.484 259.106 204.04 259.589 203.732C260.073 203.42 260.622 203.264 261.235 203.264C261.709 203.264 262.092 203.344 262.384 203.503C262.675 203.659 262.902 203.841 263.065 204.05C263.23 204.259 263.358 204.442 263.447 204.602H263.557V203.364H265.013V211.169C265.013 211.825 264.861 212.364 264.556 212.785C264.251 213.206 263.839 213.517 263.318 213.719C262.801 213.922 262.218 214.023 261.568 214.023ZM261.553 209.653C261.981 209.653 262.342 209.553 262.637 209.354C262.935 209.152 263.161 208.864 263.313 208.489C263.469 208.112 263.547 207.659 263.547 207.132C263.547 206.618 263.471 206.166 263.318 205.775C263.166 205.384 262.942 205.079 262.647 204.86C262.352 204.638 261.987 204.527 261.553 204.527C261.106 204.527 260.733 204.643 260.435 204.875C260.136 205.104 259.911 205.415 259.759 205.81C259.609 206.204 259.535 206.645 259.535 207.132C259.535 207.633 259.611 208.072 259.763 208.45C259.916 208.827 260.141 209.122 260.44 209.335C260.741 209.547 261.112 209.653 261.553 209.653ZM269.866 211.149C269.249 211.149 268.699 210.992 268.215 210.677C267.735 210.359 267.357 209.906 267.082 209.32C266.81 208.73 266.674 208.022 266.674 207.197C266.674 206.371 266.812 205.665 267.087 205.079C267.365 204.492 267.746 204.043 268.23 203.732C268.714 203.42 269.263 203.264 269.876 203.264C270.35 203.264 270.731 203.344 271.019 203.503C271.311 203.659 271.536 203.841 271.695 204.05C271.858 204.259 271.984 204.442 272.073 204.602H272.163V200.818H273.649V211H272.197V209.812H272.073C271.984 209.974 271.854 210.16 271.685 210.369C271.52 210.577 271.291 210.76 270.999 210.915C270.708 211.071 270.33 211.149 269.866 211.149ZM270.194 209.881C270.621 209.881 270.983 209.769 271.278 209.543C271.576 209.315 271.801 208.998 271.954 208.594C272.11 208.189 272.188 207.719 272.188 207.182C272.188 206.652 272.111 206.187 271.959 205.79C271.806 205.392 271.583 205.082 271.288 204.86C270.993 204.638 270.628 204.527 270.194 204.527C269.746 204.527 269.374 204.643 269.075 204.875C268.777 205.107 268.552 205.424 268.399 205.825C268.25 206.226 268.175 206.678 268.175 207.182C268.175 207.692 268.252 208.151 268.404 208.559C268.557 208.967 268.782 209.29 269.08 209.528C269.382 209.764 269.753 209.881 270.194 209.881ZM278.987 211.154C278.271 211.154 277.647 210.99 277.113 210.662C276.579 210.334 276.165 209.875 275.87 209.285C275.575 208.695 275.428 208.005 275.428 207.217C275.428 206.424 275.575 205.732 275.87 205.138C276.165 204.545 276.579 204.085 277.113 203.756C277.647 203.428 278.271 203.264 278.987 203.264C279.703 203.264 280.328 203.428 280.862 203.756C281.395 204.085 281.81 204.545 282.105 205.138C282.4 205.732 282.547 206.424 282.547 207.217C282.547 208.005 282.4 208.695 282.105 209.285C281.81 209.875 281.395 210.334 280.862 210.662C280.328 210.99 279.703 211.154 278.987 211.154ZM278.992 209.906C279.456 209.906 279.841 209.784 280.146 209.538C280.451 209.293 280.676 208.967 280.822 208.559C280.971 208.151 281.046 207.702 281.046 207.212C281.046 206.724 280.971 206.277 280.822 205.869C280.676 205.458 280.451 205.129 280.146 204.88C279.841 204.631 279.456 204.507 278.992 204.507C278.525 204.507 278.137 204.631 277.829 204.88C277.524 205.129 277.297 205.458 277.148 205.869C277.002 206.277 276.929 206.724 276.929 207.212C276.929 207.702 277.002 208.151 277.148 208.559C277.297 208.967 277.524 209.293 277.829 209.538C278.137 209.784 278.525 209.906 278.992 209.906ZM284.206 211V203.364H285.633V204.607H285.728C285.887 204.186 286.147 203.857 286.508 203.622C286.869 203.384 287.302 203.264 287.806 203.264C288.316 203.264 288.744 203.384 289.088 203.622C289.436 203.861 289.693 204.189 289.859 204.607H289.939C290.121 204.199 290.411 203.874 290.809 203.632C291.206 203.387 291.68 203.264 292.23 203.264C292.923 203.264 293.488 203.481 293.926 203.915C294.367 204.35 294.587 205.004 294.587 205.879V211H293.1V206.018C293.1 205.501 292.96 205.127 292.678 204.895C292.396 204.663 292.06 204.547 291.669 204.547C291.185 204.547 290.809 204.696 290.54 204.994C290.272 205.289 290.137 205.669 290.137 206.133V211H288.656V205.924C288.656 205.51 288.527 205.177 288.268 204.925C288.01 204.673 287.673 204.547 287.259 204.547C286.977 204.547 286.717 204.621 286.478 204.771C286.243 204.916 286.052 205.12 285.907 205.382C285.764 205.644 285.693 205.947 285.693 206.292V211H284.206ZM304.784 205.263V206.555H300.27V205.263H304.784ZM310.589 211V200.818H312.126V209.678H316.739V211H310.589ZM321.589 211.154C320.873 211.154 320.248 210.99 319.715 210.662C319.181 210.334 318.767 209.875 318.472 209.285C318.177 208.695 318.029 208.005 318.029 207.217C318.029 206.424 318.177 205.732 318.472 205.138C318.767 204.545 319.181 204.085 319.715 203.756C320.248 203.428 320.873 203.264 321.589 203.264C322.305 203.264 322.93 203.428 323.463 203.756C323.997 204.085 324.411 204.545 324.706 205.138C325.001 205.732 325.149 206.424 325.149 207.217C325.149 208.005 325.001 208.695 324.706 209.285C324.411 209.875 323.997 210.334 323.463 210.662C322.93 210.99 322.305 211.154 321.589 211.154ZM321.594 209.906C322.058 209.906 322.442 209.784 322.747 209.538C323.052 209.293 323.278 208.967 323.423 208.559C323.573 208.151 323.647 207.702 323.647 207.212C323.647 206.724 323.573 206.277 323.423 205.869C323.278 205.458 323.052 205.129 322.747 204.88C322.442 204.631 322.058 204.507 321.594 204.507C321.127 204.507 320.739 204.631 320.431 204.88C320.126 205.129 319.899 205.458 319.749 205.869C319.604 206.277 319.531 206.724 319.531 207.212C319.531 207.702 319.604 208.151 319.749 208.559C319.899 208.967 320.126 209.293 320.431 209.538C320.739 209.784 321.127 209.906 321.594 209.906ZM328.294 206.466V211H326.808V203.364H328.235V204.607H328.329C328.505 204.202 328.78 203.877 329.154 203.632C329.532 203.387 330.008 203.264 330.581 203.264C331.102 203.264 331.557 203.374 331.949 203.592C332.34 203.808 332.643 204.129 332.858 204.557C333.074 204.984 333.181 205.513 333.181 206.143V211H331.695V206.322C331.695 205.768 331.551 205.336 331.262 205.024C330.974 204.709 330.578 204.552 330.074 204.552C329.73 204.552 329.423 204.626 329.154 204.776C328.889 204.925 328.679 205.143 328.523 205.432C328.371 205.717 328.294 206.062 328.294 206.466ZM338.034 211.149C337.417 211.149 336.867 210.992 336.383 210.677C335.903 210.359 335.525 209.906 335.25 209.32C334.978 208.73 334.842 208.022 334.842 207.197C334.842 206.371 334.98 205.665 335.255 205.079C335.533 204.492 335.914 204.043 336.398 203.732C336.882 203.42 337.431 203.264 338.044 203.264C338.518 203.264 338.899 203.344 339.187 203.503C339.479 203.659 339.704 203.841 339.863 204.05C340.026 204.259 340.152 204.442 340.241 204.602H340.331V200.818H341.817V211H340.365V209.812H340.241C340.152 209.974 340.022 210.16 339.853 210.369C339.688 210.577 339.459 210.76 339.167 210.915C338.876 211.071 338.498 211.149 338.034 211.149ZM338.362 209.881C338.789 209.881 339.151 209.769 339.446 209.543C339.744 209.315 339.969 208.998 340.122 208.594C340.278 208.189 340.355 207.719 340.355 207.182C340.355 206.652 340.279 206.187 340.127 205.79C339.974 205.392 339.751 205.082 339.456 204.86C339.161 204.638 338.796 204.527 338.362 204.527C337.914 204.527 337.542 204.643 337.243 204.875C336.945 205.107 336.72 205.424 336.567 205.825C336.418 206.226 336.343 206.678 336.343 207.182C336.343 207.692 336.42 208.151 336.572 208.559C336.725 208.967 336.95 209.29 337.248 209.528C337.55 209.764 337.921 209.881 338.362 209.881ZM347.155 211.154C346.439 211.154 345.815 210.99 345.281 210.662C344.747 210.334 344.333 209.875 344.038 209.285C343.743 208.695 343.596 208.005 343.596 207.217C343.596 206.424 343.743 205.732 344.038 205.138C344.333 204.545 344.747 204.085 345.281 203.756C345.815 203.428 346.439 203.264 347.155 203.264C347.871 203.264 348.496 203.428 349.03 203.756C349.563 204.085 349.978 204.545 350.273 205.138C350.568 205.732 350.715 206.424 350.715 207.217C350.715 208.005 350.568 208.695 350.273 209.285C349.978 209.875 349.563 210.334 349.03 210.662C348.496 210.99 347.871 211.154 347.155 211.154ZM347.16 209.906C347.624 209.906 348.009 209.784 348.314 209.538C348.619 209.293 348.844 208.967 348.99 208.559C349.139 208.151 349.214 207.702 349.214 207.212C349.214 206.724 349.139 206.277 348.99 205.869C348.844 205.458 348.619 205.129 348.314 204.88C348.009 204.631 347.624 204.507 347.16 204.507C346.693 204.507 346.305 204.631 345.997 204.88C345.692 205.129 345.465 205.458 345.316 205.869C345.17 206.277 345.097 206.724 345.097 207.212C345.097 207.702 345.17 208.151 345.316 208.559C345.465 208.967 345.692 209.293 345.997 209.538C346.305 209.784 346.693 209.906 347.16 209.906ZM353.861 206.466V211H352.374V203.364H353.801V204.607H353.896C354.071 204.202 354.346 203.877 354.721 203.632C355.099 203.387 355.574 203.264 356.148 203.264C356.668 203.264 357.124 203.374 357.515 203.592C357.906 203.808 358.209 204.129 358.425 204.557C358.64 204.984 358.748 205.513 358.748 206.143V211H357.261V206.322C357.261 205.768 357.117 205.336 356.829 205.024C356.54 204.709 356.144 204.552 355.641 204.552C355.296 204.552 354.989 204.626 354.721 204.776C354.456 204.925 354.245 205.143 354.089 205.432C353.937 205.717 353.861 206.062 353.861 206.466Z" fill="#495151"/>
<rect x="123" y="226" width="251" height="1" fill="#F4F5F9"/>
<path d="M126.992 250.29V243.568H128.33V250.29H126.992ZM124.303 247.595V246.263H131.024V247.595H124.303ZM136.664 252.139C136.041 252.139 135.481 252.02 134.984 251.781C134.49 251.539 134.096 251.208 133.801 250.787C133.506 250.366 133.348 249.885 133.328 249.345H134.82C134.856 249.783 135.05 250.142 135.402 250.424C135.753 250.706 136.174 250.847 136.664 250.847C137.056 250.847 137.402 250.757 137.703 250.578C138.008 250.396 138.247 250.146 138.419 249.827C138.595 249.509 138.683 249.146 138.683 248.739C138.683 248.324 138.593 247.955 138.414 247.63C138.235 247.305 137.989 247.05 137.674 246.864C137.362 246.679 137.004 246.584 136.6 246.581C136.292 246.581 135.982 246.634 135.67 246.74C135.359 246.846 135.107 246.985 134.914 247.158L133.507 246.949L134.079 241.818H139.677V243.136H135.357L135.034 245.984H135.093C135.292 245.792 135.556 245.631 135.884 245.502C136.215 245.373 136.57 245.308 136.948 245.308C137.568 245.308 138.119 245.456 138.603 245.751C139.091 246.046 139.473 246.448 139.752 246.959C140.033 247.466 140.173 248.049 140.169 248.709C140.173 249.368 140.024 249.957 139.722 250.474C139.424 250.991 139.009 251.398 138.479 251.697C137.952 251.992 137.347 252.139 136.664 252.139ZM145.83 241.818H147.694L150.935 249.733H151.055L154.296 241.818H156.161V252H154.699V244.632H154.604L151.602 251.985H150.388L147.386 244.627H147.291V252H145.83V241.818ZM167.238 246.909C167.238 247.996 167.04 248.931 166.642 249.713C166.244 250.492 165.699 251.092 165.006 251.513C164.317 251.93 163.533 252.139 162.655 252.139C161.773 252.139 160.986 251.93 160.293 251.513C159.604 251.092 159.06 250.49 158.662 249.708C158.265 248.926 158.066 247.993 158.066 246.909C158.066 245.822 158.265 244.889 158.662 244.11C159.06 243.328 159.604 242.728 160.293 242.31C160.986 241.889 161.773 241.679 162.655 241.679C163.533 241.679 164.317 241.889 165.006 242.31C165.699 242.728 166.244 243.328 166.642 244.11C167.04 244.889 167.238 245.822 167.238 246.909ZM165.717 246.909C165.717 246.08 165.583 245.383 165.314 244.816C165.049 244.246 164.685 243.815 164.221 243.523C163.76 243.228 163.238 243.081 162.655 243.081C162.068 243.081 161.544 243.228 161.084 243.523C160.623 243.815 160.258 244.246 159.99 244.816C159.725 245.383 159.592 246.08 159.592 246.909C159.592 247.738 159.725 248.437 159.99 249.007C160.258 249.574 160.623 250.005 161.084 250.3C161.544 250.591 162.068 250.737 162.655 250.737C163.238 250.737 163.76 250.591 164.221 250.3C164.685 250.005 165.049 249.574 165.314 249.007C165.583 248.437 165.717 247.738 165.717 246.909ZM169.154 252V241.818H172.783C173.572 241.818 174.226 241.954 174.747 242.226C175.27 242.498 175.662 242.874 175.92 243.354C176.179 243.832 176.308 244.384 176.308 245.01C176.308 245.633 176.177 246.182 175.915 246.656C175.657 247.126 175.266 247.492 174.742 247.754C174.221 248.016 173.567 248.147 172.778 248.147H170.029V246.825H172.639C173.136 246.825 173.54 246.753 173.852 246.611C174.167 246.468 174.397 246.261 174.543 245.989C174.689 245.718 174.762 245.391 174.762 245.01C174.762 244.625 174.687 244.292 174.538 244.011C174.392 243.729 174.162 243.513 173.847 243.364C173.535 243.212 173.126 243.136 172.619 243.136H170.69V252H169.154ZM174.18 247.406L176.696 252H174.946L172.48 247.406H174.18ZM178.177 252V241.818H184.561V243.141H179.713V246.243H184.228V247.56H179.713V250.678H184.62V252H178.177Z" fill="#00ABB3"/>
<g filter="url(#filter1_d_213_4039)">
<rect x="17" y="46" width="309" height="64" rx="8" fill="#FEFEFE"/>
</g>
<path d="M71.8011 75.3636C71.7415 74.8598 71.4995 74.4688 71.0753 74.1903C70.651 73.9119 70.1307 73.7727 69.5142 73.7727C69.0634 73.7727 68.669 73.8456 68.331 73.9915C67.9962 74.1373 67.7344 74.3378 67.5455 74.593C67.3598 74.8482 67.267 75.1383 67.267 75.4631C67.267 75.7348 67.3317 75.9685 67.4609 76.1641C67.5935 76.3563 67.7625 76.517 67.968 76.6463C68.1735 76.7723 68.389 76.8767 68.6143 76.9595C68.8397 77.0391 69.0469 77.1037 69.2358 77.1534L70.2699 77.4318C70.535 77.5014 70.83 77.5975 71.1548 77.7202C71.483 77.8428 71.7962 78.0102 72.0945 78.2223C72.3961 78.4311 72.6446 78.6996 72.8402 79.0277C73.0357 79.3558 73.1335 79.7585 73.1335 80.2358C73.1335 80.786 72.9893 81.2831 72.701 81.7273C72.416 82.1714 71.9983 82.5244 71.4482 82.7862C70.9013 83.0481 70.2367 83.179 69.4545 83.179C68.7254 83.179 68.094 83.0613 67.5604 82.826C67.0301 82.5907 66.6125 82.2625 66.3075 81.8416C66.0059 81.4207 65.8352 80.9318 65.7955 80.375H67.0682C67.1013 80.7595 67.2306 81.0777 67.456 81.3295C67.6847 81.5781 67.973 81.7637 68.321 81.8864C68.6723 82.0057 69.0502 82.0653 69.4545 82.0653C69.9252 82.0653 70.3478 81.9891 70.7223 81.8366C71.0968 81.6809 71.3935 81.4654 71.6122 81.1903C71.831 80.9119 71.9403 80.5871 71.9403 80.2159C71.9403 79.8778 71.8459 79.6027 71.657 79.3906C71.468 79.1785 71.2195 79.0062 70.9112 78.8736C70.603 78.741 70.2699 78.625 69.9119 78.5256L68.6591 78.1676C67.8636 77.9389 67.2339 77.6125 66.7699 77.1882C66.3059 76.764 66.0739 76.2088 66.0739 75.5227C66.0739 74.9527 66.228 74.4555 66.5362 74.0312C66.8478 73.6037 67.2654 73.2723 67.7891 73.0369C68.3161 72.7983 68.9044 72.679 69.554 72.679C70.2102 72.679 70.7936 72.7966 71.304 73.032C71.8144 73.264 72.2188 73.5821 72.517 73.9865C72.8187 74.3909 72.9777 74.8499 72.9943 75.3636H71.8011ZM78.2033 83.1591C77.4675 83.1591 76.8328 82.9967 76.2992 82.6719C75.7689 82.3438 75.3596 81.8864 75.0712 81.2997C74.7862 80.7098 74.6436 80.0237 74.6436 79.2415C74.6436 78.4593 74.7862 77.7699 75.0712 77.1733C75.3596 76.5734 75.7606 76.1061 76.2743 75.7713C76.7914 75.4332 77.3946 75.2642 78.084 75.2642C78.4817 75.2642 78.8745 75.3305 79.2623 75.4631C79.65 75.5956 80.003 75.8111 80.3212 76.1094C80.6394 76.4044 80.8929 76.7955 81.0819 77.2827C81.2708 77.7699 81.3652 78.3698 81.3652 79.0824V79.5795H75.4789V78.5653H80.1721C80.1721 78.1345 80.0859 77.75 79.9135 77.4119C79.7445 77.0739 79.5025 76.8071 79.1877 76.6115C78.8761 76.416 78.5082 76.3182 78.084 76.3182C77.6167 76.3182 77.2123 76.4342 76.8709 76.6662C76.5328 76.8949 76.2727 77.1932 76.0904 77.5611C75.9081 77.929 75.8169 78.3234 75.8169 78.7443V79.4205C75.8169 79.9972 75.9164 80.486 76.1152 80.8871C76.3174 81.2848 76.5975 81.5881 76.9554 81.7969C77.3134 82.0024 77.7293 82.1051 78.2033 82.1051C78.5115 82.1051 78.79 82.062 79.0385 81.9759C79.2904 81.8864 79.5075 81.7538 79.6898 81.5781C79.8721 81.3991 80.013 81.1771 80.1124 80.9119L81.2459 81.2301C81.1266 81.6146 80.9261 81.9527 80.6444 82.2443C80.3626 82.5327 80.0146 82.758 79.6003 82.9205C79.186 83.0795 78.7203 83.1591 78.2033 83.1591ZM84.3233 72.8182V83H83.15V72.8182H84.3233ZM89.674 83.1591C88.9382 83.1591 88.3035 82.9967 87.7699 82.6719C87.2396 82.3438 86.8303 81.8864 86.5419 81.2997C86.2569 80.7098 86.1143 80.0237 86.1143 79.2415C86.1143 78.4593 86.2569 77.7699 86.5419 77.1733C86.8303 76.5734 87.2313 76.1061 87.745 75.7713C88.2621 75.4332 88.8653 75.2642 89.5547 75.2642C89.9524 75.2642 90.3452 75.3305 90.733 75.4631C91.1207 75.5956 91.4737 75.8111 91.7919 76.1094C92.1101 76.4044 92.3636 76.7955 92.5526 77.2827C92.7415 77.7699 92.8359 78.3698 92.8359 79.0824V79.5795H86.9496V78.5653H91.6428C91.6428 78.1345 91.5566 77.75 91.3842 77.4119C91.2152 77.0739 90.9732 76.8071 90.6584 76.6115C90.3468 76.416 89.9789 76.3182 89.5547 76.3182C89.0874 76.3182 88.683 76.4342 88.3416 76.6662C88.0036 76.8949 87.7434 77.1932 87.5611 77.5611C87.3788 77.929 87.2876 78.3234 87.2876 78.7443V79.4205C87.2876 79.9972 87.3871 80.486 87.5859 80.8871C87.7881 81.2848 88.0682 81.5881 88.4261 81.7969C88.7841 82.0024 89.2 82.1051 89.674 82.1051C89.9822 82.1051 90.2607 82.062 90.5092 81.9759C90.7611 81.8864 90.9782 81.7538 91.1605 81.5781C91.3428 81.3991 91.4837 81.1771 91.5831 80.9119L92.7166 81.2301C92.5973 81.6146 92.3968 81.9527 92.1151 82.2443C91.8333 82.5327 91.4853 82.758 91.071 82.9205C90.6567 83.0795 90.1911 83.1591 89.674 83.1591ZM97.723 83.1591C97.0071 83.1591 96.3906 82.9901 95.8736 82.652C95.3565 82.3139 94.9588 81.8482 94.6804 81.255C94.402 80.6617 94.2628 79.9839 94.2628 79.2216C94.2628 78.446 94.4053 77.7616 94.6903 77.1683C94.9787 76.5717 95.3797 76.1061 95.8935 75.7713C96.4105 75.4332 97.0137 75.2642 97.7031 75.2642C98.2401 75.2642 98.724 75.3636 99.1548 75.5625C99.5857 75.7614 99.9387 76.0398 100.214 76.3977C100.489 76.7557 100.66 77.1733 100.726 77.6506H99.5526C99.4631 77.3026 99.2642 76.9943 98.956 76.7259C98.651 76.4541 98.2401 76.3182 97.723 76.3182C97.2656 76.3182 96.8646 76.4375 96.5199 76.6761C96.1785 76.9115 95.9117 77.2446 95.7195 77.6754C95.5305 78.103 95.4361 78.6051 95.4361 79.1818C95.4361 79.7718 95.5289 80.2855 95.7145 80.723C95.9034 81.1605 96.1686 81.5002 96.5099 81.7422C96.8546 81.9841 97.259 82.1051 97.723 82.1051C98.0279 82.1051 98.3047 82.0521 98.5533 81.946C98.8018 81.84 99.0123 81.6875 99.1847 81.4886C99.357 81.2898 99.4796 81.0511 99.5526 80.7727H100.726C100.66 81.2235 100.496 81.6295 100.234 81.9908C99.9751 82.3487 99.6321 82.6338 99.2045 82.8459C98.7803 83.0547 98.2865 83.1591 97.723 83.1591ZM105.762 75.3636V76.358H101.805V75.3636H105.762ZM102.958 73.5341H104.131V80.8125C104.131 81.1439 104.179 81.3925 104.276 81.5582C104.375 81.7206 104.501 81.83 104.653 81.8864C104.809 81.9394 104.973 81.9659 105.146 81.9659C105.275 81.9659 105.381 81.9593 105.464 81.946C105.547 81.9295 105.613 81.9162 105.663 81.9062L105.901 82.9602C105.822 82.9901 105.711 83.0199 105.568 83.0497C105.426 83.0829 105.245 83.0994 105.026 83.0994C104.695 83.0994 104.37 83.0282 104.052 82.8857C103.737 82.7431 103.475 82.526 103.266 82.2344C103.061 81.9427 102.958 81.5748 102.958 81.1307V73.5341ZM114.786 75.3636V76.358H110.828V75.3636H114.786ZM111.982 73.5341H113.155V80.8125C113.155 81.1439 113.203 81.3925 113.299 81.5582C113.398 81.7206 113.524 81.83 113.677 81.8864C113.833 81.9394 113.997 81.9659 114.169 81.9659C114.298 81.9659 114.404 81.9593 114.487 81.946C114.57 81.9295 114.636 81.9162 114.686 81.9062L114.925 82.9602C114.845 82.9901 114.734 83.0199 114.592 83.0497C114.449 83.0829 114.268 83.0994 114.05 83.0994C113.718 83.0994 113.393 83.0282 113.075 82.8857C112.76 82.7431 112.499 82.526 112.29 82.2344C112.084 81.9427 111.982 81.5748 111.982 81.1307V73.5341ZM119.67 83.1591C118.934 83.1591 118.3 82.9967 117.766 82.6719C117.236 82.3438 116.826 81.8864 116.538 81.2997C116.253 80.7098 116.11 80.0237 116.11 79.2415C116.11 78.4593 116.253 77.7699 116.538 77.1733C116.826 76.5734 117.227 76.1061 117.741 75.7713C118.258 75.4332 118.861 75.2642 119.551 75.2642C119.949 75.2642 120.341 75.3305 120.729 75.4631C121.117 75.5956 121.47 75.8111 121.788 76.1094C122.106 76.4044 122.36 76.7955 122.549 77.2827C122.738 77.7699 122.832 78.3698 122.832 79.0824V79.5795H116.946V78.5653H121.639C121.639 78.1345 121.553 77.75 121.38 77.4119C121.211 77.0739 120.969 76.8071 120.654 76.6115C120.343 76.416 119.975 76.3182 119.551 76.3182C119.083 76.3182 118.679 76.4342 118.338 76.6662C118 76.8949 117.739 77.1932 117.557 77.5611C117.375 77.929 117.284 78.3234 117.284 78.7443V79.4205C117.284 79.9972 117.383 80.486 117.582 80.8871C117.784 81.2848 118.064 81.5881 118.422 81.7969C118.78 82.0024 119.196 82.1051 119.67 82.1051C119.978 82.1051 120.257 82.062 120.505 81.9759C120.757 81.8864 120.974 81.7538 121.157 81.5781C121.339 81.3991 121.48 81.1771 121.579 80.9119L122.713 81.2301C122.593 81.6146 122.393 81.9527 122.111 82.2443C121.829 82.5327 121.481 82.758 121.067 82.9205C120.653 83.0795 120.187 83.1591 119.67 83.1591ZM130.026 77.0739L128.972 77.3722C128.906 77.1965 128.808 77.0258 128.679 76.8601C128.553 76.6911 128.38 76.5518 128.162 76.4425C127.943 76.3331 127.663 76.2784 127.321 76.2784C126.854 76.2784 126.465 76.3861 126.153 76.6016C125.845 76.8137 125.691 77.0838 125.691 77.4119C125.691 77.7036 125.797 77.9339 126.009 78.103C126.221 78.272 126.552 78.4129 127.003 78.5256L128.137 78.804C128.819 78.9697 129.328 79.2232 129.663 79.5646C129.998 79.9027 130.165 80.3385 130.165 80.8722C130.165 81.3097 130.039 81.7008 129.787 82.0455C129.539 82.3902 129.191 82.6619 128.743 82.8608C128.296 83.0597 127.775 83.1591 127.182 83.1591C126.403 83.1591 125.759 82.9901 125.248 82.652C124.738 82.3139 124.415 81.8201 124.279 81.1705L125.392 80.892C125.498 81.303 125.699 81.6113 125.994 81.8168C126.292 82.0223 126.682 82.125 127.162 82.125C127.709 82.125 128.143 82.009 128.465 81.777C128.79 81.5417 128.952 81.2599 128.952 80.9318C128.952 80.6667 128.859 80.4446 128.674 80.2656C128.488 80.0833 128.203 79.9474 127.819 79.858L126.546 79.5597C125.846 79.3939 125.333 79.1371 125.005 78.7891C124.68 78.4377 124.517 77.9986 124.517 77.4716C124.517 77.0407 124.638 76.6596 124.88 76.3281C125.126 75.9967 125.459 75.7365 125.88 75.5476C126.304 75.3587 126.784 75.2642 127.321 75.2642C128.077 75.2642 128.67 75.4299 129.101 75.7614C129.535 76.0928 129.844 76.5303 130.026 77.0739ZM135.252 75.3636V76.358H131.295V75.3636H135.252ZM132.448 73.5341H133.622V80.8125C133.622 81.1439 133.67 81.3925 133.766 81.5582C133.865 81.7206 133.991 81.83 134.144 81.8864C134.299 81.9394 134.463 81.9659 134.636 81.9659C134.765 81.9659 134.871 81.9593 134.954 81.946C135.037 81.9295 135.103 81.9162 135.153 81.9062L135.392 82.9602C135.312 82.9901 135.201 83.0199 135.058 83.0497C134.916 83.0829 134.735 83.0994 134.517 83.0994C134.185 83.0994 133.86 83.0282 133.542 82.8857C133.227 82.7431 132.965 82.526 132.757 82.2344C132.551 81.9427 132.448 81.5748 132.448 81.1307V73.5341ZM137.017 83V75.3636H138.191V83H137.017ZM137.614 74.0909C137.385 74.0909 137.188 74.013 137.022 73.8572C136.86 73.7015 136.779 73.5142 136.779 73.2955C136.779 73.0767 136.86 72.8894 137.022 72.7337C137.188 72.5779 137.385 72.5 137.614 72.5C137.843 72.5 138.038 72.5779 138.2 72.7337C138.366 72.8894 138.449 73.0767 138.449 73.2955C138.449 73.5142 138.366 73.7015 138.2 73.8572C138.038 74.013 137.843 74.0909 137.614 74.0909ZM141.513 78.4062V83H140.339V75.3636H141.473V76.5568H141.572C141.751 76.169 142.023 75.8575 142.388 75.6222C142.752 75.3835 143.223 75.2642 143.8 75.2642C144.317 75.2642 144.769 75.3703 145.157 75.5824C145.545 75.7912 145.846 76.1094 146.062 76.5369C146.277 76.9612 146.385 77.4981 146.385 78.1477V83H145.212V78.2273C145.212 77.6274 145.056 77.16 144.744 76.8253C144.433 76.4872 144.005 76.3182 143.462 76.3182C143.087 76.3182 142.752 76.3994 142.457 76.5618C142.166 76.7242 141.935 76.9612 141.766 77.2727C141.597 77.5843 141.513 77.9621 141.513 78.4062ZM151.611 86.0227C151.045 86.0227 150.557 85.9498 150.15 85.804C149.742 85.6615 149.402 85.4725 149.131 85.2372C148.862 85.0052 148.648 84.7566 148.489 84.4915L149.424 83.8352C149.53 83.9744 149.664 84.1335 149.827 84.3125C149.989 84.4948 150.211 84.6522 150.493 84.7848C150.778 84.9207 151.151 84.9886 151.611 84.9886C152.228 84.9886 152.737 84.8395 153.138 84.5412C153.539 84.2429 153.739 83.7756 153.739 83.1392V81.5881H153.64C153.554 81.7273 153.431 81.8996 153.272 82.1051C153.116 82.3073 152.891 82.4879 152.596 82.647C152.304 82.8028 151.91 82.8807 151.412 82.8807C150.796 82.8807 150.242 82.7348 149.752 82.4432C149.265 82.1515 148.879 81.7273 148.594 81.1705C148.312 80.6136 148.171 79.9375 148.171 79.142C148.171 78.3598 148.309 77.6787 148.584 77.0987C148.859 76.5154 149.242 76.0646 149.732 75.7464C150.223 75.425 150.789 75.2642 151.432 75.2642C151.93 75.2642 152.324 75.3471 152.616 75.5128C152.911 75.6752 153.136 75.8608 153.292 76.0696C153.451 76.2751 153.573 76.4441 153.66 76.5767H153.779V75.3636H154.912V83.2188C154.912 83.875 154.763 84.4086 154.465 84.8196C154.17 85.2339 153.772 85.5372 153.272 85.7294C152.775 85.925 152.221 86.0227 151.611 86.0227ZM151.572 81.8267C152.042 81.8267 152.44 81.719 152.765 81.5036C153.09 81.2881 153.336 80.9782 153.506 80.5739C153.675 80.1695 153.759 79.6856 153.759 79.1222C153.759 78.572 153.676 78.0864 153.51 77.6655C153.345 77.2446 153.099 76.9148 152.775 76.6761C152.45 76.4375 152.049 76.3182 151.572 76.3182C151.074 76.3182 150.66 76.4441 150.329 76.696C150.001 76.9479 149.754 77.286 149.588 77.7102C149.425 78.1345 149.344 78.6051 149.344 79.1222C149.344 79.6525 149.427 80.1214 149.593 80.5291C149.762 80.9335 150.01 81.2517 150.339 81.4837C150.67 81.7124 151.081 81.8267 151.572 81.8267ZM162.171 72.8182V83H160.998V72.8182H162.171ZM167.422 83.1591C166.733 83.1591 166.128 82.995 165.608 82.6669C165.091 82.3388 164.686 81.8797 164.395 81.2898C164.106 80.6998 163.962 80.0104 163.962 79.2216C163.962 78.4261 164.106 77.7318 164.395 77.1385C164.686 76.5452 165.091 76.0845 165.608 75.7564C166.128 75.4283 166.733 75.2642 167.422 75.2642C168.112 75.2642 168.715 75.4283 169.232 75.7564C169.752 76.0845 170.157 76.5452 170.445 77.1385C170.737 77.7318 170.882 78.4261 170.882 79.2216C170.882 80.0104 170.737 80.6998 170.445 81.2898C170.157 81.8797 169.752 82.3388 169.232 82.6669C168.715 82.995 168.112 83.1591 167.422 83.1591ZM167.422 82.1051C167.946 82.1051 168.377 81.9709 168.715 81.7024C169.053 81.4339 169.303 81.081 169.466 80.6435C169.628 80.206 169.709 79.732 169.709 79.2216C169.709 78.7112 169.628 78.2356 169.466 77.7947C169.303 77.3539 169.053 76.9976 168.715 76.7259C168.377 76.4541 167.946 76.3182 167.422 76.3182C166.899 76.3182 166.468 76.4541 166.13 76.7259C165.792 76.9976 165.541 77.3539 165.379 77.7947C165.217 78.2356 165.135 78.7112 165.135 79.2216C165.135 79.732 165.217 80.206 165.379 80.6435C165.541 81.081 165.792 81.4339 166.13 81.7024C166.468 81.9709 166.899 82.1051 167.422 82.1051ZM175.776 83.1591C175.06 83.1591 174.443 82.9901 173.926 82.652C173.409 82.3139 173.012 81.8482 172.733 81.255C172.455 80.6617 172.316 79.9839 172.316 79.2216C172.316 78.446 172.458 77.7616 172.743 77.1683C173.031 76.5717 173.432 76.1061 173.946 75.7713C174.463 75.4332 175.066 75.2642 175.756 75.2642C176.293 75.2642 176.777 75.3636 177.208 75.5625C177.638 75.7614 177.991 76.0398 178.267 76.3977C178.542 76.7557 178.712 77.1733 178.779 77.6506H177.605C177.516 77.3026 177.317 76.9943 177.009 76.7259C176.704 76.4541 176.293 76.3182 175.776 76.3182C175.318 76.3182 174.917 76.4375 174.573 76.6761C174.231 76.9115 173.964 77.2446 173.772 77.6754C173.583 78.103 173.489 78.6051 173.489 79.1818C173.489 79.7718 173.582 80.2855 173.767 80.723C173.956 81.1605 174.221 81.5002 174.563 81.7422C174.907 81.9841 175.312 82.1051 175.776 82.1051C176.081 82.1051 176.357 82.0521 176.606 81.946C176.855 81.84 177.065 81.6875 177.237 81.4886C177.41 81.2898 177.532 81.0511 177.605 80.7727H178.779C178.712 81.2235 178.548 81.6295 178.286 81.9908C178.028 82.3487 177.685 82.6338 177.257 82.8459C176.833 83.0547 176.339 83.1591 175.776 83.1591ZM182.741 83.179C182.257 83.179 181.818 83.0878 181.423 82.9055C181.029 82.7199 180.716 82.4531 180.484 82.1051C180.252 81.7538 180.136 81.3295 180.136 80.8324C180.136 80.3949 180.222 80.0402 180.394 79.7685C180.567 79.4934 180.797 79.2779 181.085 79.1222C181.374 78.9664 181.692 78.8504 182.04 78.7741C182.391 78.6946 182.744 78.6316 183.099 78.5852C183.563 78.5256 183.939 78.4808 184.227 78.451C184.519 78.4179 184.731 78.3632 184.864 78.2869C185 78.2107 185.068 78.0781 185.068 77.8892V77.8494C185.068 77.3589 184.933 76.9777 184.665 76.706C184.4 76.4342 183.997 76.2983 183.457 76.2983C182.897 76.2983 182.458 76.4209 182.139 76.6662C181.821 76.9115 181.597 77.1733 181.468 77.4517L180.355 77.054C180.553 76.59 180.819 76.2287 181.15 75.9702C181.485 75.7083 181.849 75.526 182.244 75.4233C182.642 75.3172 183.033 75.2642 183.417 75.2642C183.662 75.2642 183.944 75.294 184.262 75.3537C184.584 75.41 184.894 75.5277 185.192 75.7067C185.494 75.8857 185.744 76.1558 185.943 76.517C186.142 76.8783 186.241 77.3622 186.241 77.9688V83H185.068V81.9659H185.008C184.928 82.1316 184.796 82.3089 184.61 82.4979C184.425 82.6868 184.178 82.8475 183.869 82.9801C183.561 83.1127 183.185 83.179 182.741 83.179ZM182.92 82.125C183.384 82.125 183.775 82.0339 184.093 81.8516C184.415 81.6693 184.657 81.4339 184.819 81.1456C184.985 80.8572 185.068 80.554 185.068 80.2358V79.1619C185.018 79.2216 184.909 79.2763 184.74 79.326C184.574 79.3724 184.382 79.4138 184.163 79.4503C183.947 79.4834 183.737 79.5133 183.531 79.5398C183.329 79.563 183.165 79.5829 183.039 79.5994C182.734 79.6392 182.449 79.7038 182.184 79.7933C181.922 79.8795 181.71 80.0104 181.548 80.1861C181.389 80.3584 181.309 80.5937 181.309 80.892C181.309 81.2997 181.46 81.608 181.762 81.8168C182.066 82.0223 182.453 82.125 182.92 82.125ZM191.703 75.3636V76.358H187.746V75.3636H191.703ZM188.9 73.5341H190.073V80.8125C190.073 81.1439 190.121 81.3925 190.217 81.5582C190.316 81.7206 190.442 81.83 190.595 81.8864C190.751 81.9394 190.915 81.9659 191.087 81.9659C191.216 81.9659 191.322 81.9593 191.405 81.946C191.488 81.9295 191.554 81.9162 191.604 81.9062L191.843 82.9602C191.763 82.9901 191.652 83.0199 191.51 83.0497C191.367 83.0829 191.186 83.0994 190.968 83.0994C190.636 83.0994 190.311 83.0282 189.993 82.8857C189.678 82.7431 189.417 82.526 189.208 82.2344C189.002 81.9427 188.9 81.5748 188.9 81.1307V73.5341ZM193.468 83V75.3636H194.642V83H193.468ZM194.065 74.0909C193.836 74.0909 193.639 74.013 193.473 73.8572C193.311 73.7015 193.23 73.5142 193.23 73.2955C193.23 73.0767 193.311 72.8894 193.473 72.7337C193.639 72.5779 193.836 72.5 194.065 72.5C194.294 72.5 194.489 72.5779 194.652 72.7337C194.817 72.8894 194.9 73.0767 194.9 73.2955C194.9 73.5142 194.817 73.7015 194.652 73.8572C194.489 74.013 194.294 74.0909 194.065 74.0909ZM199.893 83.1591C199.204 83.1591 198.599 82.995 198.078 82.6669C197.561 82.3388 197.157 81.8797 196.865 81.2898C196.577 80.6998 196.433 80.0104 196.433 79.2216C196.433 78.4261 196.577 77.7318 196.865 77.1385C197.157 76.5452 197.561 76.0845 198.078 75.7564C198.599 75.4283 199.204 75.2642 199.893 75.2642C200.582 75.2642 201.186 75.4283 201.703 75.7564C202.223 76.0845 202.627 76.5452 202.916 77.1385C203.207 77.7318 203.353 78.4261 203.353 79.2216C203.353 80.0104 203.207 80.6998 202.916 81.2898C202.627 81.8797 202.223 82.3388 201.703 82.6669C201.186 82.995 200.582 83.1591 199.893 83.1591ZM199.893 82.1051C200.417 82.1051 200.847 81.9709 201.186 81.7024C201.524 81.4339 201.774 81.081 201.936 80.6435C202.099 80.206 202.18 79.732 202.18 79.2216C202.18 78.7112 202.099 78.2356 201.936 77.7947C201.774 77.3539 201.524 76.9976 201.186 76.7259C200.847 76.4541 200.417 76.3182 199.893 76.3182C199.369 76.3182 198.938 76.4541 198.6 76.7259C198.262 76.9976 198.012 77.3539 197.85 77.7947C197.687 78.2356 197.606 78.7112 197.606 79.2216C197.606 79.732 197.687 80.206 197.85 80.6435C198.012 81.081 198.262 81.4339 198.6 81.7024C198.938 81.9709 199.369 82.1051 199.893 82.1051ZM206.317 78.4062V83H205.144V75.3636H206.278V76.5568H206.377C206.556 76.169 206.828 75.8575 207.192 75.6222C207.557 75.3835 208.028 75.2642 208.604 75.2642C209.121 75.2642 209.574 75.3703 209.962 75.5824C210.349 75.7912 210.651 76.1094 210.866 76.5369C211.082 76.9612 211.19 77.4981 211.19 78.1477V83H210.016V78.2273C210.016 77.6274 209.861 77.16 209.549 76.8253C209.237 76.4872 208.81 76.3182 208.266 76.3182C207.892 76.3182 207.557 76.3994 207.262 76.5618C206.97 76.7242 206.74 76.9612 206.571 77.2727C206.402 77.5843 206.317 77.9621 206.317 78.4062Z" fill="#1C2525"/>
<g clip-path="url(#clip0_213_4039)">
<path d="M43 85.416L47.125 81.291C47.9408 80.4751 48.4963 79.4357 48.7213 78.3042C48.9463 77.1726 48.8308 75.9998 48.3892 74.9339C47.9477 73.868 47.2 72.957 46.2408 72.3161C45.2815 71.6751 44.1537 71.333 43 71.333C41.8463 71.333 40.7185 71.6751 39.7592 72.3161C38.8 72.957 38.0523 73.868 37.6108 74.9339C37.1692 75.9998 37.0537 77.1726 37.2787 78.3042C37.5037 79.4357 38.0593 80.4751 38.875 81.291L43 85.416ZM43 87.7726L37.6967 82.4693C36.6478 81.4204 35.9335 80.084 35.6441 78.6292C35.3547 77.1743 35.5033 75.6663 36.0709 74.2959C36.6386 72.9254 37.5999 71.7541 38.8332 70.93C40.0666 70.1059 41.5166 69.666 43 69.666C44.4834 69.666 45.9334 70.1059 47.1668 70.93C48.4001 71.7541 49.3614 72.9254 49.9291 74.2959C50.4968 75.6663 50.6453 77.1743 50.3559 78.6292C50.0665 80.084 49.3522 81.4204 48.3033 82.4693L43 87.7726ZM43 78.8326C43.442 78.8326 43.866 78.657 44.1785 78.3445C44.4911 78.0319 44.6667 77.608 44.6667 77.166C44.6667 76.7239 44.4911 76.3 44.1785 75.9874C43.866 75.6749 43.442 75.4993 43 75.4993C42.558 75.4993 42.1341 75.6749 41.8215 75.9874C41.5089 76.3 41.3333 76.7239 41.3333 77.166C41.3333 77.608 41.5089 78.0319 41.8215 78.3445C42.1341 78.657 42.558 78.8326 43 78.8326ZM43 80.4993C42.1159 80.4993 41.2681 80.1481 40.643 79.523C40.0179 78.8979 39.6667 78.05 39.6667 77.166C39.6667 76.2819 40.0179 75.434 40.643 74.8089C41.2681 74.1838 42.1159 73.8326 43 73.8326C43.8841 73.8326 44.7319 74.1838 45.357 74.8089C45.9821 75.434 46.3333 76.2819 46.3333 77.166C46.3333 78.05 45.9821 78.8979 45.357 79.523C44.7319 80.1481 43.8841 80.4993 43 80.4993Z" fill="#1C2525"/>
</g>
<path d="M299 80.5L294 75.5L289 80.5L299 80.5Z" fill="#1C2525"/>
<defs>
<filter id="filter0_d_213_4039" x="90" y="93" width="317" height="205" filterUnits="userSpaceOnUse" color-interpolation-filters="sRGB">
<feFlood flood-opacity="0" result="BackgroundImageFix"/>
<feColorMatrix in="SourceAlpha" type="matrix" values="0 0 0 0 0 0 0 0 0 0 0 0 0 0 0 0 0 0 127 0" result="hardAlpha"/>
<feOffset dy="10"/>
<feGaussianBlur stdDeviation="8.5"/>
<feComposite in2="hardAlpha" operator="out"/>
<feColorMatrix type="matrix" values="0 0 0 0 0 0 0 0 0 0 0 0 0 0 0 0 0 0 0.02 0"/>
<feBlend mode="normal" in2="BackgroundImageFix" result="effect1_dropShadow_213_4039"/>
<feBlend mode="normal" in="SourceGraphic" in2="effect1_dropShadow_213_4039" result="shape"/>
</filter>
<filter id="filter1_d_213_4039" x="0" y="39" width="343" height="98" filterUnits="userSpaceOnUse" color-interpolation-filters="sRGB">
<feFlood flood-opacity="0" result="BackgroundImageFix"/>
<feColorMatrix in="SourceAlpha" type="matrix" values="0 0 0 0 0 0 0 0 0 0 0 0 0 0 0 0 0 0 127 0" result="hardAlpha"/>
<feOffset dy="10"/>
<feGaussianBlur stdDeviation="8.5"/>
<feComposite in2="hardAlpha" operator="out"/>
<feColorMatrix type="matrix" values="0 0 0 0 0 0 0 0 0 0 0 0 0 0 0 0 0 0 0.02 0"/>
<feBlend mode="normal" in2="BackgroundImageFix" result="effect1_dropShadow_213_4039"/>
<feBlend mode="normal" in="SourceGraphic" in2="effect1_dropShadow_213_4039" result="shape"/>
</filter>
<clipPath id="clip0_213_4039">
<rect width="20" height="20" fill="white" transform="translate(33 68)"/>
</clipPath>
</defs>
</svg>
